<?xml version="1.0" encoding="UTF-8"?>
<svg width="127px" height="27px" viewBox="0 0 127 27" version="1.1" xmlns="http://www.w3.org/2000/svg" xmlns:xlink="http://www.w3.org/1999/xlink">
    <!-- Generator: Sketch 52.1 (67048) - http://www.bohemiancoding.com/sketch -->
    <title>Group 25</title>
    <desc>Created with Sketch.</desc>
    <defs>
        <polygon id="path-1" points="0.37655122 0.027 11.8719659 0.027 11.8719659 22.8890195 0.37655122 22.8890195"></polygon>
        <polygon id="path-3" points="0.59597561 0.56285122 11.6462195 0.56285122 11.6462195 15.7724122 0.59597561 15.7724122"></polygon>
    </defs>
    <g id="Enterprise" stroke="none" stroke-width="1" fill="none" fill-rule="evenodd">
        <g id="Real-Estate" transform="translate(-53.000000, -17.000000)">
            <g id="Group-25" transform="translate(53.000000, 17.000000)">
                <g id="Group-3" transform="translate(102.073171, 0.631734)">
                    <mask id="mask-2" fill="white">
                        <use xlink:href="#path-1"></use>
                    </mask>
                    <g id="Clip-2"></g>
                    <path d="M9.96681951,22.4128976 L4.34620976,15.2052146 L2.40879512,16.760678 L2.40879512,21.8728976 C2.40879512,22.4445073 1.96494146,22.8890195 1.39267317,22.8890195 C0.821721951,22.8890195 0.37655122,22.4445073 0.37655122,21.8728976 L0.37655122,1.04272683 C0.37655122,0.47177561 0.821721951,0.026604878 1.39267317,0.026604878 C1.96494146,0.026604878 2.40879512,0.47177561 2.40879512,1.04272683 L2.40879512,14.3471415 L9.90294146,8.2188 C10.1571366,7.99687317 10.4113317,7.96526341 10.6016488,7.96526341 C11.1732585,7.96526341 11.6177707,8.40977561 11.6177707,8.98138537 C11.6177707,9.23492195 11.5222829,9.55299512 11.2048683,9.80653171 L5.99781951,13.9665073 L11.6493805,21.2380683 C11.8403561,21.4599951 11.8719659,21.6825805 11.8719659,21.8728976 C11.8719659,22.4445073 11.4274537,22.8890195 10.8558439,22.8890195 C10.506161,22.8890195 10.2210146,22.7303122 9.96681951,22.4128976" id="Fill-1" fill="#FFFFFF" mask="url(#mask-2)"></path>
                </g>
                <g id="Group-6" transform="translate(114.585366, 7.875637)">
                    <mask id="mask-4" fill="white">
                        <use xlink:href="#path-3"></use>
                    </mask>
                    <g id="Clip-5"></g>
                    <path d="M3.29531707,4.40475366 C3.29531707,7.73826585 11.646878,6.50021707 11.646878,11.5808268 C11.646878,14.4704854 9.26495122,15.7724122 6.24819512,15.7724122 C3.64434146,15.7724122 1.64436585,14.5337049 0.818560976,13.4859732 C0.659853659,13.2640463 0.59597561,13.1046805 0.59597561,12.8827537 C0.59597561,12.375022 1.00887805,11.9621195 1.51726829,11.9621195 C1.7082439,11.9621195 1.96178049,12.025339 2.21597561,12.2795341 C3.19982927,13.2640463 4.47014634,13.8349976 6.24819512,13.8349976 C8.05785366,13.8349976 9.61463415,13.231778 9.61463415,11.5808268 C9.61463415,8.31053415 1.26307317,9.61180244 1.26307317,4.40475366 C1.26307317,1.76929024 3.42241463,0.56285122 6.1217561,0.56285122 C8.28043902,0.56285122 9.96365854,1.29250976 10.9481707,2.59443659 C11.0436585,2.72153415 11.1700976,2.91185122 11.1700976,3.1976561 C11.1700976,3.70604634 10.7571951,4.11894878 10.2494634,4.11894878 C10.0900976,4.11894878 9.83721951,4.08733902 9.58236585,3.8331439 C8.72495122,3.00733902 7.77270732,2.49894878 6.1217561,2.49894878 C4.69273171,2.49894878 3.29531707,2.94411951 3.29531707,4.40475366" id="Fill-4" fill="#FFFFFF" mask="url(#mask-4)"></path>
                </g>
                <path d="M99.5754073,10.5796537 C98.6060415,10.5816293 97.7967,10.9161659 97.1085293,11.6017024 C96.4236512,12.2892146 96.0877976,13.0978976 96.0864805,14.0666049 L96.0864805,22.5399951 C96.0877976,22.8034098 95.9863829,23.0483854 95.7973829,23.2354098 C95.6103585,23.4237512 95.3653829,23.5258244 95.1013098,23.5238488 C94.8372366,23.5258244 94.592261,23.4244098 94.4052366,23.2354098 C94.2162366,23.0483854 94.114822,22.8034098 94.1167976,22.5399951 L94.1167976,14.0666049 C94.114822,12.5690927 94.6535049,11.2704585 95.7177,10.2102146 C96.7786024,9.14733659 98.0778951,8.60865366 99.5754073,8.61062927 C99.965261,8.60997073 100.276749,8.72323902 100.492749,8.90697073 C100.708749,9.09070244 100.823334,9.34489756 100.823334,9.59975122 C100.823993,9.85262927 100.710066,10.1048488 100.494724,10.2866049 C100.278724,10.469678 99.9672366,10.5796537 99.5754073,10.5796537" id="Fill-7" fill="#FFFFFF"></path>
                <path d="M39.0678146,19.4802366 C38.0576195,20.4904317 36.8353756,20.9955293 35.4030585,20.9955293 C33.9694244,20.9955293 32.747839,20.4904317 31.7376439,19.4802366 C30.7281073,18.4700415 30.2223512,17.2484561 30.2223512,15.8154805 C30.2223512,14.3825049 30.7281073,13.1609195 31.7376439,12.1507244 C32.747839,11.1405293 33.9694244,10.6354317 35.4030585,10.6354317 C36.8353756,10.6354317 38.0576195,11.1405293 39.0678146,12.1507244 C40.0773512,13.1609195 40.5824488,14.3825049 40.5824488,15.8154805 C40.5824488,17.2484561 40.0773512,18.4700415 39.0678146,19.4802366 M35.4030585,8.56367561 C33.3997902,8.56367561 31.6902293,9.27160244 30.2743756,10.6874561 C28.858522,12.1033098 28.1505951,13.8128707 28.1505951,15.8154805 C28.1505951,17.8187488 28.858522,19.5276512 30.2743756,20.9435049 C31.6902293,22.3600171 33.3997902,23.0672854 35.4030585,23.0672854 C37.4056683,23.0672854 39.1145707,22.3600171 40.5310829,20.9435049 C41.946278,19.5276512 42.6542049,17.8187488 42.6542049,15.8154805 C42.6542049,13.8128707 41.946278,12.1033098 40.5310829,10.6874561 C39.1145707,9.27160244 37.4056683,8.56367561 35.4030585,8.56367561" id="Fill-9" fill="#FFFFFF"></path>
                <path d="M27.8405561,21.0902268 C26.8580195,21.0889098 26.0368244,20.7484463 25.3387756,20.0536902 C24.6440195,19.3563 24.3042146,18.5351049 24.302239,17.5525683 L24.302239,3.37822683 C24.3042146,3.11086098 24.2014829,2.86390976 24.0098488,2.67490976 C23.8208488,2.48393415 23.5738976,2.38120244 23.3065317,2.38251951 C23.0391659,2.38120244 22.7915561,2.48393415 22.6025561,2.67490976 C22.4115805,2.86390976 22.3088488,3.11086098 22.3108244,3.37822683 L22.3108244,17.5525683 C22.3088488,19.0698366 22.8547756,20.3862512 23.9321415,21.4603244 C25.0075317,22.5376902 26.3226293,23.0836171 27.8405561,23.0816415 C28.2350195,23.0823 28.5504585,22.9683732 28.7690927,22.7813488 C28.9870683,22.5956415 29.1029707,22.3388122 29.1023122,22.0813244 C29.1029707,21.8258122 28.9883854,21.5703 28.7704098,21.3865683 C28.5524341,21.202178 28.2369951,21.0902268 27.8405561,21.0902268" id="Fill-11" fill="#FFFFFF"></path>
                <path d="M6.02784878,21.0837732 C5.05782439,21.0824561 4.24914146,20.747261 3.56097073,20.0623829 C2.87543415,19.3748707 2.54023902,18.5655293 2.53826341,17.596822 L2.53826341,11.6449683 C2.54023902,11.3815537 2.43882439,11.136578 2.24982439,10.9495537 C2.0628,10.7612122 1.81782439,10.6597976 1.55375122,10.6611146 C1.28967805,10.6597976 1.04470244,10.7612122 0.857678049,10.9495537 C0.668678049,11.136578 0.567263415,11.3815537 0.568580488,11.6449683 L0.568580488,17.596822 C0.567263415,19.0943341 1.10594634,20.3929683 2.16948293,21.4538707 C3.2310439,22.5167488 4.52967805,23.0554317 6.02784878,23.0534561 C6.41770244,23.0534561 6.72919024,22.9408463 6.94519024,22.7564561 C7.16119024,22.5727244 7.27577561,22.3185293 7.27511707,22.0643341 C7.27577561,21.8107976 7.16250732,21.558578 6.94650732,21.376822 C6.73050732,21.1944073 6.41901951,21.0837732 6.02784878,21.0837732" id="Fill-13" fill="#FFFFFF"></path>
                <path d="M3.28372683,7.28539024 C3.28372683,6.37858537 2.5488,5.643 1.64199512,5.643 C0.735190244,5.643 0.000263414634,6.37858537 0.000263414634,7.28539024 C0.000263414634,8.19219512 0.735190244,8.92712195 1.64199512,8.92712195 C2.5488,8.92712195 3.28372683,8.19219512 3.28372683,7.28539024" id="Fill-15" fill="#FFFFFF"></path>
                <path d="M17.2293585,19.4406585 C16.219822,20.4508537 14.997578,20.9559512 13.565261,20.9559512 C12.1316268,20.9559512 10.9100415,20.4508537 9.89984634,19.4406585 C8.88965122,18.4304634 8.38455366,17.208878 8.38455366,15.7759024 C8.38455366,14.3422683 8.88965122,13.1206829 9.89984634,12.1111463 C10.9100415,11.1002927 12.1316268,10.5951951 13.565261,10.5951951 C14.997578,10.5951951 16.219822,11.1002927 17.2293585,12.1111463 C18.2395537,13.1206829 18.7446512,14.3422683 18.7446512,15.7759024 C18.7446512,17.208878 18.2395537,18.4304634 17.2293585,19.4406585 Z M20.8164073,15.5651707 C20.8170659,15.4986585 20.8104805,15.434122 20.7986268,15.3702439 C20.7077488,13.5428049 20.0116756,11.9662683 18.6932854,10.6472195 C17.2767732,9.23202439 15.5678707,8.52343902 13.565261,8.52343902 C11.5619927,8.52343902 9.85243171,9.23202439 8.43591951,10.6472195 C7.02072439,12.0630732 6.31279756,13.7732927 6.31279756,15.7759024 C6.31279756,17.7785122 7.02072439,19.4880732 8.43591951,20.9039268 C9.85243171,22.3197805 11.5619927,23.0277073 13.565261,23.0277073 C15.5678707,23.0277073 17.2767732,22.3197805 18.6932854,20.9039268 C18.7479439,20.8492683 18.7940415,20.7913171 18.8467244,20.7353415 L18.8467244,21.5170244 C18.8447488,22.4857317 18.5095537,23.2950732 17.8240171,23.9819268 C17.1365049,24.6674634 16.3271634,25.002 15.3577976,25.0039756 C14.9659683,25.0033171 14.6544805,25.1146098 14.439139,25.2970244 C14.2237976,25.478122 14.1098707,25.731 14.1105293,25.983878 C14.1098707,26.2387317 14.2251146,26.4922683 14.4404561,26.676 C14.6564561,26.8603902 14.9679439,26.9736585 15.3577976,26.973 C16.8559683,26.9749756 18.1539439,26.4362927 19.2161634,25.3734146 C20.2797,24.3125122 20.8183829,23.013878 20.8164073,21.5170244 L20.8164073,15.7772195 L20.8164073,15.7759024 L20.8164073,15.7745854 L20.8164073,15.5651707 Z" id="Fill-17" fill="#FFFFFF"></path>
                <path d="M67.6299293,8.9513561 C67.8261732,8.7551122 68.065222,8.65699024 68.3470756,8.65699024 C68.6282707,8.65699024 68.8719293,8.7551122 69.0760756,8.9513561 C69.2044902,9.08833171 69.2933927,9.24572195 69.3447585,9.4248439 L72.4418561,18.7279902 L75.6021732,9.24572195 C75.6541976,9.14364878 75.725978,9.04552683 75.8208073,8.9513561 C76.0163927,8.7551122 76.2554415,8.65699024 76.5366366,8.65699024 C76.8184902,8.65699024 77.0588561,8.75774634 77.2597098,8.95794146 C77.4605634,9.15813659 77.560661,9.39916098 77.560661,9.68101463 C77.560661,9.81733171 77.534978,9.94969756 77.4836122,10.0774537 L73.4020024,22.3367707 C73.3506366,22.4651854 73.2735878,22.5883317 73.1708561,22.7081854 C72.9667098,22.8958683 72.7230512,22.9893805 72.4418561,22.9893805 C72.160661,22.9893805 71.9216122,22.8958683 71.7253683,22.7081854 C71.6140756,22.5883317 71.5330756,22.4651854 71.4823683,22.3367707 L68.3470756,12.9183805 L65.2117829,22.3367707 C65.1604171,22.4651854 65.0840268,22.5883317 64.9812951,22.7081854 C64.7764902,22.8958683 64.5334902,22.9893805 64.2516366,22.9893805 C63.9697829,22.9893805 63.7313927,22.8958683 63.5351488,22.7081854 C63.4238561,22.5883317 63.3428561,22.4651854 63.2921488,22.3367707 L59.2098805,10.0774537 C59.1585146,9.94969756 59.1334902,9.81733171 59.1334902,9.68101463 C59.1334902,9.39916098 59.2329293,9.15813659 59.4337829,8.95794146 C59.633978,8.75774634 59.875661,8.65699024 60.1568561,8.65699024 C60.4380512,8.65699024 60.6810512,8.7551122 60.8865146,8.9513561 C60.9714659,9.04552683 61.0399537,9.14364878 61.090661,9.24572195 L64.2516366,18.7279902 L67.3487341,9.4248439 C67.4080024,9.24572195 67.5021732,9.08833171 67.6299293,8.9513561" id="Fill-19" fill="#FFFFFF"></path>
                <path d="M54.9723951,19.5303512 C53.9622,20.5405463 52.7406146,21.0456439 51.307639,21.0456439 C49.8746634,21.0456439 48.6524195,20.5405463 47.6428829,19.5303512 C46.6326878,18.5201561 46.1275902,17.2985707 46.1275902,15.8655951 C46.1275902,14.4326195 46.6326878,13.2103756 47.6428829,12.200839 C48.6524195,11.1906439 49.8746634,10.6855463 51.307639,10.6855463 C52.7406146,10.6855463 53.9622,11.1906439 54.9723951,12.200839 C55.9825902,13.2103756 56.4876878,14.4326195 56.4876878,15.8655951 C56.4876878,17.2985707 55.9825902,18.5201561 54.9723951,19.5303512 M51.307639,8.61313171 C49.3050293,8.61313171 47.5954683,9.32171707 46.1789561,10.7369122 C44.7631024,12.1527659 44.0558341,13.8629854 44.0558341,15.8655951 C44.0558341,17.8682049 44.7631024,19.5777659 46.1789561,20.9936195 C47.5954683,22.4094732 49.3050293,23.1174 51.307639,23.1174 C53.3109073,23.1174 55.0191512,22.4094732 56.4356634,20.9936195 C57.8515171,19.5777659 58.5594439,17.8682049 58.5594439,15.8655951 C58.5594439,13.8629854 57.8515171,12.1527659 56.4356634,10.7369122 C55.0191512,9.32171707 53.3109073,8.61313171 51.307639,8.61313171" id="Fill-21" fill="#FFFFFF"></path>
                <path d="M84.9293561,8.56196341 C82.9247707,8.56196341 81.2138927,9.27054878 79.7973805,10.6877195 C78.3808683,12.1042317 77.6722829,13.8151098 77.6722829,15.8190366 C77.6722829,15.8190366 77.6722829,17.0505 78.7127707,17.0505 C79.7532585,17.0505 79.7460146,15.8190366 79.7460146,15.8190366 C79.7460146,14.3847439 80.2511122,13.1625 81.2619659,12.1516463 C82.2728195,11.1407927 83.4950634,10.6350366 84.9293561,10.6350366 C86.3636488,10.6350366 87.5858927,11.1407927 88.5967463,12.1516463 C89.6076,13.1625 90.1126976,14.3847439 90.1126976,15.8190366 C90.1126976,15.8190366 90.1489171,17.0505 91.1571366,17.0505 C92.1653561,17.0505 92.1864293,15.8190366 92.1864293,15.8190366 C92.1864293,13.8151098 91.4771854,12.1042317 90.0606732,10.6877195 C88.644161,9.27054878 86.9332829,8.56196341 84.9293561,8.56196341" id="Fill-23" fill="#FFFFFF"></path>
            </g>
        </g>
    </g>
</svg>