<svg xmlns="http://www.w3.org/2000/svg" width="50" height="50" viewBox="0 0 50 50">
  <path d="M37.7144015,35.4536463 C33.0113517,34.7313353 29.4081633,30.642405 29.4081633,25.7066357 C29.4081633,20.6714429 33.1579751,16.5175493 37.9999271,15.9200943 C34.7126758,10.0859057 28.5026684,6.15738369 21.3972804,6.11694941 C17.3493708,6.10947771 13.4045826,7.40165716 10.1363097,9.80566329 C10.0206781,9.90807568 9.86668531,9.95512901 9.71400743,9.93470007 C9.56132955,9.91427112 9.42489673,9.82835763 9.33986069,9.69909506 C9.24029451,9.57196156 9.19545124,9.40998993 9.21534397,9.249347 C9.23523671,9.08870406 9.31820871,8.94276879 9.44573306,8.84412724 C16.4531002,3.78360945 25.8671169,3.71349063 32.9481163,8.66907345 C35.6590627,10.5663084 37.8030863,13.0427323 39.2894089,15.8466993 C44.6601179,15.8928282 49,20.2897417 49,25.7066357 C49,31.1521878 44.6140761,35.5669384 39.2040816,35.5669384 C39.1590775,35.5669384 39.1141442,35.5666329 39.0692837,35.5660239 C35.7778741,41.4490076 29.7346958,45.4334706 22.8313698,45.9504575 C17.1883314,46.3453956 11.6354466,44.3659082 7.49712702,40.4841202 C3.35880742,36.6023321 1.00604896,31.1662416 1.00000504,25.4724037 C0.997467194,21.8635015 1.95277315,18.3194345 3.76712391,15.2067348 C3.93458432,14.9346118 4.28353713,14.8406985 4.56357291,14.9923874 C4.83391908,15.1609484 4.92721915,15.5121947 4.77652075,15.7940711 C1.20236939,21.9744383 1.32123968,29.6386094 5.08531587,35.7036606 C8.84939207,41.7687119 15.6399574,45.2377059 22.7254974,44.7152348 C29.1387123,44.2308173 34.6012199,40.619919 37.7144015,35.4536463 Z M20.7596399,26.646287 L20.7596399,14.0841354 C20.7622566,13.760187 21.022511,13.498222 21.3443442,13.4955882 C21.6661773,13.498222 21.9264318,13.760187 21.9290484,14.0841354 L21.9290484,26.4908569 L28.3547797,32.9588217 C28.5135882,33.1186741 28.4606521,33.4432228 28.2489073,33.7072213 C28.0607345,33.9217791 27.7455865,33.9669495 27.5053945,33.8137895 L20.8655123,27.1302663 C20.7655745,27.0230809 20.7193969,26.8760156 20.7399841,26.730487 C20.7440638,26.701648 20.750678,26.6734876 20.7596399,26.646287 Z M38.344029,18.7925304 L38.3440211,18.7925198 C38.0774333,18.8258023 37.8790414,19.0546266 37.8811078,19.3250407 L37.8811078,24.6419955 L36.3601071,23.4271822 C36.2485054,23.3356552 36.1059175,23.293012 35.9633243,23.3106933 C35.7463265,23.3314882 35.5644677,23.4854187 35.5055693,23.6975963 C35.4466735,23.9097526 35.5241678,24.1354643 35.6987946,24.2675534 L37.5091292,25.7153446 L35.6987946,27.1548018 C35.5872007,27.2421885 35.5148699,27.3711491 35.4983372,27.513641 C35.4818046,27.6550999 35.5221019,27.7975891 35.6099311,27.908878 C35.6977788,28.021208 35.8269316,28.0929723 35.9674588,28.1085733 C36.107994,28.1252146 36.2495529,28.0836114 36.3601151,27.995205 L37.8811157,26.7803917 L37.8811157,32.1056006 C37.8811157,32.3105146 37.997873,32.4966759 38.1807661,32.5850824 C38.3646881,32.6745299 38.581686,32.649568 38.7408118,32.5216378 L42.7086396,29.3265125 C42.8378003,29.2256264 42.9121971,29.0706522 42.9121971,28.9063269 C42.9121971,28.7420016 42.8378003,28.58703 42.7086396,28.4861413 L39.2285901,25.7154351 L42.7086396,22.9362086 C42.8347001,22.8353225 42.907031,22.6813894 42.907031,22.5201767 C42.907031,22.3579229 42.8347001,22.2050335 42.7086396,22.1041447 L38.7408118,18.9090194 C38.62921,18.8174924 38.4866221,18.7748491 38.344029,18.7925304 Z M38.9392032,20.431683 L38.9392032,24.575228 L41.5265443,22.5117096 L38.9392032,20.431683 Z M38.9392032,26.8469621 L38.9392032,30.9990275 L41.5265443,28.9105338 L38.9392032,26.8469621 Z"/>
</svg>
