<svg xmlns="http://www.w3.org/2000/svg" width="50" height="50" viewBox="0 0 50 50">
  <path d="M30.747048,5.9946762 C30.7110254,5.99341631 30.6749151,5.99284693 30.6387371,5.99297596 L11.9765163,5.96507194 C10.3530587,5.96507194 9.03730148,7.23673549 9.03730148,8.80263582 L9.03730148,40.5968447 C9.03730148,42.1627451 10.3530587,43.4344086 11.9765163,43.4344086 L38.0159457,43.4344086 C38.7958247,43.4344086 39.5412733,43.135043 40.0930424,42.6028557 C40.6448116,42.0706684 40.9551605,41.3490743 40.9551605,40.5968447 L40.9551605,15.6417412 C40.9525079,15.0046256 40.6898903,14.3982437 40.2230223,13.9504693 L32.5566568,6.7452055 L32.5540042,6.7452055 C32.4458697,6.64253457 32.3296049,6.54943755 32.206682,6.46650154 C32.226102,6.53877589 32.2364412,6.61461431 32.2364412,6.69279219 L32.2364412,11.0684262 C32.1862627,12.0821025 32.981975,12.9493608 34.0237525,13.0144156 L38.4824577,13.0144156 C38.9890144,13.0144156 39.4,13.4143151 39.4,13.9072078 C39.4,14.4001005 38.9890144,14.8 38.4824577,14.8 L34.0237525,14.8 C31.9664391,14.7372248 30.3464264,13.0702449 30.4013566,11.0684262 L30.4013566,6.69279219 C30.4013566,6.41026707 30.5363863,6.15829543 30.747048,5.9946762 Z M38.0159457,45.3994806 L11.9765163,45.3994806 C9.23091303,45.3943635 7.00264849,43.2475958 7,40.5968447 L7,8.80263582 C7.00265257,6.15181927 9.23098094,4.00510919 11.9765163,4 L30.6381979,4 C31.8849585,4 33.0840462,4.47079849 33.9727171,5.31004796 L41.641799,12.548718 C42.5065656,13.3623887 42.9973515,14.4754055 43,15.6421997 L43,40.5999234 L43,40.5973642 C42.9946942,43.2507353 40.7637221,45.4 38.0155382,45.4 L38.0159457,45.3994806 Z M25.8052632,11.2 L15.1947368,11.2 C14.6455625,11.2 14.2,10.796872 14.2,10.3 C14.2,9.803128 14.6455625,9.4 15.1947368,9.4 L25.8052632,9.4 C26.3544375,9.4 26.8,9.803128 26.8,10.3 C26.8,10.796872 26.3544375,11.2 25.8052632,11.2 Z M25.8052632,14.8 L15.1947368,14.8 C14.6455625,14.8 14.2,14.396872 14.2,13.9 C14.2,13.403128 14.6455625,13 15.1947368,13 L25.8052632,13 C26.3544375,13 26.8,13.403128 26.8,13.9 C26.8,14.396872 26.3544375,14.8 25.8052632,14.8 Z M33.1,22 L20.5,22 C20.003128,22 19.6,21.596872 19.6,21.1 C19.6,20.603128 20.003128,20.2 20.5,20.2 L33.1,20.2 C33.596872,20.2 34,20.603128 34,21.1 C34,21.596872 33.596872,22 33.1,22 Z M17.0285714,22 L14.9714286,22 C14.5455383,22 14.2,21.596872 14.2,21.1 C14.2,20.603128 14.5455383,20.2 14.9714286,20.2 L17.0285714,20.2 C17.4544617,20.2 17.8,20.603128 17.8,21.1 C17.8,21.596872 17.4544617,22 17.0285714,22 Z M33.1,29.2 L20.5,29.2 C20.003128,29.2 19.6,28.796872 19.6,28.3 C19.6,27.803128 20.003128,27.4 20.5,27.4 L33.1,27.4 C33.596872,27.4 34,27.803128 34,28.3 C34,28.796872 33.596872,29.2 33.1,29.2 Z M17.0285714,29.2 L14.9714286,29.2 C14.5455383,29.2 14.2,28.796872 14.2,28.3 C14.2,27.803128 14.5455383,27.4 14.9714286,27.4 L17.0285714,27.4 C17.4544617,27.4 17.8,27.803128 17.8,28.3 C17.8,28.796872 17.4544617,29.2 17.0285714,29.2 Z M33.1,34.6 L20.5,34.6 C20.003128,34.6 19.6,34.196872 19.6,33.7 C19.6,33.203128 20.003128,32.8 20.5,32.8 L33.1,32.8 C33.596872,32.8 34,33.203128 34,33.7 C34,34.196872 33.596872,34.6 33.1,34.6 Z M17.0285714,34.6 L14.9714286,34.6 C14.5455383,34.6 14.2,34.196872 14.2,33.7 C14.2,33.203128 14.5455383,32.8 14.9714286,32.8 L17.0285714,32.8 C17.4544617,32.8 17.8,33.203128 17.8,33.7 C17.8,34.196872 17.4544617,34.6 17.0285714,34.6 Z M33.1,38.2 L20.5,38.2 C20.003128,38.2 19.6,37.796872 19.6,37.3 C19.6,36.803128 20.003128,36.4 20.5,36.4 L33.1,36.4 C33.596872,36.4 34,36.803128 34,37.3 C34,37.796872 33.596872,38.2 33.1,38.2 Z M17.0285714,38.2 L14.9714286,38.2 C14.5455383,38.2 14.2,37.796872 14.2,37.3 C14.2,36.803128 14.5455383,36.4 14.9714286,36.4 L17.0285714,36.4 C17.4544617,36.4 17.8,36.803128 17.8,37.3 C17.8,37.796872 17.4544617,38.2 17.0285714,38.2 Z"/>
</svg>
