<svg xmlns="http://www.w3.org/2000/svg" width="50" height="50" viewBox="0 0 50 50">
  <path d="M46.6976431,3.30268013 C46.4187249,2.99261938 45.9652552,2.91076302 45.5955336,3.10373704 L3.5991756,19.1019304 C3.24724776,19.2111684 3.00699734,19.536255 3.00586745,19.904745 C2.96239064,20.280364 3.16365348,20.6417868 3.50586601,20.8026297 L19.3051163,30.7004886 L29.1959329,46.4891755 C29.3885146,46.8000141 29.7281561,46.9891478 30.0938176,46.9891741 C30.460169,46.9748709 30.7792956,46.735 30.8948717,46.3870631 L46.893065,4.39070517 C47.0900477,4.02399807 47.0091563,3.56998566 46.6976431,3.29387734 L46.6976431,3.30268013 Z M6.2048019,20.2040399 L42.0022341,6.60724808 L19.9072272,28.6969732 L6.2048019,20.2040399 Z M29.7962833,43.7955213 L21.2980683,30.1952083 L43.3930751,7.99808915 L29.7962833,43.7955213 Z"/>
</svg>
