<svg xmlns="http://www.w3.org/2000/svg" width="50" height="50" viewBox="0 0 50 50">
  <path d="M43.2603621,41 L6.73963792,41 C3.57452563,40.9885418 1.01156368,38.4489668 1,35.3127361 L1,14.6872639 C1.01156368,11.5510332 3.57452563,9.01145816 6.73963792,9 L43.2603621,9 C46.4254744,9.01145816 48.9884363,11.5510332 49,14.6872639 L49,35.3127361 C48.9884363,38.4489668 46.4254744,40.9885418 43.2603621,41 Z M6.73963792,10.1252157 C4.22437388,10.132187 2.17740715,12.1326087 2.1355778,14.6245861 L2.1355778,35.2500583 C2.1554686,37.7512851 4.21534368,39.7643216 6.73963792,39.7494287 L43.2603621,39.7494287 C45.7630423,39.7371824 47.7888081,37.7299016 47.8011672,35.2500583 L47.8011672,14.6245861 C47.7888081,12.1447428 45.7630423,10.1374621 43.2603621,10.1252157 L6.73963792,10.1252157 Z M26.8986815,34.5940267 L26.8986815,34.5925067 C26.7783314,34.7196028 26.6058024,34.7863054 26.4295023,34.7738993 C26.2532022,34.7614932 26.0921256,34.671315 25.9914667,34.5286667 C25.8654006,34.4136343 25.7937787,34.2522813 25.7937787,34.0833067 C25.7937787,33.914332 25.8654006,33.752979 25.9914667,33.6379467 C28.139049,31.5395517 29.3464202,28.6874243 29.3464202,25.7126667 C29.3464202,22.737909 28.139049,19.8857816 25.9914667,17.7873867 C25.8141035,17.6315306 25.739038,17.3921712 25.7963921,17.1653578 C25.8537462,16.9385444 26.0341199,16.7614502 26.2651335,16.7051389 C26.4961472,16.6488276 26.7399392,16.7225283 26.8986815,16.8966667 C29.2957487,19.2399377 30.643285,22.4242313 30.643285,25.7453467 C30.643285,29.066462 29.2957487,32.2507557 26.8986815,34.5940267 Z M23.7218815,20.0172267 L23.7218815,20.0157067 C26.899151,23.148826 26.899151,28.2141874 23.7218815,31.3473067 C23.6047189,31.4710806 23.4403779,31.5414003 23.2682741,31.5414003 C23.0961703,31.5414003 22.9318293,31.4710806 22.8146667,31.3473067 C22.6886006,31.2322743 22.6169787,31.0709213 22.6169787,30.9019467 C22.6169787,30.732972 22.6886006,30.571619 22.8146667,30.4565867 C24.1205311,29.1988534 24.8562827,27.478298 24.8562827,25.6822667 C24.8562827,23.8862354 24.1205311,22.16568 22.8146667,20.9079467 C22.6373035,20.7520906 22.562238,20.5127312 22.6195921,20.2859178 C22.6769462,20.0591044 22.8573199,19.8820102 23.0883335,19.8256989 C23.3193472,19.7693876 23.5631392,19.8430883 23.7218815,20.0172267 Z M20.4800593,28.2921067 C20.3628967,28.4158806 20.1985557,28.4862003 20.0264519,28.4862003 C19.8543481,28.4862003 19.690007,28.4158806 19.5728444,28.2921067 C19.4467784,28.1770743 19.3751565,28.0157213 19.3751565,27.8467467 C19.3751565,27.677772 19.4467784,27.516419 19.5728444,27.4013867 C20.4807995,26.4778991 20.4807995,25.0143143 19.5728444,24.0908267 C19.3954813,23.9349706 19.3204158,23.6956112 19.3777699,23.4687978 C19.4351239,23.2419844 19.6154976,23.0648902 19.8465113,23.0085789 C20.077525,22.9522676 20.3213169,23.0259683 20.4800593,23.2001067 C21.1377924,23.8916424 21.507855,24.7999778 21.5173185,25.7461067 C21.5378728,26.6978241 21.163455,27.6168496 20.4800593,28.2921067 Z"/>
</svg>
