<svg xmlns="http://www.w3.org/2000/svg" width="50" height="50" viewBox="0 0 50 50">
  <path fill-rule="evenodd" d="M19.7058433,11 L11.1998383,11 C9.43575353,11 8,12.4397003 8,14.2100296 L8,35.5069922 C8,37.2773214 9.43575353,38.7170218 11.1998383,38.7170218 L19.7058433,38.7170218 C21.4713193,38.7170218 22.9070728,37.2773214 22.9070728,35.5069922 L22.9070728,14.2100296 C22.9070728,12.4397003 21.4713193,11 19.7058433,11 M15.4493627,35.7057431 C14.2038698,35.7057431 13.1939404,34.6930374 13.1939404,33.4441208 C13.1939404,32.1952041 14.2038698,31.1818459 15.4493627,31.1818459 C16.6955063,31.1818459 17.704785,32.1952041 17.704785,33.4441208 C17.704785,34.6930374 16.6955063,35.7057431 15.4493627,35.7057431 Z M37.3512305,17 C37.8641213,17 38.279145,17.4120266 38.279145,17.9212446 L38.279145,24.3699568 L44.7745465,24.3699568 C45.2874373,24.3699568 45.702461,24.7819973 45.702461,25.2912014 C45.702461,25.8004055 45.2874512,26.212446 44.7745465,26.212446 L38.279145,26.212446 L38.279145,32.6611582 C38.279145,33.1703623 37.8641213,33.5824028 37.3512305,33.5824028 C36.8383397,33.5824028 36.423316,33.1703762 36.423316,32.6611582 L36.423316,26.212446 L29.9279145,26.212446 C29.4150237,26.212446 29,25.8004055 29,25.2912014 C29,24.7819973 29.4150098,24.3699568 29.9279145,24.3699568 L36.423316,24.3699568 L36.423316,17.9212446 C36.423316,17.4120405 36.8383258,17 37.3512305,17 Z"/>
</svg>
