<svg xmlns="http://www.w3.org/2000/svg" width="50" height="50" viewBox="0 0 50 50">
  <path fill-rule="evenodd" d="M44.8429918,40.2446292 C44.5036261,42.7671518 42.8067972,44.950104 40.4312368,45.9203049 C39.267697,46.4054054 38.0071956,46.5509356 36.7466941,46.4054054 C35.5346735,46.2598753 34.3226529,45.8717949 33.0621514,45.1441441 C31.3168417,44.1739432 29.571532,42.6701317 27.5353374,40.4386694 C30.7350718,36.5093555 32.6743048,32.9196119 33.4015172,29.7179487 C33.740883,28.2141372 33.7893638,26.8558559 33.6439213,25.5945946 C33.449998,24.3818434 33.0136706,23.2661123 32.3349391,22.2959113 C30.8320335,20.1129591 28.3110306,18.8516979 25.4991428,18.8516979 C22.6872549,18.8516979 20.166252,20.1614692 18.6633465,22.2959113 C17.9846149,23.2661123 17.5482875,24.3818434 17.3543642,25.5945946 C17.1604409,26.8558559 17.2089217,28.2626473 17.5967683,29.7179487 C18.3239807,32.9196119 20.3116945,36.5578656 23.4629481,40.4871795 C21.4752343,42.7186417 19.6814438,44.2224532 17.9361341,45.1926542 C16.6756327,45.9203049 15.463612,46.3083853 14.2515914,46.4539155 C12.9426091,46.5994456 11.6821077,46.4054054 10.5670487,45.968815 C8.19148832,44.998614 6.49465945,42.8156618 6.15529368,40.2931393 C6.0098512,39.0803881 6.10681285,37.8676369 6.5916211,36.5093555 C6.73706358,36.024255 6.9794677,35.5391545 7.22187182,34.957034 C7.5612376,34.1808732 7.9490842,33.3562024 8.33693079,32.5315315 L8.38541162,32.4345114 C11.7305885,25.2065142 15.3181696,17.8329868 19.0511931,10.6534997 L19.1966355,10.3624394 C19.5844821,9.63478863 19.9723287,8.85862786 20.3601753,8.13097713 C20.7480219,7.35481635 21.1843494,6.62716563 21.7176384,5.996535 C22.7357358,4.83229383 24.0931988,4.2016632 25.5961044,4.2016632 C27.09901,4.2016632 28.4564731,4.83229383 29.4745704,5.996535 C30.0078595,6.62716563 30.4441869,7.35481635 30.8320335,8.13097713 C31.2198801,8.85862786 31.6077267,9.63478863 31.9955733,10.3624394 L32.1410158,10.6534997 C35.8255584,17.8814969 39.4131395,25.2550243 42.7583164,32.4830215 L42.7583164,32.5315315 C43.146163,33.3076923 43.4855288,34.1808732 43.8733753,34.957034 C44.1157795,35.5391545 44.3581836,36.024255 44.5036261,36.5093555 C44.8914727,37.7706168 45.0369151,38.983368 44.8429918,40.2446292 M25.4991428,37.964657 C22.8811782,34.6659737 21.1843494,31.5613306 20.6025795,28.9417879 C20.3601753,27.8260568 20.3116945,26.8558559 20.457137,25.982675 C20.5540986,25.2065142 20.8449836,24.5273735 21.2328302,23.9452529 C22.1539659,22.6354816 23.7053522,21.8108108 25.4991428,21.8108108 C27.2929333,21.8108108 28.8928005,22.5869716 29.7654553,23.9452529 C30.1533019,24.5273735 30.4441869,25.2065142 30.5411485,25.982675 C30.686591,26.8558559 30.6381102,27.8745669 30.3957061,28.9417879 C29.8139362,31.5128205 28.1171073,34.6174636 25.4991428,37.964657 M47.3639947,35.4421344 C47.1215906,34.8600139 46.8791865,34.2293832 46.6367824,33.6957727 C46.2489358,32.8225918 45.8610892,31.997921 45.5217234,31.2217602 L45.4732426,31.1732502 C42.1280657,23.8967429 38.5404846,16.5232155 34.7589803,9.24670825 L34.6135378,8.95564796 C34.2256912,8.22799723 33.8378446,7.45183645 33.449998,6.67567568 C32.9651898,5.8024948 32.4803815,4.88080388 31.7046883,4.00762301 C30.1533019,2.06722107 27.923184,1 25.5476236,1 C23.1235823,1 20.9419452,2.06722107 19.342078,3.91060291 C18.6148656,4.78378378 18.0815766,5.70547471 17.5967683,6.57865558 C17.2089217,7.35481635 16.8210751,8.13097713 16.4332285,8.85862786 L16.2877861,9.14968815 C12.5547625,16.4261954 8.91870069,23.7997228 5.57352378,31.0762301 L5.52504296,31.1732502 C5.18567718,31.9494109 4.79783059,32.7740818 4.40998399,33.6472626 C4.16757986,34.1808732 3.92517574,34.7629938 3.68277162,35.3936244 C3.05252089,37.1884962 2.85859759,38.8863479 3.10100172,40.6327096 C3.63429079,44.2709633 6.05833203,47.3270963 9.40350894,48.6853777 C10.6640104,49.2189882 11.9729927,49.4615385 13.3304557,49.4615385 C13.7183023,49.4615385 14.2031106,49.4130284 14.5909572,49.3645184 C16.1908244,49.1704782 17.8391724,48.6368676 19.4390397,47.7151767 C21.4267535,46.5994456 23.3175056,44.998614 25.4506619,42.6701317 C27.5838182,44.998614 29.5230512,46.5994456 31.4622842,47.7151767 C33.0621514,48.6368676 34.7104995,49.1704782 36.3103667,49.3645184 C36.6982133,49.4130284 37.1830215,49.4615385 37.5708681,49.4615385 C38.9283312,49.4615385 40.2857943,49.2189882 41.4978149,48.6853777 C44.8914727,47.3270963 47.2670331,44.2224532 47.8003222,40.6327096 C48.1881688,38.9348579 47.9942455,37.2370062 47.3639947,35.4421344"/>
</svg>
