<?xml version="1.0" encoding="utf-8"?>
<!-- Svg Vector Icons : http://www.onlinewebfonts.com/icon -->
<!DOCTYPE svg PUBLIC "-//W3C//DTD SVG 1.1//EN" "http://www.w3.org/Graphics/SVG/1.1/DTD/svg11.dtd">
<svg version="1.1" xmlns="http://www.w3.org/2000/svg" xmlns:xlink="http://www.w3.org/1999/xlink" x="0px" y="0px" viewBox="0 0 1000 1000" enable-background="new 0 0 1000 1000" xml:space="preserve">
<metadata> Svg Vector Icons : http://www.onlinewebfonts.com/icon </metadata>
<g><path d="M920,80H80c-38.7,0-70,31.3-70,70v700c0,38.7,31.3,70,70,70h840c38.7,0,70-31.3,70-70V150C990,111.3,958.7,80,920,80z M815,150c19.3,0,35,15.7,35,35s-15.7,35-35,35s-35-15.7-35-35S795.7,150,815,150z M675,150c19.3,0,35,15.7,35,35s-15.7,35-35,35s-35-15.7-35-35S655.7,150,675,150z M535,150c19.3,0,35,15.7,35,35s-15.7,35-35,35s-35-15.7-35-35S515.7,150,535,150z M920,850H80V290h840V850z"/><path d="M269.5,780.8l210.4-210.4l-0.1-0.1l0.1-0.1L269.5,359.8L220,409.3l161,161l-161,161L269.5,780.8z"/><path d="M430,710h350v70H430V710z"/></g>
</svg>