<svg xmlns="http://www.w3.org/2000/svg" width="50" height="50" viewBox="0 0 50 50">
  <path d="M48,25.3307703 C48,25.2181072 48,25.1606729 47.9431621,25.0480098 C47.9431621,24.9331411 47.9431621,24.8779123 47.8863241,24.820478 C46.7670263,21.5400028 35.5169644,11.418192 33.4468231,10.174611 C32.9440122,9.83441607 32.2160433,10.0045135 31.9362189,10.5700347 C31.5995565,11.0781215 31.7678877,11.8137288 32.3275366,12.0964894 C34.7890962,13.5677492 42.3441324,20.9197505 44.9196366,24.1426556 L4.11929778,24.1426556 C3.50278856,24.1426556 3,24.6507425 3,25.2736979 C3,25.8966761 3.50281095,26.4047403 4.11929778,26.4047403 L44.9218751,26.4047403 C42.3465948,29.6852154 34.736825,37.0371036 32.3297752,38.5080241 C31.8269642,38.848219 31.6017839,39.5264146 31.9384575,40.0344788 C32.161444,40.3746737 32.4981063,40.6 32.8894129,40.6 C33.1123994,40.6 33.2807305,40.5425657 33.4490617,40.4299025 C35.5193149,39.1862084 46.7692649,29.0069406 47.8885627,25.7840355 C47.9432163,25.7266012 47.9432163,25.6713724 47.9432163,25.6139381 C48,25.5008678 48,25.4434335 48,25.3307703 Z"/>
</svg>
