<svg xmlns="http://www.w3.org/2000/svg" width="50" height="50" viewBox="0 0 50 50">
  <path fill-rule="evenodd" d="M36.2988113,29.2663414 L29.9043589,29.2663414 L29.9043589,21.9240764 L20.635983,21.9240764 C20.5952259,24.3714981 20.5720936,26.8178756 20.5434535,29.2663414 L14.1644227,29.2663414 L14.1644227,16.2701565 L25.4640424,7.09650177 L36.2988113,16.1793179 L36.2988113,29.2663414 Z M27.9348015,29.2778267 L22.5019955,29.2778267 C22.5262294,27.4391281 22.5493618,25.6004295 22.5713926,23.7617309 L27.9348015,23.7617309 L27.9348015,29.2778267 Z M26.1414908,5.18889112 C25.727311,4.939346 25.2360232,4.939346 24.8350618,5.17531754 L9.58641338,17.5492058 C9.19646745,17.8645306 9.14910113,18.4826507 9.48617304,18.8460051 C9.82434649,19.2114478 10.4863733,19.2542568 10.8785224,18.938932 L12.1970683,17.867663 L12.1970683,29.2778267 L12.1970683,31.1029517 L24.0078036,31.1363636 L26.2626605,31.1363636 L38.262861,31.1363636 L38.262861,29.2778267 L38.262861,17.8258981 L39.5736962,18.9253584 C39.9559313,19.2469479 40.6201613,19.2166684 40.9660455,18.8606228 C41.3108282,18.5045773 41.2788835,17.8864571 40.8966483,17.5638235 L26.1414908,5.18889112 Z M22.9458304,40.3121212 C22.9458304,39.103833 23.9766972,38.1050505 25.2334038,38.1050505 C26.4868687,38.1050505 27.5209772,39.1007215 27.5209772,40.3121212 C27.5209772,41.5245581 26.4868687,42.5191919 25.2334038,42.5191919 C23.9799389,42.5191919 22.9458304,41.5245581 22.9458304,40.3121212 Z M29.5837914,39.2479978 C29.215316,37.6829275 27.9607705,36.5441288 26.3388302,36.1188943 L26.3388302,30.900956 L24.1268969,30.900956 L24.1268969,36.1157828 C22.5049565,36.4715278 21.3238901,37.679816 20.8830162,39.2448864 L3.10650693,39.2479978 C2.51651398,39.2479978 2,39.7458333 2,40.3152327 C2,40.884632 2.51651398,41.3824675 3.10650693,41.3824675 L20.9554146,41.3824675 C21.470848,43.2337933 23.2419074,44.6567731 25.3047216,44.6567731 C27.3707775,44.6567731 29.1396758,43.2337933 29.6551092,41.3824675 L47.3592201,41.3824675 C47.9492131,41.3824675 48.465727,40.884632 48.465727,40.3152327 C48.465727,39.7458333 48.0216115,39.2479978 47.3592201,39.2479978 L29.5837914,39.2479978 Z"/>
</svg>
