<svg xmlns="http://www.w3.org/2000/svg" width="50" height="50" viewBox="0 0 50 50">
  <path d="M34.0996784,5.65701032 L28.8422576,5.65701032 L28.8422576,4 L20.6343787,4 L20.6343787,5.65701032 L15.2335109,5.65701032 C14.0098903,5.65701032 13,6.71064947 13,7.99394338 L13,43.3297336 C13,44.6100137 14.0070098,45.6666667 15.2335109,45.6666667 L34.0998224,45.6666667 C35.3234431,45.6666667 36.3333333,44.6130275 36.3333333,43.3297336 L36.3333333,7.99394338 C36.3305206,6.71072482 35.3235151,5.65701032 34.0998224,5.65701032 L34.0996784,5.65701032 Z M34.1700028,43.406888 C34.1700028,43.4834094 34.1700028,43.4834094 34.0968678,43.4834094 L15.2305563,43.4834094 C15.1574213,43.4834094 15.1574213,43.4834094 15.1574213,43.406888 L15.1574213,7.99424477 C15.1574213,7.91772332 15.1574213,7.91772332 15.2305563,7.91772332 L34.0968678,7.91772332 C34.1700028,7.91772332 34.1700028,7.91772332 34.1700028,7.99424477 L34.1700028,43.406888 Z M23,15.6666667 L23,32.3333333 L26.3333333,32.3333333 L26.3333333,15.6666667 L23,15.6666667 Z M23,34 L23,37.3333333 L26.3333333,37.3333333 L26.3333333,34 L23,34 Z"/>
</svg>
