<svg xmlns="http://www.w3.org/2000/svg" width="50" height="50" viewBox="0 0 50 50">
  <path d="M43.95,31.1285543 L45.3,31.1285543 C46.753725,31.1285543 48,29.8733785 48,28.4092711 L48,22.0642771 C48,20.6001698 46.753725,19.344994 45.3,19.344994 L43.95,19.344994 L43.95,15.7192831 C43.95,14.2551758 42.703725,13 41.25,13 L5.25,13 C3.796275,13 3,14.3561065 3,15.8202139 L3,34.6517028 C3,36.1175777 3.796275,37.4736842 5.25,37.4736842 L41.25,37.4736842 C42.703725,37.4736842 43.95,36.2185084 43.95,34.7544011 L43.95,31.1285543 Z M6.6,34.7542651 C6.4681635,34.7542651 6.15,34.4338293 6.15,34.3010513 L6.15,16.6257109 C6.15,16.4929328 6.4681635,16.172497 6.6,16.172497 L40.35,16.172497 C40.4818365,16.172497 40.8,16.4929328 40.8,16.6257109 L40.8,34.3010513 C40.8,34.4338293 40.4818365,34.7542651 40.35,34.7542651 L6.6,34.7542651 Z"/>
</svg>
