<svg xmlns="http://www.w3.org/2000/svg" width="50" height="50" viewBox="0 0 50 50">
  <path d="M25.5,3 C13.0739189,3 3,13.0739189 3,25.5 C3,37.9260811 13.0739189,48 25.5,48 C37.9260811,48 48,37.9260811 48,25.5 C48,13.0739189 37.9260811,3 25.5,3 Z M23.5426216,9.68918919 C23.8704284,9.64880716 24.198223,9.74619932 24.4547838,9.95523649 L33.5764054,17.2525338 C33.8662054,17.482952 34.0324865,17.8321338 34.0324865,18.2027027 C34.0324865,18.5708939 33.8662054,18.9224595 33.5764054,19.1528716 L25.5761351,25.5003041 L33.5764054,31.828277 C33.8733324,32.0586953 34.0443628,32.4126324 34.0443628,32.7879324 C34.0443628,33.1632324 33.8733324,33.5171757 33.5764054,33.7475878 L24.4547838,41.0448851 C24.0889703,41.3370628 23.5901149,41.394073 23.1672973,41.1897851 C22.7468453,40.987875 22.4784324,40.5627041 22.4784324,40.0947041 L22.4784324,27.9325419 L18.9818108,30.7070351 C18.7276399,30.9089453 18.4022108,31.0039622 18.0791351,30.9659554 C17.7560777,30.9303245 17.4591689,30.766423 17.2572162,30.5098743 C17.0553061,30.2557034 16.9626669,29.9302743 17.0006736,29.6071986 C17.0386804,29.2817635 17.2049615,28.9872324 17.4615041,28.7876514 L21.6232743,25.5000973 L17.4615041,22.1935095 C17.0600554,21.8918331 16.8819041,21.3763338 17.0172993,20.8917932 C17.1527007,20.4072041 17.570775,20.0556446 18.0696304,20.0081514 C18.3974372,19.9677693 18.7252318,20.0651615 18.9817926,20.2741986 L22.4784142,23.0486919 L22.4784142,10.9053811 C22.4736636,10.2877865 22.9297459,9.76517838 23.5426034,9.68916486 L23.5426216,9.68918919 Z M24.9108649,13.4328243 L24.9108649,22.8962027 L30.8588919,18.1833649 L24.9108649,13.4328243 Z M24.9108649,28.0845811 L24.9108649,37.5674189 L30.8588919,32.7975405 L24.9108649,28.0845811 Z"/>
</svg>
