<svg xmlns="http://www.w3.org/2000/svg" width="50" height="50" viewBox="0 0 50 50">
  <path d="M22.5768225,3.00512986 C21.8016047,3.06665794 21.2035052,3.72002595 21.2064039,4.50524755 L21.2064039,21.5923381 L15.4693466,16.8341148 C15.1615933,16.5674914 14.7580267,16.441504 14.35446,16.4825247 C13.747657,16.5352629 13.2337761,16.9571695 13.0624552,17.5461082 C12.8882505,18.1350244 13.085682,18.7737295 13.5647339,19.1546094 L21.2061661,25.4832309 L21.2061661,25.5066702 L13.5647339,31.8352917 C12.9288992,32.3656058 12.8417969,33.3149328 13.3673098,33.9565331 C13.8928153,34.5952532 14.8335342,34.6860854 15.4693168,34.1557638 L21.2063742,29.3975405 L21.2063742,46.5078828 C21.2092774,47.0938663 21.5489714,47.6241954 22.0802966,47.8673645 C22.6087082,48.1076158 23.2300419,48.0167912 23.6684153,47.6329711 L36.3037959,36.3820884 C36.6376821,36.0920257 36.8263952,35.6701176 36.8234965,35.2276729 C36.8176894,34.7852581 36.6202601,34.3663053 36.2805691,34.0850332 L25.9210435,25.5058601 L36.2805691,16.9034352 C36.6115491,16.6221632 36.8031684,16.2090458 36.8089807,15.7724965 C36.8118838,15.3359398 36.6289711,14.9169794 36.3037959,14.6298569 L23.6684153,3.37897419 C23.369373,3.10941804 22.9745173,2.97464747 22.5767184,3.00394477 L22.5768225,3.00512986 Z M24.1794347,7.83363368 L33.0286606,15.7092516 L24.1794347,23.0457271 L24.1794347,7.83363368 Z M24.1794347,27.9442114 L33.0524449,35.3041639 L24.1794347,43.1797817 L24.1794347,27.9442114 Z"/>
</svg>
