<svg xmlns="http://www.w3.org/2000/svg" width="50" height="50" viewBox="0 0 50 50">
  <path d="M25.1248209,34.1043806 C32.3204896,34.1043806 38.1735442,28.226165 38.1735442,20.9995638 C38.1735442,13.7729626 32.3204896,7.89474706 25.1248209,7.89474706 C17.9291523,7.89474706 12.0760977,13.7729626 12.0760977,20.9995638 C12.0760977,28.226165 17.9291523,34.1043806 25.1248209,34.1043806 Z M14.3850338,22.1293381 L17.3358035,22.1293381 C17.4961973,25.3509459 18.3267056,28.2041344 19.6098666,30.3072092 C16.7557853,28.5971264 14.7454078,25.6093818 14.3850338,22.1293381 Z M25.1248209,10.2446776 C27.9481352,10.2446776 30.3606218,14.5475359 30.663849,19.8720491 L19.5860179,19.8720491 C19.8892225,14.5475359 22.3016755,10.2446776 25.1250459,10.2446776 L25.1248209,10.2446776 Z M30.663849,22.1293381 C30.3606443,27.4538513 27.9481914,31.7567096 25.1248209,31.7567096 C22.3014505,31.7567096 19.88902,27.4516482 19.5857929,22.1293381 L30.663849,22.1293381 Z M30.6396808,30.3089039 C31.9227856,28.2059985 32.7533276,25.352923 32.9137438,22.1310328 L35.8645136,22.1310328 C35.5041846,25.608591 33.4938183,28.5961661 30.6396808,30.3089039 Z M35.8645136,19.8697895 L32.9137438,19.8697895 C32.7533501,16.6481817 31.9228418,13.7949932 30.6396808,11.6919184 C33.4937621,13.4042043 35.5041396,16.3897458 35.8645136,19.8697895 Z M19.6102783,11.6919184 C18.3271735,13.7948238 17.4966315,16.6478992 17.3362153,19.8697895 L14.3854455,19.8697895 C14.7457746,16.3899718 16.7561408,13.4046562 19.6102783,11.6919184 Z M46.8725985,3 L4.12493842,3 C3.50312871,3 3,3.50530849 3,4.12977428 L3,36.9508469 C3,37.5753296 3.50314558,38.0806211 4.12493842,38.0806211 L19.2193622,38.0806211 L19.2237562,45.1394508 C19.2237562,45.5498752 19.4456672,45.927186 19.8015808,46.1258003 C19.9729596,46.2206844 20.1597162,46.2692308 20.3486721,46.2692308 C20.5552052,46.2692308 20.759539,46.2118608 20.9419084,46.099324 L33.8173911,38.0807511 L46.872864,38.0807511 C47.4946737,38.0807511 47.9978024,37.5754426 47.9978024,36.9509768 L48,4.1299042 C47.9978024,3.50542147 47.4968544,3.00012992 46.8728679,3.00012992 L46.8725985,3 Z M45.7476601,35.818813 L33.4965182,35.818813 C33.2877915,35.818813 33.0812584,35.876183 32.9032819,35.9887198 L21.4739075,43.1074275 L21.4695135,36.9490279 C21.4695135,36.3245452 20.9641687,35.8192536 20.3445751,35.8192536 L5.25015133,35.8192536 L5.25015133,5.25998917 L45.7479346,5.25998917 L45.7476601,35.818813 Z"/>
</svg>
