<svg xmlns="http://www.w3.org/2000/svg" width="50" height="50" viewBox="0 0 50 50">
  <path d="M28.1570275,12 L9.4660045,12 C5.89756857,12 3,15.2588478 3,19.2723861 C3,23.285845 5.89749802,26.5447721 9.4660045,26.5447721 L28.1556166,26.5447721 C31.7240526,26.5447721 34.6216211,23.2859244 34.6216211,19.2723861 C34.6229988,15.2589271 31.7254987,12 28.1570275,12 Z M28.1570275,25.2229529 L9.4660045,25.2229529 C6.55058846,25.2229529 4.1752524,22.5513864 4.1752524,19.2723861 C4.1752524,15.9933857 6.55058846,13.3218192 9.4660045,13.3218192 L28.1556166,13.3218192 C31.0710327,13.3218192 33.4463687,15.9933857 33.4463687,19.2723861 C33.4477468,22.5529336 31.0724083,25.2229529 28.1570275,25.2229529 Z M13.9861888,17.3494558 L12.4870011,18.0492243 L12.4870011,16.1874937 C12.4870011,15.88409 12.2224386,15.636193 11.898614,15.636193 C11.5747895,15.636193 11.310227,15.88408 11.310227,16.1874937 L11.310227,18.0492243 L9.81103928,17.3442998 C9.52305062,17.206154 9.1703041,17.3171872 9.02285458,17.5921868 C8.87541565,17.8620234 8.99391814,18.1925361 9.28741712,18.3306918 L11.009825,19.1350355 L9.66496549,20.8147179 C9.47067782,21.0574422 9.52441576,21.4047551 9.78208909,21.5854812 C9.88818925,21.6629476 10.0108263,21.6965148 10.1348391,21.6965148 C10.3112142,21.6965148 10.4875892,21.6190484 10.6047022,21.47574 L11.8985894,19.8618964 L13.1924765,21.47574 C13.3096001,21.6190484 13.4859751,21.6965148 13.6623396,21.6965148 C13.7863524,21.6965148 13.9089895,21.6629476 14.0150896,21.5867735 C14.2741422,21.4047319 14.3265009,21.0574191 14.1322132,20.8160102 L12.7914809,19.1414839 L14.5138888,18.3371401 C14.8018774,18.1989943 14.9189869,17.8684684 14.7784513,17.5986351 C14.6323916,17.3223436 14.2796275,17.2125924 13.9861394,17.3494558 L13.9861888,17.3494558 Z M21.4321348,17.3498212 L19.9329471,18.049739 L19.9329471,16.1876113 C19.9329471,15.8841428 19.6683845,15.636193 19.34456,15.636193 C19.0207355,15.636193 18.7561729,15.8841329 18.7561729,16.1876113 L18.7561729,18.049739 L17.2569852,17.3446641 C16.9689966,17.2064889 16.61625,17.3175458 16.4688005,17.592604 C16.3213616,17.8624981 16.4398641,18.1930813 16.7333631,18.3312665 L18.455771,19.1357818 L17.1109114,20.8158224 C16.9166238,21.0585985 16.9703617,21.4059854 17.228035,21.5867501 C17.3341352,21.664233 17.4567723,21.6965148 17.5807851,21.6965148 C17.7571601,21.6965148 17.9335351,21.6190352 18.0506481,21.4756929 L19.3445353,19.8615051 L20.6384225,21.4756929 C20.7555461,21.6190319 20.9319211,21.6965148 21.1082855,21.6965148 C21.2322983,21.6965148 21.3549354,21.6629404 21.4610356,21.5867501 C21.7200881,21.4046697 21.7724468,21.0572828 21.5781592,20.8158224 L20.2374268,19.1409389 L21.9598347,18.3364236 C22.2478234,18.1982484 22.3649329,17.8676519 22.2243973,17.5977611 C22.0783376,17.3227032 21.7255734,17.2129254 21.4320854,17.3498212 L21.4321348,17.3498212 Z M28.4861888,17.3498212 L26.9870011,18.049739 L26.9870011,16.1876113 C26.9870011,15.8841428 26.7224386,15.636193 26.398614,15.636193 C26.0747895,15.636193 25.810227,15.8841329 25.810227,16.1876113 L25.810227,18.049739 L24.3110393,17.3446641 C24.0175407,17.2064889 23.6703041,17.3175458 23.5228546,17.592604 C23.3754156,17.8624981 23.4939181,18.1930813 23.7874171,18.3312665 L25.509825,19.1357818 L24.1649655,20.8158224 C23.9706778,21.0585985 24.0244158,21.4059854 24.2820891,21.5867501 C24.3881892,21.664233 24.5108263,21.6965148 24.6348391,21.6965148 C24.8112142,21.6965148 24.9875892,21.6190352 25.1047022,21.4756929 L26.3985894,19.8615051 L27.6924765,21.4756929 C27.8096001,21.6190319 27.9859751,21.6965148 28.1623396,21.6965148 C28.2863524,21.6965148 28.4089895,21.6629404 28.5150896,21.5867501 C28.7741422,21.4046697 28.8265009,21.0572828 28.6322132,20.8158224 L27.2914809,19.1409389 L29.0138888,18.3364236 C29.3018774,18.1982484 29.4189869,17.8676519 29.2784513,17.5977611 C29.1323916,17.3227032 28.7796275,17.2129254 28.4861394,17.3498212 L28.4861888,17.3498212 Z M44.4026263,19.2972973 C44.2604537,19.2983504 44.123533,19.355223 44.0235101,19.4573857 L30.6865036,32.8037061 C30.6096236,32.8784832 30.5569673,32.9753802 30.5348518,33.0817409 L29.7681539,36.8901606 C29.7312937,37.0671005 29.7850041,37.251401 29.9124348,37.3799032 C30.0388113,37.5083945 30.2220472,37.5652687 30.4000393,37.5305117 L34.2165439,36.7637588 C34.3218563,36.7437477 34.4176922,36.6942474 34.4945588,36.6205218 L47.839923,23.2742015 C47.9420784,23.173093 48,23.0340702 48,22.8908251 C48,22.7465338 47.9420784,22.6085571 47.839923,22.5074486 L44.7901703,19.4574774 C44.7132902,19.3827003 44.617457,19.3331976 44.5121554,19.3142404 C44.4763494,19.3047615 44.4394892,19.2994953 44.402629,19.297389 L44.4026263,19.2972973 Z M44.4110514,20.6032954 L46.694268,22.8866756 L45.9275701,23.6534284 L43.6443535,21.361636 L44.4110514,20.6032954 Z M42.8861211,22.1283349 L45.1693377,24.4117151 L34.3010888,35.2807427 L32.0178722,32.9973625 L42.8861211,22.1283349 Z M31.4533229,33.958028 L33.3321345,35.8369742 L30.9899557,36.3088138 L31.4533229,33.958028 Z"/>
</svg>
