<svg xmlns="http://www.w3.org/2000/svg" width="50" height="50" viewBox="0 0 50 50">
  <path d="M46.3072313,13.0048627 C45.9052238,13.0368119 45.5297336,13.2205227 45.2624182,13.5160507 L25.4762699,32.8772976 L5.69012149,13.5160507 C5.35545741,13.1765912 4.87997341,13.0048627 4.40040419,13.0527865 C3.79843511,13.1166851 3.28621548,13.514052 3.08623825,14.0751626 C2.88829318,14.6343001 3.03726264,15.257285 3.46988318,15.6726252 L24.3661455,36.1201467 C24.6599992,36.4096887 25.0599536,36.5714286 25.4762594,36.5714286 C25.8925652,36.5714286 26.2925196,36.4096836 26.5863733,36.1201467 L47.4826356,15.6726252 C47.9805518,15.2333205 48.1376812,14.5304267 47.8723979,13.9273782 C47.6071147,13.322336 46.9765752,12.9529515 46.3072157,13.0048371 L46.3072313,13.0048627 Z" transform="rotate(90 25.5 24.786)"/>
</svg>
