<svg xmlns="http://www.w3.org/2000/svg" width="50" height="50" viewBox="0 0 50 50">
  <path d="M16.2223229,12 C8.92002706,12 3,17.8253066 3,25.0107657 C3,32.1962248 8.92002706,38.0215315 16.2223229,38.0215315 C23.5246187,38.0215315 29.4446458,32.1962248 29.4446458,25.0107657 C29.4446458,17.8253066 23.5246187,12 16.2223229,12 Z M15.4982698,15.7226273 C15.6977543,15.6988982 15.8972315,15.7561273 16.0533598,15.8789606 L21.6042604,20.1669587 C21.7806162,20.3023558 21.8818054,20.5075401 21.8818054,20.7252917 C21.8818054,20.9416463 21.7806162,21.1482313 21.6042604,21.2836248 L16.7357505,25.0134685 L21.6042604,28.7318775 C21.7849533,28.8672746 21.8890327,29.0752533 21.8890327,29.295785 C21.8890327,29.5163168 21.7849533,29.724299 21.6042604,29.8596925 L16.0533598,34.1476906 C15.8307465,34.3193785 15.5271714,34.3528785 15.2698687,34.2328359 C15.0140055,34.1141906 14.8506647,33.864354 14.8506647,33.5893504 L14.8506647,26.4426869 L12.7228195,28.0730195 C12.5681455,28.1916648 12.3701078,28.2474981 12.1735023,28.2251648 C11.9769079,28.2042276 11.7962261,28.1079166 11.6733292,27.9571649 C11.5504581,27.8078104 11.4940832,27.6165835 11.517212,27.4267396 C11.5403407,27.2355091 11.6415299,27.0624384 11.7976472,26.9451616 L14.3302641,25.013347 L11.7976472,23.0703479 C11.5533483,22.8930785 11.4449355,22.5901636 11.5273294,22.3054405 C11.609727,22.0206888 11.8641432,21.8141074 12.1677183,21.7861996 C12.3672029,21.7624706 12.56668,21.8196996 12.7228084,21.9425329 L14.8506536,23.5728655 L14.8506536,16.4372794 C14.8477627,16.0743718 15.1253084,15.7672796 15.4982587,15.722613 L15.4982698,15.7226273 Z M16.2223229,17.5760425 L16.2223229,23.1520849 L20.0001294,20.3751713 L16.2223229,17.5760425 Z M16.2223229,26.8694466 L16.2223229,32.445489 L20.0001294,29.6407332 L16.2223229,26.8694466 Z M45.346352,25.1410612 L34.0638071,25.1410612 C33.6744083,25.1410612 33.3583941,25.4520202 33.3583941,25.8351898 C33.3583941,26.2183595 33.6744083,26.5293185 34.0638071,26.5293185 L45.346352,26.5293185 C45.7357507,26.5293185 46.0517649,26.2183595 46.0517649,25.8351898 C46.0517649,25.4520202 45.7357507,25.1410612 45.346352,25.1410612 Z M41.154829,21.0344521 C40.8791459,20.763179 40.8791459,20.3240694 41.154829,20.0527963 C41.4298521,19.7821728 41.8767603,19.7821728 42.1517833,20.0527963 L47.7937327,25.6044931 C48.0687558,25.8751166 48.0687558,26.3148758 47.7937327,26.5854993 L42.1517833,32.1371961 C41.8767603,32.4078197 41.4298521,32.4078197 41.154829,32.1371961 C40.8791459,31.865923 40.8791459,31.4268134 41.154829,31.1555403 L46.2976751,26.0949629 L41.154829,21.0344521 Z"/>
</svg>
