<svg xmlns="http://www.w3.org/2000/svg" width="50" height="50" viewBox="0 0 50 50">
  <path d="M46.1449845,7.15604662 L43.8436639,4.85488286 C41.3662299,2.38170571 37.3532543,2.38170571 34.8758203,4.85488286 L25.3264879,14.4035647 L25.3305825,14.4035647 C22.8572369,16.8808299 22.8572369,20.8894439 25.3305825,23.3707972 L25.4493333,23.4854518 L23.4837814,25.4508698 L23.3650306,25.3321271 C20.8875966,22.85895 16.8787094,22.85895 14.4012754,25.3321271 L4.85194298,34.8808089 C2.38268567,37.353986 2.38268567,41.3666882 4.85194298,43.8439534 L7.15326354,46.1451171 C9.63069755,48.6182943 13.6436731,48.6182943 16.1211071,46.1451171 L25.6704396,36.5964353 L25.6663449,36.5964353 C28.1396906,34.1191701 28.1396906,30.1105561 25.6663449,27.6332909 L25.5475941,27.5145482 L27.5090577,25.5532183 L27.6278085,25.671961 L27.6319031,25.6678666 C30.1052488,28.1451318 34.1182243,28.1451318 36.5956583,25.6678666 L46.1449908,16.1191848 C48.6183364,13.6460077 48.6183364,9.63330554 46.1449908,7.15604033 L46.1449845,7.15604662 Z M23.602463,29.6928392 C24.937361,31.0317344 24.937361,33.197887 23.602463,34.5326941 L14.0531306,44.0813759 L14.0572263,44.0813759 C12.7017817,45.3753022 10.5724862,45.3753022 9.21704166,44.0813759 L6.9157211,41.7802121 C6.27282314,41.137358 5.91247197,40.2693036 5.91247197,39.3602847 C5.91247197,38.4553748 6.27282314,37.5832324 6.9157211,36.9444454 L16.4650535,27.3957635 C17.1079515,26.7529094 17.976065,26.3925828 18.8851458,26.3925828 C19.7901174,26.3925828 20.6623192,26.7529094 21.3052382,27.3957635 L21.4199006,27.5145062 L14.5159389,34.4179975 C13.9467465,34.9871511 13.9467465,35.9084657 14.5159389,36.4775459 C15.0851313,37.0466995 16.010597,37.050798 16.5798208,36.4816403 L23.4878708,29.5740609 L23.602463,29.6928392 Z M44.0766997,14.0554498 L34.5273673,23.6041316 L34.531463,23.6041316 C33.1801068,24.898058 31.0467229,24.898058 29.6912784,23.6041316 L29.5766159,23.4853889 L36.484666,16.5818977 L36.4805703,16.5818977 C37.0497626,16.0127441 37.0497626,15.0914295 36.4805703,14.5223493 C35.9113779,13.9531957 34.9859122,13.9490971 34.4166884,14.5182549 L27.5086384,21.4217462 L27.3898876,21.3030035 L27.3939822,21.3070979 C26.7510843,20.6642437 26.3907331,19.7921013 26.3907331,18.8871705 C26.3907331,17.978162 26.7510843,17.1060301 27.3939822,16.467243 L36.9433146,6.91856123 L36.939219,6.91856123 C37.5821169,6.27570708 38.4543188,5.91538046 39.3593113,5.91538046 C40.2683816,5.91538046 41.1364847,6.27570708 41.7794036,6.91856123 L44.0807241,9.21972499 C44.7236221,9.86257914 45.0839733,10.7306335 45.0839733,11.6396524 C45.0839733,12.5445623 44.7236221,13.4167047 44.0807241,14.0595798 L44.0766997,14.0554498 Z"/>
</svg>
