<svg xmlns="http://www.w3.org/2000/svg" width="50" height="50" viewBox="0 0 50 50">
  <path d="M32.4462463,13 L9.60979316,13 C5.96200364,13 3,16.3313168 3,20.4341068 C3,24.5368156 5.96193153,27.8682135 9.60979316,27.8682135 L32.4448041,27.8682135 C36.0925936,27.8682135 39.0545972,24.5368967 39.0545972,20.4341068 C39.0560056,16.3313979 36.0940719,13 32.4462463,13 Z M32.4462463,26.5170001 L9.60979316,26.5170001 C6.62954516,26.5170001 4.20138724,23.7860243 4.20138724,20.4341068 C4.20138724,17.0821892 6.62954516,14.3512134 9.60979316,14.3512134 L32.4448041,14.3512134 C35.4250521,14.3512134 37.85321,17.0821892 37.85321,20.4341068 C37.8546187,23.7876059 35.4264583,26.5170001 32.4462463,26.5170001 Z M11.1635088,17.6565214 L10.3922539,17.9198767 C10.2605762,17.9574989 10.1006819,17.8822545 10.0630598,17.7411713 C10.0254376,17.581277 10.1100875,17.4495993 10.2605762,17.4025716 L11.304592,17.0263497 C11.3986475,16.9887275 11.4832974,16.9605109 11.5491362,16.9605109 L11.5585418,16.9605109 C11.6902194,16.9605109 11.7842749,17.0545663 11.7842749,17.1768385 L11.7842749,22.9894666 C11.7842749,23.168172 11.6525972,23.3092553 11.4738918,23.3092553 C11.2951864,23.3092553 11.1635088,23.168172 11.1635088,22.9894666 L11.1635088,17.6565214 Z M15.9151017,18.3431263 C15.8680739,18.4936151 15.6893685,18.5876705 15.5294742,18.5218317 C15.3695799,18.474804 15.2943356,18.2960986 15.3601744,18.1362043 C15.6141242,17.3837605 16.3289458,16.9322942 17.1848506,16.9322942 C18.2476774,16.9322942 19.1035822,17.6565214 19.1035822,18.7193482 C19.1035822,19.3118977 18.8214158,19.866825 18.4263828,20.3182912 L16.4606234,22.6414614 L18.8402269,22.6414614 C19.0189323,22.6414614 19.1600155,22.7731391 19.1600155,22.9518445 C19.1600155,23.1305499 19.0189323,23.2622275 18.8402269,23.2622275 L15.576502,23.2622275 C15.4448243,23.2622275 15.3789855,23.1869831 15.3789855,23.0929277 C15.3789855,23.0082777 15.4448243,22.9330334 15.4918521,22.8766001 L17.9749165,19.8762305 C18.2852996,19.5094142 18.4828161,19.1331923 18.4828161,18.7193482 C18.4828161,18.0045266 17.8996721,17.5530603 17.1848506,17.5530603 C16.6017066,17.5530603 16.074996,17.8446323 15.9151017,18.3431263 Z M22.8769982,22.1429674 C23.1027313,22.462756 23.5165754,22.6884891 24.0056639,22.7261113 L23.9962583,22.7261113 C24.7957298,22.7731391 25.5293625,22.3028617 25.5669847,21.5316068 C25.5857958,20.7227298 24.936813,20.2148302 24.1655582,20.2148302 L23.7799307,20.2148302 C23.6106309,20.2148302 23.4789532,20.0925581 23.4789532,19.9232582 C23.4789532,19.7445528 23.6106309,19.6222807 23.7799307,19.6222807 L24.1655582,19.6222807 C24.7957298,19.6222807 25.2848183,19.1708145 25.3130349,18.6064816 C25.3412516,18.0421488 24.9838408,17.6000881 24.231397,17.5530603 C23.8081474,17.5342492 23.4037088,17.6753325 23.1591646,17.9292822 C23.0274869,18.0703654 22.8769982,18.1267987 22.735915,18.0233377 C22.5854262,17.9198767 22.5572096,17.7223602 22.6794817,17.5718714 C23.046298,17.1204052 23.6200364,16.8852665 24.2690192,16.9228887 C25.4541181,17.0075386 26.0372621,17.8070101 25.9432066,18.7005371 C25.9055844,19.1990311 25.5575791,19.678714 25.0590851,19.8950416 C25.7833123,20.0643415 26.2535896,20.9108407 26.1971564,21.6256623 C26.1125064,22.7449224 25.0967073,23.4221218 23.9586361,23.3468774 C23.2720312,23.2904442 22.6982928,22.9518445 22.3596931,22.4721615 C22.2562321,22.3310783 22.2938543,22.1147508 22.444343,22.0206953 C22.5948318,21.9266398 22.7641316,21.9924786 22.8769982,22.1429674 Z M29.1961823,21.3529014 L31.4158914,21.3529014 L31.4158914,18.1738265 L29.1961823,21.3529014 Z M28.4719552,21.4563624 L31.4911358,17.1298107 C31.5569746,17.0357552 31.6228135,16.9699164 31.7638967,16.9699164 C31.9143854,16.9699164 32.0366576,17.0921885 32.0366576,17.2332717 L32.0366576,21.3529014 L32.7326681,21.3529014 C32.8925624,21.3529014 33.02424,21.4751735 33.02424,21.6444734 C33.02424,21.8043677 32.8925624,21.9266398 32.7326681,21.9266398 L32.0366576,21.9266398 L32.0366576,22.9894666 C32.0366576,23.168172 31.9049799,23.3092553 31.7262745,23.3092553 C31.5475691,23.3092553 31.4158914,23.168172 31.4158914,22.9894666 L31.4158914,21.9266398 L28.6224439,21.9266398 C28.4813607,21.9266398 28.3778997,21.8513954 28.3778997,21.7103122 C28.3778997,21.6256623 28.4155219,21.5316068 28.4719552,21.4563624 Z M45.1541686,21.6217516 C45.0416979,21.6226109 44.9333818,21.6690145 44.8542552,21.7523713 L34.3035381,32.6419306 C34.2427194,32.702943 34.2010638,32.7820034 34.1835685,32.8687855 L33.5770446,35.9761597 C33.5478851,36.1205289 33.5903746,36.2709038 33.6911832,36.3757515 C33.7911579,36.4805905 33.9361132,36.5269954 34.0769203,36.4986364 L37.096103,35.8730257 C37.1794142,35.8566982 37.2552286,35.8163098 37.3160367,35.7561554 L47.8733654,24.8665961 C47.9541791,24.7840995 48,24.6706676 48,24.5537908 C48,24.4360603 47.9541791,24.3234821 47.8733654,24.2409854 L45.4607492,21.7524461 C45.3999304,21.6914338 45.3241181,21.6510434 45.2408155,21.6355759 C45.2124899,21.6278419 45.1833303,21.623545 45.1541707,21.6218264 L45.1541686,21.6217516 Z M45.1608336,22.6873445 L46.9670539,24.5504051 L46.36053,25.1760158 L44.5543097,23.3060915 L45.1608336,22.6873445 Z M43.9544828,23.9316582 L45.7607031,25.7947188 L37.1629853,34.6629999 L35.356765,32.7999393 L43.9544828,23.9316582 Z M34.910158,33.5837675 L36.3964592,35.1168415 L34.5435947,35.5018259 L34.910158,33.5837675 Z"/>
</svg>
