<svg xmlns="http://www.w3.org/2000/svg" width="50" height="50" viewBox="0 0 50 50">
  <path fill-rule="evenodd" d="M31.8461036,3 L18.1516566,3 C15.3115259,3 13,5.33742702 13,8.21164687 L13,42.7883531 C13,45.662573 15.3115259,48 18.1516566,48 L31.8461036,48 C34.6884741,48 37,45.662573 37,42.7883531 L37,8.21164687 C37,5.33742702 34.6884741,3 31.8461036,3 M24.9988801,43.4904872 C20.7118059,43.4904872 17.2355576,39.9752869 17.2355576,35.6401752 C17.2355576,31.3050634 20.7118059,27.7875981 24.9988801,27.7875981 C29.2881941,27.7875981 32.7622025,31.3050634 32.7622025,35.6401752 C32.7622025,39.9752869 29.2881941,43.4904872 24.9988801,43.4904872 Z M20.3812,22.0584 L25.7188,15.588 C26.3524,14.8392 26.7556,14.0712 26.7556,13.2264 C26.7556,11.7672 25.5652,10.8456 24.106,10.8456 C22.762,10.8456 21.5908,11.6136 21.418,12.9 L20.2468,12.5928 C20.554,10.7304 22.1668,9.5784 24.106,9.5784 C26.2756,9.5784 28.0228,11.0568 28.0228,13.2264 C28.0228,14.436 27.4468,15.5688 26.6404,16.4904 L22.6276,21.2328 L28.042,21.2328 L28.042,22.5 L20.3812,22.5 L20.3812,22.0584 Z"/>
</svg>
