<svg xmlns="http://www.w3.org/2000/svg" width="25" height="45" viewBox="0 0 25 45">
  <path fill-rule="evenodd" d="M31.0160156,3 L17.1981027,3 C14.3323661,3 12,5.31428571 12,8.16004983 L12,42.3944352 C12,45.2401993 14.3323661,47.554485 17.1981027,47.554485 L31.0160156,47.554485 C33.8840123,47.554485 36.2163783,45.2401993 36.2163783,42.3944352 L36.2163783,8.16004983 C36.2163783,5.31428571 33.8840123,3 31.0160156,3 M24.101409,42.7139227 C22.0781194,42.7139227 20.4375,41.0860212 20.4375,39.078416 C20.4375,37.0708108 22.0781194,35.4418605 24.101409,35.4418605 C26.1257558,35.4418605 27.7653181,37.0708108 27.7653181,39.078416 C27.7653181,41.0860212 26.1257558,42.7139227 24.101409,42.7139227 M17.2571045,15.332093 C17.1727295,15.6 16.8521045,15.7674419 16.5652295,15.6502326 C16.2783545,15.5665116 16.1433545,15.2483721 16.2614795,14.9637209 C16.7171045,13.624186 17.9996045,12.8204651 19.5352295,12.8204651 C21.4421045,12.8204651 22.9777295,14.1097674 22.9777295,16.0018605 C22.9777295,17.0567442 22.4714795,18.0446512 21.7627295,18.8483721 L18.2358545,22.984186 L22.5052295,22.984186 C22.8258545,22.984186 23.0789795,23.2186047 23.0789795,23.5367442 C23.0789795,23.8548837 22.8258545,24.0893023 22.5052295,24.0893023 L16.6496045,24.0893023 C16.4133545,24.0893023 16.2952295,23.9553488 16.2952295,23.787907 C16.2952295,23.6372093 16.4133545,23.5032558 16.4977295,23.4027907 L20.9527295,18.0613953 C21.5096045,17.4083721 21.8639795,16.7386047 21.8639795,16.0018605 C21.8639795,14.7293023 20.8177295,13.9255814 19.5352295,13.9255814 C18.4889795,13.9255814 17.5439795,14.4446512 17.2571045,15.332093 Z M25.0533545,21.2930233 C25.0027295,20.9748837 25.2221045,20.6902326 25.5089795,20.6567442 C25.8296045,20.6232558 26.0827295,20.8409302 26.1333545,21.1590698 C26.3189795,22.1972093 27.3146045,23.1516279 28.7658545,23.1516279 C30.5208545,23.1516279 31.4321045,22.1637209 31.6177295,21.2595349 C31.8371045,19.8362791 30.7233545,19.1162791 29.4071045,18.8148837 L27.8377295,18.4632558 C25.4246045,17.9274419 25.1039795,16.5376744 25.1039795,15.5665116 C25.1039795,13.6911628 26.8927295,12.4186047 28.7489795,12.4186047 C30.6052295,12.4186047 32.0733545,13.4734884 32.3433545,15.147907 C32.3939795,15.4660465 32.1914795,15.7506977 31.8877295,15.8009302 C31.5671045,15.8511628 31.2971045,15.6669767 31.2464795,15.3153488 C31.0608545,14.2102326 30.0314795,13.5237209 28.7489795,13.5237209 C27.4664795,13.5237209 26.2177295,14.344186 26.2177295,15.5665116 C26.2177295,16.1693023 26.4371045,17.0232558 28.0739795,17.3916279 L29.6602295,17.7432558 C31.5164795,18.1618605 33.0521045,19.2502326 32.7146045,21.4604651 C32.4446045,22.8 31.1621045,24.2567442 28.7658545,24.2567442 C26.7071045,24.2567442 25.2896045,22.8167442 25.0533545,21.2930233 Z" transform="translate(-12 -3)"/>
</svg>
