<svg xmlns="http://www.w3.org/2000/svg" width="50" height="50" viewBox="0 0 50 50">
  <path d="M36.584943,14 L14.4164566,14 C10.875365,14 8,17.2338757 8,21.216659 C8,25.1993635 10.875295,28.4333179 14.4164566,28.4333179 L36.5835429,28.4333179 C40.1246345,28.4333179 42.9999995,25.1994422 42.9999995,21.216659 C43.0013667,17.2339545 40.1260696,14 36.584943,14 Z M36.584943,27.1216276 L14.4164566,27.1216276 C11.5233809,27.1216276 9.16624663,24.4705329 9.16624663,21.216659 C9.16624663,17.9627851 11.5233809,15.3116904 14.4164566,15.3116904 L36.5835429,15.3116904 C39.4766186,15.3116904 41.8337529,17.9627851 41.8337529,21.216659 C41.8351204,24.4720682 39.4779837,27.1216276 36.584943,27.1216276 Z M16.4882104,19.3084638 L15.0005107,20.0028701 L15.0005107,18.1554057 C15.0005107,17.8543268 14.7379755,17.6083295 14.4166323,17.6083295 C14.0952892,17.6083295 13.832754,17.854317 13.832754,18.1554057 L13.832754,20.0028701 L12.3450543,19.3033473 C12.0592725,19.1662601 11.709229,19.2764425 11.5629093,19.5493348 C11.4166002,19.8171036 11.5341946,20.1450837 11.8254446,20.2821807 L13.534654,21.0803609 L12.2000999,22.7471721 C12.007301,22.9880365 12.0606271,23.332688 12.316326,23.5120292 C12.4216131,23.588902 12.5433104,23.622212 12.6663729,23.622212 C12.8413964,23.622212 13.0164199,23.5453392 13.1326355,23.4031289 L14.4166078,21.801652 L15.7005801,23.4031289 C15.8168062,23.5453392 15.9918297,23.622212 16.1668427,23.622212 C16.2899052,23.622212 16.4116026,23.588902 16.5168897,23.5133117 C16.7739572,23.332665 16.8259147,22.9880136 16.6331158,22.7484546 L15.3026572,21.0867599 L17.0118666,20.2885797 C17.2976485,20.1514925 17.4138606,19.8234993 17.2744019,19.5557337 C17.1294614,19.2815594 16.7794004,19.1726492 16.4881613,19.3084638 L16.4882104,19.3084638 Z M23.8770992,19.3088264 L22.3893996,20.0033808 L22.3893996,18.1555224 C22.3893996,17.8543793 22.1268643,17.6083295 21.8055212,17.6083295 C21.4841781,17.6083295 21.2216429,17.8543694 21.2216429,18.1555224 L21.2216429,20.0033808 L19.7339432,19.3037088 C19.4481613,19.1665924 19.0981179,19.2767983 18.9517982,19.5497488 C18.8054891,19.8175747 18.9230835,20.1456247 19.2143335,20.282751 L20.9235429,21.0811015 L19.5889887,22.7482682 C19.3961899,22.989184 19.449516,23.3339089 19.7052148,23.5132884 C19.810502,23.5901776 19.9321993,23.622212 20.0552618,23.622212 C20.2302853,23.622212 20.4053088,23.5453261 20.5215244,23.4030822 L21.8054967,21.8012637 L23.089469,23.4030822 C23.2056951,23.5453228 23.3807186,23.622212 23.5557316,23.622212 C23.6787941,23.622212 23.8004915,23.5888949 23.9057786,23.5132884 C24.1628461,23.3326033 24.2148036,22.9878783 24.0220047,22.7482682 L22.6915461,21.0862191 L24.4007555,20.2878686 C24.6865374,20.1507522 24.8027495,19.8226891 24.6632908,19.5548664 C24.5183503,19.2819162 24.1682893,19.1729796 23.8770502,19.3088264 L23.8770992,19.3088264 Z M30.8770992,19.3088264 L29.3893996,20.0033808 L29.3893996,18.1555224 C29.3893996,17.8543793 29.1268643,17.6083295 28.8055212,17.6083295 C28.4841781,17.6083295 28.2216429,17.8543694 28.2216429,18.1555224 L28.2216429,20.0033808 L26.7339432,19.3037088 C26.4426936,19.1665924 26.0981179,19.2767983 25.9517982,19.5497488 C25.8054891,19.8175747 25.9230835,20.1456247 26.2143335,20.282751 L27.9235429,21.0811015 L26.5889887,22.7482682 C26.3961899,22.989184 26.449516,23.3339089 26.7052148,23.5132884 C26.810502,23.5901776 26.9321993,23.622212 27.0552618,23.622212 C27.2302853,23.622212 27.4053088,23.5453261 27.5215244,23.4030822 L28.8054967,21.8012637 L30.089469,23.4030822 C30.2056951,23.5453228 30.3807186,23.622212 30.5557316,23.622212 C30.6787941,23.622212 30.8004915,23.5888949 30.9057786,23.5132884 C31.1628461,23.3326033 31.2148036,22.9878783 31.0220047,22.7482682 L29.6915461,21.0862191 L31.4007555,20.2878686 C31.6865374,20.1507522 31.8027495,19.8226891 31.6632908,19.5548664 C31.5183503,19.2819162 31.1682893,19.1729796 30.8770502,19.3088264 L30.8770992,19.3088264 Z M38.2659881,19.3088264 L36.7782885,20.0033808 L36.7782885,18.1555224 C36.7782885,17.8543793 36.5157532,17.6083295 36.1944101,17.6083295 C35.873067,17.6083295 35.6105317,17.8543694 35.6105317,18.1555224 L35.6105317,20.0033808 L34.1228321,19.3037088 C33.8315825,19.1665924 33.4870068,19.2767983 33.3406871,19.5497488 C33.194378,19.8175747 33.3119724,20.1456247 33.6032224,20.282751 L35.3124317,21.0811015 L33.9778776,22.7482682 C33.7850788,22.989184 33.8384049,23.3339089 34.0941037,23.5132884 C34.1993909,23.5901776 34.3210882,23.622212 34.4441507,23.622212 C34.6191742,23.622212 34.7941977,23.5453261 34.9104133,23.4030822 L36.1943856,21.8012637 L37.4783579,23.4030822 C37.594584,23.5453228 37.7696075,23.622212 37.9446205,23.622212 C38.067683,23.622212 38.1893804,23.5888949 38.2946675,23.5132884 C38.551735,23.3326033 38.6036925,22.9878783 38.4108936,22.7482682 L37.080435,21.0862191 L38.7896444,20.2878686 C39.0754263,20.1507522 39.1916384,19.8226891 39.0521796,19.5548664 C38.9072392,19.2819162 38.5571782,19.1729796 38.2659391,19.3088264 L38.2659881,19.3088264 Z"/>
</svg>
