<svg xmlns="http://www.w3.org/2000/svg" width="50" height="50" viewBox="0 0 50 50">
  <path d="M41.6587267,6.55380913 L32.9530332,6.55380913 L32.9530332,4.42152365 C32.9530332,3.63738648 32.3522564,3 31.613158,3 L18.3854439,3 C17.6463454,3 17.0455687,3.63738648 17.0455687,4.42152365 L17.0455687,6.55380913 L8.3398752,6.55380913 C7.60077674,6.55380913 7,7.19119562 7,7.97533279 C7,8.75946996 7.60077674,9.39685644 8.3398752,9.39685644 L10.349688,9.39685644 L10.349688,46.5784763 C10.349688,47.3626135 10.9504647,48 11.6895632,48 L38.3104368,48 C39.0495353,48 39.650312,47.3626135 39.650312,46.5784763 L39.650312,9.39487867 L41.6601248,9.39487867 C42.3992233,9.39487867 43,8.75749219 43,7.97335502 C42.9963593,7.19114617 42.3974057,6.55375969 41.6583072,6.55375969 L41.6587267,6.55380913 Z M19.7257852,5.84304731 L30.2737488,5.84304731 L30.2737488,6.55188081 L19.7257852,6.55188081 L19.7257852,5.84304731 Z M36.9712606,45.1552221 L13.0282733,45.1552221 L13.0282733,9.39512589 L36.9693965,9.39512589 L36.9693965,45.1552221 L36.9712606,45.1552221 Z M18.2181343,39.233031 C18.9572327,39.233031 19.5580095,38.5956445 19.5580095,37.8115073 L19.5580095,16.5000247 C19.5580095,15.7158876 18.9572327,15.0785011 18.2181343,15.0785011 C17.4790358,15.0785011 16.8782591,15.7158876 16.8782591,16.5000247 L16.8782591,37.8149684 C16.8800794,38.5991056 17.4808534,39.2326354 18.2181343,39.2326354 L18.2181343,39.233031 Z M31.613158,39.233031 C32.3522564,39.233031 32.9530332,38.5956445 32.9530332,37.8115073 L32.9530332,16.5000247 C32.9530332,15.7158876 32.3522564,15.0785011 31.613158,15.0785011 C30.8740595,15.0785011 30.2732828,15.7158876 30.2732828,16.5000247 L30.2732828,37.8149684 C30.2732828,38.5991056 30.8740595,39.2326354 31.613158,39.2326354 L31.613158,39.233031 Z M24.999534,39.233031 C25.7386324,39.233031 26.3394092,38.5956445 26.3394092,37.8115073 L26.3394092,17.0913786 C26.3394092,16.3072414 25.7386324,15.6698549 24.999534,15.6698549 C24.2604355,15.6698549 23.6596588,16.3072414 23.6596588,17.0913786 L23.6596588,37.8154629 C23.6596588,38.5976717 24.2604355,39.2331299 24.999534,39.2331299 L24.999534,39.233031 Z"/>
</svg>
