<svg xmlns="http://www.w3.org/2000/svg" width="50" height="50" viewBox="0 0 50 50">
  <path d="M39.7520696,28.6490073 L11.2497299,28.6490073 C6.69689782,28.6490073 3,32.6820206 3,37.6490073 C3,42.6158958 6.69680782,46.6490073 11.2497299,46.6490073 L39.7502695,46.6490073 C44.3031015,46.6490073 47.9999994,42.615994 47.9999994,37.6490073 C48.0017571,32.6821188 44.3049466,28.6490073 39.7520696,28.6490073 Z M39.7520696,45.0131792 L11.2497299,45.0131792 C7.53006114,45.0131792 4.49945996,41.7069606 4.49945996,37.6490073 C4.49945996,33.591054 7.53006114,30.2848353 11.2497299,30.2848353 L39.7502695,30.2848353 C43.4699382,30.2848353 46.5005394,33.591054 46.5005394,37.6490073 C46.5022976,41.7088753 43.4716933,45.0131792 39.7520696,45.0131792 Z M13.9134133,35.2692694 L12.0006566,36.1352736 L12.0006566,33.8312739 C12.0006566,33.4557941 11.6631113,33.1490073 11.2499559,33.1490073 C10.8368004,33.1490073 10.4992551,33.4557818 10.4992551,33.8312739 L10.4992551,36.1352736 L8.5864984,35.2628885 C8.21906458,35.0919251 7.76900868,35.2293352 7.58088343,35.5696631 C7.39277169,35.9036015 7.54396453,36.3126302 7.91842874,36.4836059 L10.1159837,37.479028 L8.40012838,39.5577324 C8.15224412,39.8581179 8.22080632,40.2879377 8.54956194,40.5115968 C8.68493111,40.6074659 8.84139911,40.6490073 8.99962234,40.6490073 C9.22465254,40.6490073 9.44968274,40.5531382 9.5991028,40.3757857 L11.2499244,38.3785605 L12.9007459,40.3757857 C13.0501795,40.5531382 13.2752097,40.6490073 13.5002264,40.6490073 C13.6584496,40.6490073 13.8149176,40.6074659 13.9502868,40.5131961 C14.2808021,40.2879091 14.3476046,39.8580893 14.0997203,39.5593317 L12.3891307,37.4870082 L14.5866857,36.4915861 C14.9541195,36.3206227 15.103535,35.9115777 14.924231,35.5776433 C14.737879,35.2357165 14.2878006,35.0998931 13.9133503,35.2692694 L13.9134133,35.2692694 Z M23.4134133,35.2697217 L21.5006566,36.1359105 L21.5006566,33.8314194 C21.5006566,33.4558595 21.1631113,33.1490073 20.7499559,33.1490073 C20.3368004,33.1490073 19.9992551,33.4558473 19.9992551,33.8314194 L19.9992551,36.1359105 L18.0864984,35.2633394 C17.7190646,35.0923395 17.2690087,35.2297789 17.0808834,35.5701794 C16.8927717,35.904189 17.0439645,36.3133049 17.4184287,36.4843171 L19.6159837,37.4799515 L17.9001284,39.5590993 C17.6522441,39.8595489 17.7208063,40.2894603 18.0495619,40.5131672 C18.1849311,40.6090567 18.3413991,40.6490073 18.4996223,40.6490073 C18.7246525,40.6490073 18.9496827,40.5531218 19.0991028,40.3757274 L20.7499244,38.3780763 L22.4007459,40.3757274 C22.5501795,40.5531177 22.7752097,40.6490073 23.0002264,40.6490073 C23.1584496,40.6490073 23.3149176,40.607457 23.4502868,40.5131672 C23.7808021,40.287832 23.8476046,39.8579206 23.5997203,39.5590993 L21.8891307,37.4863338 L24.0866857,36.4906994 C24.4541195,36.3196995 24.603535,35.9105672 24.424231,35.5765617 C24.237879,35.2361615 23.7878006,35.1003051 23.4133503,35.2697217 L23.4134133,35.2697217 Z M32.4134133,35.2697217 L30.5006566,36.1359105 L30.5006566,33.8314194 C30.5006566,33.4558595 30.1631113,33.1490073 29.7499559,33.1490073 C29.3368004,33.1490073 28.9992551,33.4558473 28.9992551,33.8314194 L28.9992551,36.1359105 L27.0864984,35.2633394 C26.7120346,35.0923395 26.2690087,35.2297789 26.0808834,35.5701794 C25.8927717,35.904189 26.0439645,36.3133049 26.4184287,36.4843171 L28.6159837,37.4799515 L26.9001284,39.5590993 C26.6522441,39.8595489 26.7208063,40.2894603 27.0495619,40.5131672 C27.1849311,40.6090567 27.3413991,40.6490073 27.4996223,40.6490073 C27.7246525,40.6490073 27.9496827,40.5531218 28.0991028,40.3757274 L29.7499244,38.3780763 L31.4007459,40.3757274 C31.5501795,40.5531177 31.7752097,40.6490073 32.0002264,40.6490073 C32.1584496,40.6490073 32.3149176,40.607457 32.4502868,40.5131672 C32.7808021,40.287832 32.8476046,39.8579206 32.5997203,39.5590993 L30.8891307,37.4863338 L33.0866857,36.4906994 C33.4541195,36.3196995 33.603535,35.9105672 33.424231,35.5765617 C33.237879,35.2361615 32.7878006,35.1003051 32.4133503,35.2697217 L32.4134133,35.2697217 Z M41.9134133,35.2697217 L40.0006566,36.1359105 L40.0006566,33.8314194 C40.0006566,33.4558595 39.6631113,33.1490073 39.2499559,33.1490073 C38.8368004,33.1490073 38.4992551,33.4558473 38.4992551,33.8314194 L38.4992551,36.1359105 L36.5864984,35.2633394 C36.2120346,35.0923395 35.7690087,35.2297789 35.5808834,35.5701794 C35.3927717,35.904189 35.5439645,36.3133049 35.9184287,36.4843171 L38.1159837,37.4799515 L36.4001284,39.5590993 C36.1522441,39.8595489 36.2208063,40.2894603 36.5495619,40.5131672 C36.6849311,40.6090567 36.8413991,40.6490073 36.9996223,40.6490073 C37.2246525,40.6490073 37.4496827,40.5531218 37.5991028,40.3757274 L39.2499244,38.3780763 L40.9007459,40.3757274 C41.0501795,40.5531177 41.2752097,40.6490073 41.5002264,40.6490073 C41.6584496,40.6490073 41.8149176,40.607457 41.9502868,40.5131672 C42.2808021,40.287832 42.3476046,39.8579206 42.0997203,39.5590993 L40.3891307,37.4863338 L42.5866857,36.4906994 C42.9541195,36.3196995 43.103535,35.9105672 42.924231,35.5765617 C42.737879,35.2361615 42.2878006,35.1003051 41.9133503,35.2697217 L41.9134133,35.2697217 Z M33.4940688,4.76755536 L28.9002693,4.76755536 L28.9002693,3.70702214 C28.9002693,3.31701643 28.5832528,3 28.1932471,3 L21.2132786,3 C20.8232729,3 20.5062565,3.31701643 20.5062565,3.70702214 L20.5062565,4.76755536 L15.9124569,4.76755536 C15.5224512,4.76755536 15.2054348,5.08457179 15.2054348,5.4745775 C15.2054348,5.86458322 15.5224512,6.18159965 15.9124569,6.18159965 L16.9729901,6.18159965 L16.9729901,24.6745938 C16.9729901,25.0645995 17.2900066,25.381616 17.6800123,25.381616 L31.7272512,25.381616 C32.1172569,25.381616 32.4342734,25.0645995 32.4342734,24.6745938 L32.4342734,6.18061597 L33.4948066,6.18061597 C33.8848123,6.18061597 34.2018287,5.86359953 34.2018287,5.47359382 C34.1999076,5.0845472 33.8838532,4.76753077 33.4938475,4.76753077 L33.4940688,4.76755536 Z M21.9205467,4.41404429 L27.4864709,4.41404429 L27.4864709,4.76659627 L21.9205467,4.76659627 L21.9205467,4.41404429 Z M31.0205979,23.9667109 L18.3864196,23.9667109 L18.3864196,6.18073893 L31.0196143,6.18073893 L31.0196143,23.9667109 L31.0205979,23.9667109 Z M21.1249931,21.0211952 C21.5149988,21.0211952 21.8320152,20.7041788 21.8320152,20.3141731 L21.8320152,9.71449708 C21.8320152,9.32449137 21.5149988,9.00747494 21.1249931,9.00747494 C20.7349873,9.00747494 20.4179709,9.32449137 20.4179709,9.71449708 L20.4179709,20.3158945 C20.4189315,20.7059002 20.7359464,21.0209985 21.1249931,21.0209985 L21.1249931,21.0211952 Z M28.1932471,21.0211952 C28.5832528,21.0211952 28.9002693,20.7041788 28.9002693,20.3141731 L28.9002693,9.71449708 C28.9002693,9.32449137 28.5832528,9.00747494 28.1932471,9.00747494 C27.8032414,9.00747494 27.486225,9.32449137 27.486225,9.71449708 L27.486225,20.3158945 C27.486225,20.7059002 27.8032414,21.0209985 28.1932471,21.0209985 L28.1932471,21.0211952 Z M24.7033858,21.0211952 C25.0933915,21.0211952 25.410408,20.7041788 25.410408,20.3141731 L25.410408,10.0086183 C25.410408,9.61861258 25.0933915,9.30159615 24.7033858,9.30159615 C24.3133801,9.30159615 23.9963637,9.61861258 23.9963637,10.0086183 L23.9963637,20.3161404 C23.9963637,20.7051871 24.3133801,21.0212444 24.7033858,21.0212444 L24.7033858,21.0211952 Z"/>
</svg>
