<svg xmlns="http://www.w3.org/2000/svg" width="50" height="50" viewBox="0 0 50 50">
  <path d="M36.6882088,13.3124553 C33.6038787,10.2291816 28.6119881,10.2291816 25.5320259,13.3124553 L22,16.8432715 L23.8593638,18.7019985 L27.3913897,15.1711823 C29.3528216,13.2104222 32.663165,13.0019522 34.828845,15.1711823 C36.9988184,17.3404124 36.7902769,20.6452929 34.828845,22.6060903 L31.2968191,26.1369065 L33.1605509,28 L36.6925768,24.4691838 C39.769627,21.38591 39.769627,16.395729 36.6896603,13.3123433 L36.6882088,13.3124553 Z M22.6134397,34.8333498 C20.6521758,36.7948026 17.3421161,37.0033463 15.1766215,34.8333498 C13.0068341,32.6633533 13.2153576,29.3573054 15.1766215,27.3958152 L18.7083449,23.8637516 L16.8447728,22 L13.3130494,25.5320636 C10.2289835,28.6164266 10.2289835,33.6083705 13.3130494,36.6883655 C16.3971153,39.7683605 21.3885783,39.7727285 24.4682766,36.6883655 L28,33.1563019 L26.1407955,31.2969182 L22.6119838,34.8333871 L22.6134397,34.8333498 Z M15.9209814,14.0843991 C15.8084494,13.971867 15.6252269,13.971867 15.5141242,14.0843991 L14.0843991,15.5126838 C13.971867,15.6252159 13.971867,15.8084383 14.0843991,15.919541 L34.080459,35.9156009 C34.192991,36.028133 34.3762135,36.028133 34.4873162,35.9156009 L35.9156009,34.4873162 C36.028133,34.3747841 36.028133,34.1915617 35.9156009,34.080459 L15.9209814,14.0843991 Z"/>
</svg>
