<svg xmlns="http://www.w3.org/2000/svg" width="50" height="50" viewBox="0 0 50 50">
  <path d="M25.1568827,23.7778825 L25.4493333,23.4854518 L25.3305825,23.3707972 C22.8572369,20.8894439 22.8572369,16.8808299 25.3305825,14.4035647 L25.3264879,14.4035647 L34.8758203,4.85488286 C37.3532543,2.38170571 41.3662299,2.38170571 43.8436639,4.85488286 L46.1449845,7.15604662 C48.6183364,9.63330554 48.6183364,13.6460077 46.1449908,16.1191848 L36.5956583,25.6678666 C34.1182243,28.1451318 30.1052488,28.1451318 27.6319031,25.6678666 L27.6278085,25.671961 L27.5090577,25.5532183 L27.2230024,25.8392541 L45.1530967,43.7281428 C45.6028493,44.1768618 45.6036872,44.9052171 45.1549682,45.3549697 C45.1507195,45.3592281 45.1464375,45.3634532 45.1421226,45.3676444 C44.6771476,45.8192933 43.9357545,45.8141594 43.4770788,45.3561145 L25.5792473,27.4828972 L25.5475941,27.5145482 L25.6663449,27.6332909 C28.1396906,30.1105561 28.1396906,34.1191701 25.6663449,36.5964353 L25.6704396,36.5964353 L16.1211071,46.1451171 C13.6436731,48.6182943 9.63069755,48.6182943 7.15326354,46.1451171 L4.85194298,43.8439534 C2.38268567,41.3666882 2.38268567,37.353986 4.85194298,34.8808089 L14.4012754,25.3321271 C16.8787094,22.85895 20.8875966,22.85895 23.3650306,25.3321271 L23.4837814,25.4508698 L23.5140816,25.4205717 L4.49032588,6.42297864 C3.9779866,5.91134397 3.85340966,5.12797403 4.1817608,4.48264691 C4.40285976,4.04810858 4.93435879,3.87508178 5.36889712,4.09618074 C5.45130622,4.1381116 5.52661623,4.19272888 5.5920728,4.25803502 L25.1568827,23.7778825 Z M23.602463,29.6928392 L23.4878708,29.5740609 L16.5798208,36.4816403 C16.010597,37.050798 15.0851313,37.0466995 14.5159389,36.4775459 C13.9467465,35.9084657 13.9467465,34.9871511 14.5159389,34.4179975 L21.4199006,27.5145062 L21.3052382,27.3957635 C20.6623192,26.7529094 19.7901174,26.3925828 18.8851458,26.3925828 C17.976065,26.3925828 17.1079515,26.7529094 16.4650535,27.3957635 L6.9157211,36.9444454 C6.27282314,37.5832324 5.91247197,38.4553748 5.91247197,39.3602847 C5.91247197,40.2693036 6.27282314,41.137358 6.9157211,41.7802121 L9.21704166,44.0813759 C10.5724862,45.3753022 12.7017817,45.3753022 14.0572263,44.0813759 L14.0531306,44.0813759 L23.602463,34.5326941 C24.937361,33.197887 24.937361,31.0317344 23.602463,29.6928392 Z M44.0766997,14.0554498 L44.0807241,14.0595798 C44.7236221,13.4167047 45.0839733,12.5445623 45.0839733,11.6396524 C45.0839733,10.7306335 44.7236221,9.86257914 44.0807241,9.21972499 L41.7794036,6.91856123 C41.1364847,6.27570708 40.2683816,5.91538046 39.3593113,5.91538046 C38.4543188,5.91538046 37.5821169,6.27570708 36.939219,6.91856123 L36.9433146,6.91856123 L27.3939822,16.467243 C26.7510843,17.1060301 26.3907331,17.978162 26.3907331,18.8871705 C26.3907331,19.7921013 26.7510843,20.6642437 27.3939822,21.3070979 L27.3898876,21.3030035 L27.5086384,21.4217462 L34.4166884,14.5182549 C34.9859122,13.9490971 35.9113779,13.9531957 36.4805703,14.5223493 C37.0497626,15.0914295 37.0497626,16.0127441 36.4805703,16.5818977 L36.484666,16.5818977 L29.5766159,23.4853889 L29.6912784,23.6041316 C31.0467229,24.898058 33.1801068,24.898058 34.531463,23.6041316 L34.5273673,23.6041316 L44.0766997,14.0554498 Z"/>
</svg>
