<svg xmlns="http://www.w3.org/2000/svg" width="50" height="50" viewBox="0 0 50 50">
  <path d="M39.1264783,2 C38.7757858,2.00267932 38.438048,2.14736933 38.191325,2.40728234 L5.29337567,36.361768 C5.10373813,36.5520091 4.97385278,36.7985256 4.91930106,37.0691188 L3.02811288,46.7581513 C2.93719114,47.2083055 3.06967672,47.6771861 3.38400579,48.0041095 C3.69573463,48.3310054 4.1477165,48.4756995 4.5867637,48.3872738 L14.0008083,46.4365715 C14.260579,46.385661 14.4969742,46.2597269 14.6865785,46.072161 L47.6051435,12.1176753 C47.8571268,11.8604444 48,11.5067552 48,11.1423241 C48,10.7752316 47.8571268,10.4242039 47.6051435,10.166973 L40.0824201,2.40751556 C39.8927826,2.21727441 39.656394,2.09133414 39.3966499,2.04310505 C39.3083284,2.01898982 39.2174067,2.00559186 39.1264849,2.00023322 L39.1264783,2 Z M39.1472602,5.32260076 L44.7791944,11.1317674 L42.8880062,13.0824697 L37.256072,7.25190149 L39.1472602,5.32260076 Z M35.3857655,9.20246665 L41.0176997,15.0116333 L14.2093524,42.6636176 L8.57741816,36.854451 L35.3857655,9.20246665 Z M7.18486311,39.298488 L11.819265,44.0787308 L6.04189063,45.2791419 L7.18486311,39.298488 Z"/>
</svg>
