<svg xmlns="http://www.w3.org/2000/svg" fill="#222222" viewBox="0 0 32 32" width="26px" height="26px" version="1.1">
  <path d="M3,7 L25,7 L25,4.375 C25,3.61815394 24.3755549,3 23.6,3 L4.4,3 C3.62515433,3 3,3.61864231 3,4.375 L3,7 Z M25,9 L3,9 L3,18.625 C3,19.3813577 3.62515433,20 4.4,20 L13.0090942,20 C13.561379,20 14.0090942,20.4477153 14.0090942,21 C14.0090942,21.5522847 13.561379,22 13.0090942,22 L4.4,22 C2.52524567,22 1,20.4906423 1,18.625 L1,4.375 C1,2.50935769 2.52524567,1 4.4,1 L23.6,1 C25.4756164,1 27,2.50902568 27,4.375 L27,13 C27,13.5522847 26.5522847,14 26,14 C25.4477153,14 25,13.5522847 25,13 L25,9 Z M5,4 C5.552,4 6,4.448 6,5 C6,5.552 5.552,6 5,6 C4.448,6 4,5.552 4,5 C4,4.448 4.448,4 5,4 Z M8,4 C8.552,4 9,4.448 9,5 C9,5.552 8.552,6 8,6 C7.448,6 7,5.552 7,5 C7,4.448 7.448,4 8,4 Z M11,4 C11.552,4 12,4.448 12,5 C12,5.552 11.552,6 11,6 C10.448,6 10,5.552 10,5 C10,4.448 10.448,4 11,4 Z M19.2248654,17.4518453 C19.5033869,17.2649618 19.8012736,17.0955851 20.1109902,16.9464126 L20.1109902,16 C20.1109902,15.4477153 20.5587055,15 21.1109902,15 L24.9194777,15 C25.4717624,15 25.9194777,15.4477153 25.9194777,16 L25.9194777,16.9481774 C26.2220715,17.0955309 26.5138014,17.2633627 26.7884548,17.4491654 L27.5901268,16.9824935 C28.0690033,16.7037284 28.6832552,16.867499 28.9597859,17.3476693 L30.8640296,20.6542148 C31.1392877,21.1321753 30.9755824,21.7427571 30.4981369,22.0189075 L29.6904439,22.4860704 C29.7043751,22.65775 29.7114617,22.8289843 29.7114617,23 C29.7114617,23.1713 29.7045898,23.3423743 29.6910294,23.513228 L30.5003325,23.980894 C30.9779241,24.2568762 31.1418538,24.8674588 30.8667125,25.3455353 L28.9637382,28.6520808 C28.6875237,29.1320221 28.073875,29.296121 27.5949725,29.0181094 L26.7898445,28.5507181 C26.5148578,28.7371045 26.2226767,28.9053714 25.9194777,29.053065 L25.9194777,30 C25.9194777,30.5522847 25.4717624,31 24.9194777,31 L21.1109902,31 C20.5587055,31 20.1109902,30.5522847 20.1109902,30 L20.1109902,29.0548304 C19.8006676,28.9053205 19.502337,28.7355144 19.2234856,28.5480463 L18.4028653,29.0200925 C17.9243044,29.2953756 17.3131991,29.1307529 17.0376751,28.6523307 L15.1334314,25.3457852 C14.8583281,24.8680935 15.0216788,24.257865 15.4986362,23.9814907 L16.3067051,23.5132528 C16.292996,23.3415182 16.2859993,23.1706102 16.2859993,23 C16.2859993,22.8295814 16.293203,22.6585861 16.3072847,22.4860408 L15.5008306,22.0183096 C15.0240205,21.7417668 14.8608948,21.1315402 15.1361143,20.653965 L17.0416275,17.3474195 C17.3174639,16.8687739 17.9291616,16.7044743 18.4076992,16.9804982 L19.2248654,17.4518453 Z M23.9194777,17 L22.1109902,17 L22.1109902,17.6061818 C22.1109902,18.0236855 21.8516109,18.3972509 21.4604266,18.5431419 C20.8917361,18.7552333 20.3557312,19.0589397 19.9491412,19.4076309 C19.6271413,19.6837777 19.1659528,19.7267221 18.7985032,19.5147746 L18.2749736,19.2127991 L17.3668888,20.788555 L17.8867283,21.0900541 C18.2506821,21.3011418 18.4435817,21.7174621 18.36932,22.1315944 C18.3141588,22.4392097 18.2859993,22.7254422 18.2859993,23 C18.2859993,23.2793641 18.3137415,23.5666762 18.367935,23.8677628 C18.4425354,24.2822258 18.2494855,24.6990097 17.8851143,24.9101457 L17.3642994,25.2119334 L18.2720056,26.7880824 L18.7995286,26.4846348 C19.1672946,26.2730844 19.6285227,26.3166312 19.9501959,26.5932749 C20.3560485,26.9423142 20.8913343,27.2458896 21.4604266,27.4581308 C21.8516109,27.6040218 22.1109902,27.9775872 22.1109902,28.3950909 L22.1109902,29 L23.9194777,29 L23.9194777,28.3950909 C23.9194777,27.9775872 24.178857,27.6040218 24.5700413,27.4581308 C25.12504,27.2511458 25.6490805,26.9499128 26.0637685,26.5932749 C26.3865452,26.3156822 26.8496843,26.2728808 27.2178676,26.4866179 L27.7309946,26.7844973 L28.6353565,25.2131078 L28.1121085,24.9107424 C27.7448033,24.6984905 27.5513913,24.2775837 27.6295676,23.8606275 C27.6837932,23.5714128 27.7114617,23.2848641 27.7114617,23 C27.7114617,22.7200103 27.683316,22.4339172 27.6281733,22.1387056 C27.5503524,21.7220844 27.7436162,21.3016561 28.1104957,21.0894561 L28.6327658,20.7873794 L27.7280375,19.2164012 L27.2189048,19.5127792 C26.8510387,19.7269226 26.3879324,19.684729 26.0648233,19.4076309 C25.649348,19.0513196 25.1246404,18.7499779 24.5700413,18.5431419 C24.178857,18.3972509 23.9194777,18.0236855 23.9194777,17.6061818 L23.9194777,17 Z M26,23.2608696 C26,24.9171543 24.6562847,26.2608696 23,26.2608696 C21.3437153,26.2608696 20,24.9171543 20,23.2608696 C20,21.6045848 21.3437153,20.2608696 23,20.2608696 C24.6562847,20.2608696 26,21.6045848 26,23.2608696 Z M24,23.2608696 C24,22.7091543 23.5517153,22.2608696 23,22.2608696 C22.4482847,22.2608696 22,22.7091543 22,23.2608696 C22,23.8125848 22.4482847,24.2608696 23,24.2608696 C23.5517153,24.2608696 24,23.8125848 24,23.2608696 Z"/>
</svg>