<svg xmlns="http://www.w3.org/2000/svg" width="50" height="50" viewBox="0 0 50 50">
  <path d="M41.7506343,5.16240842 C41.6272142,5.04075937 41.4563726,4.98269554 41.2860507,5.00451072 L7.93359125,5.00451072 C7.4344616,5.03754464 7.03682263,5.44298046 7.00442397,5.95189696 C6.98302832,6.12555849 7.03997553,6.29974997 7.15928519,6.42559008 L19.6674254,26.7375512 C19.9823349,27.2004525 20.1450072,27.7533257 20.132009,28.3165282 L20.132009,44.0526138 C20.1644077,44.5615303 20.5620466,44.9669661 21.0611763,45 L28.3195213,45 C28.818651,44.9669661 29.21629,44.5615303 29.2486886,44.0526138 L29.2486886,28.3086334 C29.2578576,27.7487083 29.4186387,27.2022627 29.7132722,26.7296563 L42.2136694,6.42559008 C42.3779441,5.94577652 42.1832881,5.41474541 41.7506343,5.16240842 Z M28.0067017,25.7885859 C27.5194151,26.5390727 27.2509205,27.4151021 27.2323956,28.3149493 L27.2323956,43.1162804 L21.8277393,43.1162804 L21.8277393,28.3086334 C21.8092144,27.4087862 21.5407198,26.5327568 21.0534332,25.78227 L9.48220338,7.05718091 L39.4339106,7.05718091 L28.0067017,25.7885859 Z"/>
</svg>
