<svg xmlns="http://www.w3.org/2000/svg" width="50" height="50" viewBox="0 0 50 50">
  <path d="M16.9400364,44.5502372 C17.2495716,44.7387656 17.6220045,44.8636364 17.9919611,44.8636364 C18.2386235,44.8636364 18.4248276,44.7999787 18.6739292,44.7387656 L25.5468506,42.1067143 C26.28924,41.8569728 26.7220941,41.1028342 26.7220941,40.3511777 L26.7220941,28.0013714 C26.7220941,27.3108904 26.9687566,26.6840922 27.3411647,26.1209766 L39.4761858,8.94795762 C39.9090523,8.38481698 39.9090523,7.63067838 39.5995171,7.00388011 C39.2899818,6.37708184 38.6709112,6 37.9285218,6 L4.86891568,6.00244827 C4.18694755,6.00244827 3.5074557,6.37950504 3.19792042,7.00632838 C2.88838514,7.63315172 2.95125795,8.38478314 3.32125166,8.9504059 L15.4562728,26.1873583 C15.8286809,26.7504989 16.0753434,27.3772721 16.0753434,28.0677531 L16.0753434,43.0469782 C16.1357993,43.6101188 16.3824581,44.173272 16.9410516,44.5502911 L16.9400364,44.5502372 Z M6.04315634,8.4454033 L36.6871491,8.4454033 L25.2974889,24.6174255 C24.5550995,25.5576229 24.1826667,26.8112194 24.1826667,28.0011332 L24.1826667,39.9103004 L18.548134,42.1040943 L18.548134,28.0011332 C18.548134,26.8112194 18.175726,25.5576229 17.4333118,24.6174255 L6.04315634,8.4454033 Z M41.8680634,29.2526654 L41.8680634,24.9325623 C41.8680634,24.4832361 41.6132335,24.3714516 41.3066221,24.7089933 L39.5228128,26.6728806 C38.5552746,27.7380931 37.1278195,26.1687564 38.0953576,25.1013219 L42.2244175,20.6124367 C42.5807818,20.2200969 43.1422129,20.2200969 43.498567,20.6124367 L47.6773696,25.1013219 C48.6449078,26.1665344 47.2194709,27.7380931 46.2499145,26.6728806 L44.4661052,24.706805 C44.1595142,24.3692633 43.9046639,24.4832361 43.9046639,24.9303739 L43.9046639,40.2492559 C43.9046639,40.6985821 44.1594938,40.8103666 44.4661052,40.4728248 L46.2499145,38.5089376 C47.2174526,37.4437251 48.6449078,39.0130618 47.6773696,40.0804963 L43.5483098,44.5693815 C43.1919455,44.9617213 42.6305144,44.9617213 42.2741603,44.5693815 L38.0953576,40.0804963 C37.1278195,39.0152838 38.5532564,37.4437251 39.5228128,38.5089376 L41.3066221,40.4728248 C41.6132131,40.8103666 41.8680634,40.6963938 41.8680634,40.2492559 L41.8680634,29.2526654 Z"/>
</svg>
