<svg xmlns="http://www.w3.org/2000/svg" width="50" height="50" viewBox="0 0 50 50">
  <path d="M26.0391493,3.00221207 C18.2868308,3.00221207 11.4513928,6.9950825 7.54404015,13.0291306 L7.54404015,13.0271333 C7.3802443,13.2548393 7.31632347,13.5364767 7.36625842,13.8121466 C7.41619695,14.0857968 7.5779949,14.3274778 7.8117048,14.4812896 C8.0454147,14.633097 8.3330431,14.685029 8.60473221,14.6211112 C8.87642131,14.5571933 9.11210509,14.3854129 9.25191785,14.1437268 C12.793541,8.67491683 18.9878276,5.04131576 26.0370169,5.04131576 C31.0008531,5.04131576 35.5192888,6.85100863 39.0047639,9.82318795 L39.0067613,9.82318795 C39.4402264,10.1887161 40.0874325,10.1347899 40.4529574,9.7053388 C40.8185027,9.27389342 40.7645689,8.62671256 40.3331033,8.26120481 C36.489876,4.98339598 31.4982216,3 26.0388712,3 L26.0391493,3.00221207 Z M25.9272879,8.94861607 L25.9272879,8.94661876 C25.361972,8.97857768 24.930532,9.45995568 24.9604981,10.0232508 C24.9924585,10.5865459 25.4738591,11.0179657 26.0391749,10.988001 C33.7516068,10.988001 39.9657344,17.1680886 39.9657344,24.8080595 C39.963737,24.8460109 39.963737,24.8819639 39.9657344,24.9199158 C39.9557469,28.5712093 39.5023084,32.118598 38.6393516,35.5041978 C38.5574511,35.7718551 38.5874172,36.0614591 38.7252458,36.3071592 C38.8630745,36.5508447 39.0967844,36.7286181 39.3684428,36.7965295 C39.6401063,36.864441 39.92977,36.8165036 40.1654589,36.6666945 C40.4031625,36.5148871 40.5669635,36.273201 40.6208922,35.9975515 C41.5277499,32.4401405 42.0031674,28.7211452 42.0111959,24.8876091 L42.0091985,24.8876091 C42.0111959,24.8616426 42.0111959,24.8336778 42.0091985,24.8077118 L42.0091985,24.7118351 L42.0091985,24.6958556 C41.9472771,15.996894 34.8101787,8.94598981 26.0371724,8.94598981 L26.0391703,8.94598981 C26.0012172,8.94399251 25.963263,8.94399251 25.9273088,8.94598981 L25.9272879,8.94861607 Z M20.2424248,10.0491789 L20.2404274,10.0471816 C20.1525337,10.0631611 20.0666445,10.0891276 19.984744,10.1270789 C14.1899371,12.4800734 10.0969584,18.1168082 10.0509354,24.6962545 C10.048938,24.7342058 10.048938,24.7701588 10.0509354,24.8081107 C10.048938,24.846062 10.048938,24.882015 10.0509354,24.9199669 C10.0209729,28.7949728 8.38500512,32.2786994 5.770234,34.7714949 C5.54251731,34.947269 5.39869544,35.2129268 5.37672202,35.5025615 C5.3547491,35.7901918 5.45662306,36.0738336 5.65837254,36.2835352 C5.85812258,36.4932675 6.13777878,36.607118 6.42741685,36.5971315 C6.71706004,36.5891417 6.98874403,36.4593093 7.17646673,36.2375962 C10.1847345,33.3712648 12.0743877,29.3462309 12.0963765,24.8883455 L12.0963765,24.8084482 L12.0963765,24.7125714 C12.1363275,18.9661024 15.7019205,14.0602808 20.7538139,12.0087739 L20.7518165,12.0087739 C21.2332222,11.8190198 21.4988721,11.3016893 21.3670418,10.802312 C21.2372006,10.3009559 20.7538109,9.97736288 20.2404499,10.0472634 L20.2424248,10.0491789 Z M43.4656301,12.4081561 L43.4636327,12.4061588 C43.1020811,12.4381177 42.7844866,12.6598308 42.6306675,12.9893962 C42.4748592,13.3169726 42.5068196,13.7024636 42.712568,14.0001162 C44.7520516,17.0881657 45.9425643,20.7754067 45.9545303,24.7444485 L45.9545303,24.8083664 C45.9525329,24.8463177 45.9525329,24.8822707 45.9545303,24.9202226 C45.9465402,28.24395 45.6009663,31.4919987 44.9637574,34.627552 L44.9657548,34.627552 C44.8538934,35.182819 45.2154449,35.7221321 45.7707482,35.8320196 C46.3260515,35.9419072 46.867374,35.5803419 46.9772667,35.027064 C47.6424524,31.7492552 47.994017,28.3596668 48,24.8881614 L48,24.8082641 L48,24.7123873 L48,24.6964079 C47.9780271,20.3420182 46.6636455,16.2812414 44.4224277,12.8833693 L44.4224277,12.8853666 C44.2186788,12.5577903 43.8471403,12.3720297 43.4636153,12.4059829 L43.4656301,12.4081561 Z M26.0413226,14.8789639 C20.5620289,14.8789639 16.0875707,19.2952772 16.0435932,24.7304919 L16.0415958,24.7284941 C16.0395984,24.7544606 16.0395984,24.7824254 16.0415958,24.8083914 C16.0395984,24.8463428 16.0395984,24.8822958 16.0415958,24.9202476 C16.0316083,26.8058237 15.7499583,28.6175108 15.2425854,30.3394573 C15.1646838,30.6011216 15.1926473,30.8807647 15.3224864,31.120431 C15.4543218,31.3601229 15.674051,31.5378963 15.9357173,31.6137949 C16.1973836,31.6896935 16.47705,31.6597359 16.7167276,31.5279046 C16.9544313,31.3960754 17.132213,31.1763565 17.2061208,30.9147025 C17.7694423,28.9971674 18.0770294,26.9817614 18.0850578,24.888529 C18.0870552,24.8625625 18.0870552,24.8345977 18.0850578,24.8086317 C18.0870552,24.7766728 18.0870552,24.7447139 18.0850578,24.712755 C18.1369922,20.3943127 21.6646244,16.9188699 26.0393662,16.9188699 C28.8538771,16.9188699 31.3008177,18.3630039 32.7152578,20.5382045 L32.7152578,20.5362067 C32.8630735,20.765912 33.0967834,20.9257066 33.3624435,20.9836315 C33.6301132,21.0395622 33.9077649,20.989624 34.1374708,20.8398164 C34.3651875,20.6920077 34.526989,20.460303 34.5829172,20.1926611 C34.6408448,19.9270032 34.5889099,19.6493595 34.4390953,19.4216586 C32.6592836,16.6851571 29.5551346,14.8795039 26.0373411,14.8795039 L26.0413226,14.8789639 Z M5.8541012,17.8112074 L5.8501064,17.8112074 C5.44061421,17.8591457 5.10105652,18.1487753 4.9891695,18.5442682 C4.3999217,20.4977506 4.07228909,22.573086 4.06231744,24.7120836 L4.06231744,24.7280631 L4.06231744,24.8079603 C4.06032004,24.8459117 4.06032004,24.8818647 4.06231744,24.9198166 C4.04433983,26.2181668 3.71275231,27.4345998 3.13546538,28.5071922 L3.13546538,28.5051949 C2.99763672,28.7468862 2.96367686,29.0304973 3.03958413,29.2981852 C3.11549139,29.563843 3.2972669,29.7855561 3.54296324,29.9153758 C3.78666013,30.0452108 4.07432433,30.0711768 4.33798497,29.9852865 C4.60165585,29.8993963 4.81939066,29.7116364 4.94124422,29.4619785 C5.67633378,28.0937277 6.09381352,26.5397573 6.10777383,24.8878648 L6.10577643,24.8878648 C6.10777383,24.8618983 6.10777383,24.8339335 6.10577643,24.8079675 C6.10777383,24.7760086 6.10777383,24.7440497 6.10577643,24.7120908 C6.11576394,22.772568 6.40340717,20.8990084 6.93674725,19.1333421 C7.04261549,18.8037664 6.97270246,18.4442056 6.7529723,18.1785631 C6.5352426,17.9109059 6.19568492,17.7730837 5.85010333,17.8110355 L5.8541012,17.8112074 Z M26.0413226,20.8233225 C23.8400426,20.8233225 22.0163046,22.6150161 22.0163046,24.808216 L22.0143072,24.808216 C22.0103119,25.0818662 22.1161816,25.3435407 22.3079441,25.5392826 C22.4997066,25.7330355 22.7633826,25.8428924 23.0370507,25.8428924 C23.3107188,25.8428924 23.5724005,25.7330355 23.7641629,25.5392826 C23.9559254,25.3435356 24.0617937,25.0818713 24.0577999,24.808216 C24.0577999,23.7236071 24.9346915,22.8627105 26.0373514,22.8627105 C27.1400113,22.8627105 28.0008971,23.7236071 28.0008971,24.808216 L28.0028944,24.808216 C28.0008971,24.8461674 28.0008971,24.8821204 28.0028944,24.9200722 C27.9889122,28.7930839 27.2697992,32.4961253 25.9754279,35.9200759 L25.9754279,35.9180786 C25.7776722,36.4474205 26.045342,37.0346465 26.5746985,37.2323827 C27.1040653,37.4301291 27.6933131,37.1644713 27.8910586,36.6371287 C29.2753281,32.9798524 30.0383894,29.0206795 30.0463667,24.888008 L30.0483641,24.888008 L30.0483641,24.8081107 L30.0483641,24.7122339 C30.0443693,24.680275 30.0383766,24.6483161 30.0323839,24.6163572 C29.9285151,22.5130513 28.1746911,20.8232172 26.0393263,20.8232172 L26.0413226,20.8233225 Z M34.8905226,23.7715199 L34.8865278,23.7715199 C34.3612008,23.8294448 33.9656587,24.278869 33.9776759,24.8081649 C33.9776759,32.8040303 31.4787804,40.2062269 27.1903062,46.2963182 L27.1883083,46.2963182 C26.9925521,46.5120435 26.9006646,46.8036673 26.932625,47.0932969 C26.9645854,47.3849208 27.1223881,47.6465697 27.3600968,47.8143924 C27.5998,47.9821741 27.9014296,48.0401041 28.1850847,47.9721876 C28.470729,47.9042762 28.712406,47.7165163 28.8502704,47.4588507 C33.3706494,41.0389434 36.021165,33.2292067 36.021165,24.8079041 C36.0271577,24.5142809 35.9073041,24.2326436 35.6895744,24.0329131 C35.4718447,23.8351667 35.1802072,23.7392899 34.8865754,23.7712489 L34.8905226,23.7715199 Z M22.5435747,28.0440436 L22.5415773,28.0440436 C22.1001247,28.1159486 21.7585727,28.4655025 21.6946519,28.9049401 C20.7897886,34.4995404 18.0531588,39.4953583 14.1238685,43.2665106 C13.9261128,43.4542705 13.8102576,43.7139354 13.8042644,43.9855607 C13.7982722,44.2592108 13.9021451,44.5228796 14.0919081,44.7186215 C14.2816712,44.9143686 14.5413534,45.0262248 14.8150317,45.0302235 C15.0886947,45.0322208 15.3523758,44.9263596 15.5461326,44.7346061 C19.7829076,40.6658524 22.7293,35.282948 23.7080558,29.2404116 L23.7060584,29.2404116 C23.7679798,28.9128353 23.6661074,28.5772513 23.4343949,28.3395792 C23.2026793,28.1018867 22.869079,27.9920247 22.5414976,28.0439618 L22.5435747,28.0440436 Z M14.0139789,34.4675303 L14.0119815,34.4675303 C13.6763971,34.4895022 13.3707789,34.6732639 13.1969653,34.9628936 C12.1502489,36.6906693 10.8438605,38.254662 9.33174934,39.5849711 C9.12800041,39.7647388 9.00415763,40.0184159 8.98817743,40.2880673 C8.97019931,40.5597181 9.06208525,40.8253862 9.24386075,41.0291051 C9.42363682,41.2328445 9.67732581,41.3546872 9.94898423,41.3706667 C10.2206478,41.3886435 10.4863283,41.294763 10.6900568,41.1149954 C12.3559871,39.6468794 13.8001888,37.9350575 14.9547524,36.029539 C15.1604957,35.7039569 15.1644946,35.2904955 14.9667378,34.9588897 C14.7669878,34.629314 14.3974333,34.4375759 14.011914,34.4675201 L14.0139789,34.4675303 Z M38.2261673,39.0096851 L38.2241694,39.0116824 C37.8166766,39.0396462 37.4631024,39.3092992 37.3312721,39.6967793 C36.7839563,41.186883 36.1487367,42.6409882 35.4476019,44.0491748 L35.4456045,44.0491748 C35.323756,44.290866 35.303782,44.5724829 35.3916706,44.8301484 C35.4775649,45.0898134 35.6633342,45.301545 35.9070259,45.4234082 C36.1507228,45.5432516 36.4343472,45.5612304 36.692076,45.4753402 C36.9497588,45.3874506 37.1634947,45.20169 37.2833182,44.9560205 C38.0184077,43.4819219 38.6756161,41.957865 39.2468638,40.3978608 C39.3727061,40.0722787 39.3247654,39.7047358 39.1170227,39.4251336 C38.90928,39.1434963 38.5736957,38.9876953 38.2241254,39.011667 L38.2261673,39.0096851 Z M24.4110857,40.5077657 L24.4090883,40.509763 C24.0355503,40.499776 23.6859648,40.6955236 23.5002364,41.0191063 C22.4874747,42.6969239 21.3169565,44.2809101 20.0185454,45.7370607 L20.016548,45.7370607 C19.6450094,46.1605138 19.6869568,46.8036704 20.1084355,47.1772062 C20.5299141,47.550742 21.1750952,47.5127748 21.5506428,47.0933153 C22.9309237,45.5433334 24.1634196,43.8574877 25.240051,42.0717768 C25.4338129,41.7621742 25.4477937,41.3726691 25.2780036,41.0510857 C25.1062151,40.7294972 24.7746245,40.5217438 24.4090894,40.5097784 L24.4110857,40.5077657 Z"/>
</svg>
