<svg xmlns="http://www.w3.org/2000/svg" width="50" height="50" viewBox="0 0 50 50">
  <path fill-rule="evenodd" d="M41.5230583,25.274639 L33.7869679,8.3729172 C30.4868372,1.23885293 20.2536408,1.20062335 16.8976848,8.30920123 L8.88890963,25.274639 L8.97694175,25.274639 C8.3478342,27.0459428 8,28.9510502 8,30.9389883 C8,40.3625796 15.7232076,48 25.25,48 C34.7767924,48 42.5,40.3625796 42.5,30.9389883 C42.5,28.9510502 42.1521658,27.0459428 41.5230583,25.274639 Z M22.271938,10.0826289 C22.271938,8.46211955 23.6117438,7.13682747 25.25,7.13682747 C26.8882562,7.13682747 28.228062,8.46211955 28.228062,10.0826289 L28.228062,13.7080674 C28.228062,15.3285768 26.8882562,16.6538688 25.25,16.6538688 C23.6117438,16.6538688 22.271938,15.3285768 22.271938,13.7080674 L22.271938,10.0826289 Z M25.25,44.2832353 C18.2933159,44.2832353 12.6528193,38.7038406 12.6528193,31.8225164 C12.6528193,24.9390682 18.2933159,19.3596735 25.25,19.3596735 C32.2088312,19.3596735 37.8471807,24.9390682 37.8471807,31.8225164 C37.8471807,38.7038406 32.2088312,44.2832353 25.25,44.2832353 Z"/>
</svg>
