<svg xmlns="http://www.w3.org/2000/svg" width="50" height="50" viewBox="0 0 50 50">
  <path fill-rule="evenodd" d="M41.3875176,25.5752169 L33.6827552,8.92754132 C30.3959886,1.90279959 20.2042324,1.86305269 16.8618667,8.866875 L8.88552376,25.5752169 L8.97319938,25.5752169 C8.34663946,27.3219886 8.00021384,29.1963688 8.00021384,31.1544267 C8.00021384,40.436374 15.6921457,47.9589979 25.1803585,47.9589979 C34.6685713,47.9589979 42.3605031,40.436374 42.3605031,31.1544267 C42.3605031,29.1963688 42.0140775,27.3219886 41.3875176,25.5752169 Z M22.2143564,10.6136467 C22.2143564,9.01749483 23.5487366,7.71212293 25.1803585,7.71212293 C26.8119804,7.71212293 28.1463605,9.01749483 28.1463605,10.6136467 L28.1463605,14.1845919 C28.1463605,15.7786519 26.8119804,17.0840238 25.1803585,17.0840238 C23.5487366,17.0840238 22.2143564,15.7786519 22.2143564,14.1845919 L22.2143564,10.6136467 Z M25.1803585,44.2980992 C18.2518461,44.2980992 12.6341911,38.8025671 12.6341911,32.0246746 C12.6341911,25.246782 18.2518461,19.75125 25.1803585,19.75125 C32.1110093,19.75125 37.7265258,25.246782 37.7265258,32.0246746 C37.7265258,38.8025671 32.1110093,44.2980992 25.1803585,44.2980992 Z M22.8329091,29.2145455 C23.1172727,28.3472727 24.054,27.84 25.0910909,27.84 C26.3623636,27.84 27.3994545,28.6254545 27.3994545,29.8690909 C27.3994545,30.5890909 27.0481818,31.2436364 26.4961818,31.8818182 L22.0801818,37.1018182 C21.9965455,37.2 21.8794545,37.3309091 21.8794545,37.4781818 C21.8794545,37.6418182 21.9965455,37.7727273 22.2307273,37.7727273 L28.0350909,37.7727273 C28.3529091,37.7727273 28.6038182,37.5436364 28.6038182,37.2327273 C28.6038182,36.9218182 28.3529091,36.6927273 28.0350909,36.6927273 L23.8030909,36.6927273 L27.2990909,32.6509091 C28.0016364,31.8654545 28.5034545,30.9 28.5034545,29.8690909 C28.5034545,28.02 26.9812727,26.76 25.0910909,26.76 C23.5689091,26.76 22.2976364,27.5454545 21.846,28.8545455 C21.7289091,29.1327273 21.8627273,29.4436364 22.1470909,29.5254545 C22.4314545,29.64 22.7492727,29.4763636 22.8329091,29.2145455 Z"/>
</svg>
