<svg xmlns="http://www.w3.org/2000/svg" width="50" height="50" viewBox="0 0 50 50">
  <path fill-rule="evenodd" d="M15.6730137,36.9999534 L15.6730137,37 C14.5872709,37 13.7078034,36.0518253 13.7096804,34.8813179 C13.7096804,33.7128288 14.5891431,32.7647059 15.6730137,32.7647059 L35.3269893,32.7667294 C36.4108599,32.7667294 37.2903226,33.712834 37.2903226,34.8833414 C37.2903226,36.0518305 36.4108599,36.9999534 35.3269893,36.9999534 L15.6730137,36.9999534 Z M41.3322965,29.7959372 C40.3512115,30.1976447 39.2289561,29.7377727 38.823697,28.7653549 C38.4184284,27.7947054 38.8842079,26.6823158 39.8634152,26.2787983 L44.3451228,24.4393569 C45.324377,24.0376494 46.4484632,24.4975214 46.8537224,25.4699392 C47.2589909,26.4405887 46.7932114,27.5529783 45.8140042,27.9564958 L41.3322965,29.7959372 Z M17.0397518,20.2595833 L15.2395207,15.7105455 C14.8440352,14.7108518 15.298571,13.5651769 16.2541406,13.1495851 C17.2097561,12.7358576 18.3067073,13.2094901 18.7021837,14.2110049 L20.5024148,18.7600427 C20.8979003,19.7597364 20.4433645,20.9054113 19.4877949,21.3210031 C18.5321794,21.7347306 17.4352282,21.2610982 17.0397518,20.2595833 Z M5.18113362,27.9441473 C4.200135,27.5381472 3.73902666,26.4252521 4.15053318,25.4591946 C4.5620397,24.493137 5.68820371,24.0363846 6.66918822,24.4423847 L11.1424757,26.2911468 C12.1216355,26.6971469 12.5827438,27.8082417 12.1730761,28.7760995 C11.7615696,29.7421571 10.6354056,30.1989095 9.6544211,29.7929094 L5.18113362,27.9441473 Z M31.5122025,21.32122 C30.5566359,20.9073759 30.102104,19.7594653 30.497581,18.7595377 L32.297815,14.2110872 C32.6933011,13.2111644 33.7902908,12.7355337 34.745862,13.1493682 C35.7014286,13.5632124 36.1559605,14.7111229 35.7604835,15.7110505 L33.9602495,20.259501 C33.5647634,21.2594238 32.4677737,21.7350546 31.5122025,21.32122 Z"/>
</svg>
