<svg xmlns="http://www.w3.org/2000/svg" width="39" height="45" viewBox="0 0 39 45">
  <path fill="#060606" fill-rule="evenodd" d="M27.6858232,32.778125 L40.9765061,32.778125 C42.9021018,32.778125 44.4784573,34.3424765 44.4784573,36.256875 C44.4784573,38.1723384 42.9029235,39.73375 40.9765061,39.73375 L27.429658,39.73375 C26.3748456,44.5547449 22.1102276,48.000375 17.0834451,48.000375 C11.2369207,48.000375 6.48106707,43.281 6.48106707,37.4835 C6.48106707,37.416 6.4867378,37.356 6.49051829,37.29225 L6.49618902,37.185375 C6.4867378,37.101 6.47728659,36.9585 6.47728659,36.816 L6.47728659,8.19225 C6.47728659,5.55225 8.64161585,3.405375 11.3030793,3.405375 L22.8581402,3.405375 C25.5196037,3.405375 27.6858232,5.55225 27.6858232,8.19225 L27.6858232,32.778125 Z M40.9765061,34.028125 L23.0216504,34.028125 L22.8519357,33.6720083 C21.8454359,31.5600445 19.7070896,30.184375 17.3144329,30.184375 C13.9302425,30.184375 11.1874817,32.9044907 11.1874817,36.256875 C11.1874817,39.6096714 13.9306566,42.33125 17.3144329,42.33125 C19.7067527,42.33125 21.8451889,40.9540945 22.8518495,38.8400477 L23.0215103,38.48375 L40.9765061,38.48375 C42.2150745,38.48375 43.2284573,37.4794505 43.2284573,36.256875 C43.2284573,35.0349805 42.2138758,34.028125 40.9765061,34.028125 Z" transform="translate(-6 -3)"/>
</svg>
