<svg xmlns="http://www.w3.org/2000/svg" width="50" height="50" viewBox="0 0 50 50">
  <path d="M25.6823238,43.4785811 C27.4213026,40.8836636 29.1601738,38.1563343 30.7806639,35.4293592 C31.7923257,33.7269258 32.725929,32.077019 33.5651869,30.4984244 C36.4006683,25.1650507 38,20.9254191 38,18.4693406 C38,10.9815884 32.1991929,5 25,5 C17.8008071,5 12,10.9815884 12,18.4693406 C12,20.9254191 13.5993317,25.1650507 16.4348131,30.4984244 C17.274071,32.077019 18.2076743,33.7269258 19.2193361,35.4293592 C20.8398262,38.1563343 22.5786974,40.8836636 24.3176762,43.4785811 C24.5518817,43.8280644 24.7796025,44.1654183 25,44.489708 C25.2203975,44.1654183 25.4481183,43.8280644 25.6823238,43.4785811 Z M25,3 C33.3168252,3 40,9.88958721 40,18.4693406 C40,27.0463941 25,48 25,48 C25,48 10,27.0463941 10,18.4693406 C10,9.88958721 16.6831748,3 25,3 Z M25,23.49865 C27.6995395,23.49865 29.8186578,21.3137793 29.8186578,18.4666407 C29.8186578,15.6194872 27.6995257,13.4346313 25,13.4346313 C22.299921,13.4346313 20.1813422,15.6200818 20.1813422,18.4666407 C20.1813422,21.3137942 22.3004743,23.49865 25,23.49865 Z M25,25.49865 C21.182913,25.49865 18.1813422,22.4058619 18.1813422,18.4666407 C18.1813422,14.5301194 21.180295,11.4346313 25,11.4346313 C28.817087,11.4346313 31.8186578,14.5274195 31.8186578,18.4666407 C31.8186578,22.4057944 28.8171525,25.49865 25,25.49865 Z"/>
</svg>
