<svg xmlns="http://www.w3.org/2000/svg" width="50" height="50" viewBox="0 0 50 50">
  <path d="M37.9654765,20.0817757 L34.9855573,20.0817757 L34.9855573,13.3510514 C34.9855573,7.63432357 30.3333406,3 24.5945405,3 C18.8557403,3 14.2035236,7.63432357 14.2035236,13.3510514 L14.2035236,20.0817757 L11.2218453,20.0817757 C8.8929916,20.0885126 7.00676295,21.9674866 7,24.2873832 L7,43.7943925 C7.00580141,46.1146874 8.8925918,47.9942209 11.2218453,48 L37.9601992,48 C40.2890529,47.9932631 42.1752816,46.1142891 42.1820445,43.7943925 L42.1820445,24.2926402 C42.1752816,21.9727436 40.2890529,20.0937696 37.9601992,20.0870327 L37.9654765,20.0817757 Z M16.6961715,13.3510514 C16.6536414,10.5124196 18.1495235,7.87109658 20.6104981,6.43940962 C23.0714727,5.00772266 26.1158491,5.00772266 28.5768237,6.43940962 C31.0377983,7.87109658 32.5336804,10.5124196 32.4911504,13.3510514 L32.4911504,20.0817757 L16.6961715,20.0817757 L16.6961715,13.3510514 Z M39.6999513,43.7943925 C39.6989805,44.7489156 38.9219263,45.5221968 37.9637174,45.5221963 L11.2253635,45.5221963 C10.2671546,45.5221968 9.49010048,44.7489156 9.48912965,43.7943925 L9.48912965,24.2926402 C9.49010048,23.3381171 10.2671546,22.564836 11.2253635,22.5648364 L37.9637174,22.5648364 C38.9219263,22.564836 39.6989805,23.3381171 39.6999513,24.2926402 L39.6999513,43.7943925 Z"/>
</svg>
