<svg xmlns="http://www.w3.org/2000/svg" width="50" height="50" viewBox="0 0 50 50">
  <path fill="#040404" d="M37.1647443,14.5383093 C37.1647443,8.17740864 31.9302652,3.00000054 25.4992478,3.00000054 C19.0682303,2.99806311 13.8337512,8.17344051 13.8337512,14.5363253 L13.8337512,21.4592113 C10.6171894,21.4592113 8,24.0458321 8,27.2293577 L8,42.2298536 C8,45.4113456 10.6151333,48 13.8337512,48 L37.1662488,48 C40.3828106,48 43,45.4133792 43,42.2298536 L43,27.2293577 C42.9980407,24.0478658 40.3828607,21.4611954 37.1642428,21.4611954 L37.1647443,14.5383093 Z M16.1651455,14.5363253 C16.1651455,9.44621587 20.3533306,5.30399179 25.4992478,5.30399179 C30.645165,5.30399179 34.83335,9.44651348 34.83335,14.5363253 L34.83335,21.4592113 L16.164644,21.4611488 L16.1651455,14.5363253 Z"/>
</svg>
