<svg xmlns="http://www.w3.org/2000/svg" width="50" height="50" viewBox="0 0 50 50">
  <path d="M41.4628214,8 C41.211051,8.00191525 40.968581,8.1053439 40.7914527,8.29113733 L17.1732339,32.5627965 C17.0370886,32.6987864 16.9438408,32.8750036 16.9046769,33.0684316 L15.546948,39.9944353 C15.4816731,40.3162187 15.5767876,40.6513882 15.8024519,40.8850826 C16.0262495,41.1187574 16.350738,41.222189 16.6659404,41.1589797 L23.4245065,39.7645606 C23.611002,39.7281684 23.7807158,39.638147 23.9168372,39.5040693 L47.5498565,15.2324102 C47.7307613,15.048534 47.8333333,14.7957066 47.8333333,14.5352006 C47.8333333,14.2727921 47.7307613,14.0218673 47.5498565,13.8379911 L42.1491148,8.29130404 C42.0129695,8.1553141 41.8432605,8.06528831 41.6567841,8.03081275 C41.593376,8.01357448 41.5281011,8.00399722 41.4628262,8.00016671 L41.4628214,8 Z M41.4777413,10.3750922 L45.5210405,14.5276543 L44.1633116,15.9220734 L40.1200124,11.7542128 L41.4777413,10.3750922 Z M38.7772749,13.1485338 L42.8205742,17.3010959 L23.5742252,37.0675429 L19.530926,32.9149807 L38.7772749,13.1485338 Z M18.5311776,34.6620499 L21.8583248,38.0791072 L17.7106106,38.9371962 L18.5311776,34.6620499 Z M3.4323042,38.2476359 C2.64157679,38.2476359 2,38.9065501 2,39.7186455 C2,40.5307409 2.64157679,41.1896552 3.4323042,41.1896552 L12.0261294,41.1896552 C12.8168568,41.1896552 13.4584336,40.5307409 13.4584336,39.7186455 C13.4584336,38.9065501 12.8168568,38.2476359 12.0261294,38.2476359 L3.4323042,38.2476359 Z"/>
</svg>
