<svg xmlns="http://www.w3.org/2000/svg" width="50" height="50" viewBox="0 0 50 50">
  <path d="M7.5791594,8 C6.154729,8 5,9.18189909 5,10.6398455 C5,12.0977919 6.154729,13.279691 7.5791594,13.279691 C9.00358981,13.279691 10.1583188,12.0977919 10.1583188,10.6398455 C10.1583188,9.18189909 9.00358981,8 7.5791594,8 Z M15.221299,9.58356491 C14.6650876,9.62868567 14.2442414,10.1174684 14.2704373,10.6879226 C14.2966332,11.2583769 14.760416,11.7046022 15.3183102,11.6961261 L43.1789186,11.6961261 C43.7488755,11.6961261 44.2109169,11.2232132 44.2109169,10.6398455 C44.2109169,10.0564778 43.7488755,9.58356491 43.1789186,9.58356491 L15.3183102,9.58356491 C15.2860049,9.58148979 15.2536043,9.58148979 15.221299,9.58356491 Z M7.5791594,17.5048134 C6.154729,17.5048134 5,18.6867125 5,20.1446589 C5,21.6026053 6.154729,22.7845044 7.5791594,22.7845044 C9.00358981,22.7845044 10.1583188,21.6026053 10.1583188,20.1446589 C10.1583188,19.4445283 9.88658672,18.7730733 9.40290051,18.2780062 C8.91921429,17.7829392 8.26319501,17.5048134 7.5791594,17.5048134 Z M15.221299,19.0883783 C14.6650876,19.1334991 14.2442414,19.6222818 14.2704373,20.192736 C14.2966332,20.7631902 14.760416,21.2094156 15.3183102,21.2009395 L43.1789186,21.2009395 C43.5476161,21.2009395 43.8883067,20.9996136 44.0726554,20.6727992 C44.2570042,20.3459849 44.2570042,19.9433329 44.0726554,19.6165186 C43.8883067,19.2897042 43.5476161,19.0883783 43.1789186,19.0883783 L15.3183102,19.0883783 C15.2860048,19.0863077 15.2536045,19.0863077 15.221299,19.0883783 Z M7.5791594,27.0027789 C6.154729,27.0027789 5,28.184678 5,29.6426244 C5,31.1005709 6.154729,32.2824699 7.5791594,32.2824699 C9.00358981,32.2824699 10.1583188,31.1005709 10.1583188,29.6426244 C10.1583188,28.184678 9.00358981,27.0027789 7.5791594,27.0027789 Z M15.221299,28.5863438 C14.6650876,28.6314646 14.2442414,29.1202473 14.2704373,29.6907015 C14.2966332,30.2611558 14.760416,30.7073812 15.3183102,30.698905 L43.1789186,30.698905 C43.7488755,30.698905 44.2109169,30.2259921 44.2109169,29.6426244 C44.2109169,29.0592568 43.7488755,28.5863438 43.1789186,28.5863438 L15.3183102,28.5863438 C15.2860048,28.5842732 15.2536045,28.5842732 15.221299,28.5863438 Z M7.5791594,36.5075923 C6.1562558,36.5085478 5.00291636,37.6887843 5.00169309,39.1451678 C5.00046981,40.6015512 6.15182488,41.7838157 7.57472477,41.7872753 C8.99762467,41.7907349 10.1544545,40.6140826 10.1599914,39.1577096 C10.1604355,38.4569858 9.88866985,37.7848311 9.40457366,37.2893444 C8.92047746,36.7938577 8.26377466,36.5156976 7.5791594,36.5161521 L7.5791594,36.5075923 Z M15.221299,38.0911572 C14.6650876,38.136278 14.2442414,38.6250607 14.2704373,39.1955149 C14.2966332,39.7659692 14.760416,40.2121946 15.3183102,40.2037184 L43.1789186,40.2037184 C43.7488755,40.2037184 44.2109169,39.7308055 44.2109169,39.1474378 C44.2109169,38.5640702 43.7488755,38.0911572 43.1789186,38.0911572 L15.3183102,38.0911572 C15.2860051,38.0890776 15.2536042,38.0890776 15.221299,38.0911572 Z"/>
</svg>
