<svg xmlns="http://www.w3.org/2000/svg" width="50" height="50" viewBox="0 0 50 50">
  <path d="M10.6583188,10.6398455 C10.6583188,12.3713652 9.28236826,13.779691 7.5791594,13.779691 C5.87595054,13.779691 4.5,12.3713652 4.5,10.6398455 C4.5,8.90832585 5.87595054,7.5 7.5791594,7.5 C9.28236826,7.5 10.6583188,8.90832585 10.6583188,10.6398455 Z M15.180871,9.08520201 C15.2428985,9.081147 15.2967107,9.081147 15.3183102,9.08356491 L43.1789186,9.08356491 C44.027654,9.08356491 44.7109169,9.7829046 44.7109169,10.6398455 C44.7109169,11.4967864 44.027654,12.1961261 43.1789186,12.1961261 L15.3259059,12.1960684 C14.4953538,12.208687 13.8094401,11.54874 13.7709637,10.710859 C13.7325246,9.8737931 14.3537361,9.15230052 15.180871,9.08520201 Z M9.76054081,17.9285876 C10.3357869,18.5173688 10.6583188,19.3143512 10.6583188,20.1446589 C10.6583188,21.8761786 9.28236826,23.2845044 7.5791594,23.2845044 C5.87595054,23.2845044 4.5,21.8761786 4.5,20.1446589 C4.5,18.4131392 5.87595054,17.0048134 7.5791594,17.0048134 C8.39826803,17.0048134 9.18308443,17.337544 9.76054081,17.9285876 Z M15.180871,18.5900154 C15.2429218,18.5859664 15.2966874,18.5859664 15.3183102,18.5883783 L43.1789186,18.5883783 C43.729026,18.5883783 44.2356347,18.887751 44.5081493,19.3708661 C44.7785062,19.8501563 44.7785062,20.4391615 44.5081493,20.9184517 C44.2356347,21.4015668 43.729026,21.7009395 43.1789186,21.7009395 L15.3259059,21.7008818 C14.4953538,21.7135004 13.8094401,21.0535534 13.7709637,20.2156724 C13.7325246,19.3786065 14.3537361,18.6571139 15.180871,18.5900154 Z M10.6583188,29.6426244 C10.6583188,31.3741441 9.28236826,32.7824699 7.5791594,32.7824699 C5.87595054,32.7824699 4.5,31.3741441 4.5,29.6426244 C4.5,27.9111048 5.87595054,26.5027789 7.5791594,26.5027789 C9.28236826,26.5027789 10.6583188,27.9111048 10.6583188,29.6426244 Z M15.180871,28.087981 C15.2429218,28.0839319 15.2966874,28.0839319 15.3183102,28.0863438 L43.1789186,28.0863438 C44.027654,28.0863438 44.7109169,28.7856835 44.7109169,29.6426244 C44.7109169,30.4995653 44.027654,31.198905 43.1789186,31.198905 L15.3259059,31.1988473 C14.4953538,31.211466 13.8094401,30.551519 13.7709637,29.7136379 C13.7325246,28.876572 14.3537361,28.1550795 15.180871,28.087981 Z M9.76221395,36.9399257 C10.337947,37.5292054 10.660518,38.3270163 10.6599878,39.1596105 C10.6534118,40.889292 9.27491407,42.2914106 7.57350908,42.2872738 C5.87214799,42.2831372 4.50024046,40.8743993 4.50169326,39.1447478 C4.50314608,37.415081 5.87744217,36.0087349 7.57882364,36.0075924 C8.39863266,36.0156085 9.18426792,36.348381 9.76221395,36.9399257 Z M15.180871,37.5927943 C15.2428751,37.5887333 15.2967341,37.5887333 15.3183102,37.5911572 L43.1789186,37.5911572 C44.027654,37.5911572 44.7109169,38.2904969 44.7109169,39.1474378 C44.7109169,40.0043787 44.027654,40.7037184 43.1789186,40.7037184 L15.3259059,40.7036607 C14.4953538,40.7162794 13.8094401,40.0563324 13.7709637,39.2184513 C13.7325246,38.3813854 14.3537361,37.6598929 15.180871,37.5927943 Z"/>
</svg>
