<svg xmlns="http://www.w3.org/2000/svg" width="50" height="50" viewBox="0 0 50 50">
  <path d="M45.0604795,21.3852763 C44.9443061,21.3862116 44.8324241,21.4367227 44.7506925,21.527458 L33.8526299,33.380919 C33.789809,33.4473319 33.746782,33.5333904 33.7287107,33.6278541 L33.1022192,37.0102811 C33.0720996,37.1674292 33.115988,37.3311148 33.2201154,37.4452432 C33.3233814,37.5593621 33.4731089,37.6098746 33.6185515,37.5790054 L36.7371303,36.898018 C36.8231842,36.8802453 36.9014945,36.8362819 36.9643045,36.7708029 L47.8691964,24.9173419 C47.9526706,24.8275429 48,24.7040706 48,24.5768482 C48,24.4486967 47.9526706,24.3261535 47.8691964,24.2363545 L45.3771532,21.5275394 C45.3143322,21.4611265 45.2360241,21.4171609 45.149979,21.4003242 C45.1207208,21.3919056 45.0906013,21.3872284 45.0604818,21.3853577 L45.0604795,21.3852763 Z M45.0673639,22.5451913 L46.9330478,24.5731629 L46.3065562,25.2541502 L44.4408724,23.2187074 L45.0673639,22.5451913 Z M43.8212983,23.8996468 L45.6869821,25.9276183 L36.8062144,35.5808854 L34.9405306,33.5529139 L43.8212983,23.8996468 Z M34.4792206,34.4061236 L36.0144532,36.0748993 L34.1005896,36.4939611 L34.4792206,34.4061236 Z M17.5637116,12 L17.5637116,12.0001792 C22.4351884,16.4823996 27.3077292,20.883249 32.0834434,25.3529232 L29.2460343,25.3529232 L29.2460343,37.8095098 L20.0244547,37.7871059 L20.0244547,30.5841519 L15.0589887,30.5729499 L15.0589887,37.7981286 L5.83740911,37.8093306 L5.83740911,25.3527439 L3,25.3527439 C7.82536887,20.9210668 12.6287478,16.4263002 17.5637116,12 Z"/>
</svg>
