<svg xmlns="http://www.w3.org/2000/svg" width="50" height="50" viewBox="0 0 50 50">
  <path d="M14.25,24.625 C14.25,27.731035 11.731035,30.25 8.625,30.25 C5.518965,30.25 3,27.731035 3,24.625 C3,21.518965 5.518965,19 8.625,19 C11.731035,19 14.25,21.518965 14.25,24.625 Z M31.125,24.625 C31.125,27.731035 28.606035,30.25 25.5,30.25 C22.393965,30.25 19.875,27.731035 19.875,24.625 C19.875,21.518965 22.393965,19 25.5,19 C28.606035,19 31.125,21.518965 31.125,24.625 Z M48,24.625 C48,27.731035 45.481035,30.25 42.375,30.25 C39.268965,30.25 36.75,27.731035 36.75,24.625 C36.75,21.518965 39.268965,19 42.375,19 C45.481035,19 48,21.518965 48,24.625 Z"/>
</svg>
