<svg xmlns="http://www.w3.org/2000/svg" width="50" height="50" viewBox="0 0 50 50">
  <path fill-rule="evenodd" d="M25.9348189,40.6472308 L25.9348189,43.4119038 C25.9348189,45.5909423 24.1695831,47.3753654 22.012263,47.3753654 L15.3023127,47.3753654 C13.1467047,47.3753654 11.381469,45.5909423 11.381469,43.4119038 L11.381469,7.33748077 C11.381469,5.15844231 13.1467047,3.37401923 15.3023127,3.37401923 L22.012263,3.37401923 C24.1695831,3.37401923 25.9348189,5.15844231 25.9348189,7.33748077 L25.9348189,35.5091538 L35.3619653,35.5091538 C36.7647692,35.5091538 37.907871,36.666067 37.907871,38.0764615 C37.907871,39.4896283 36.7654571,40.6472308 35.3619653,40.6472308 L25.9348189,40.6472308 Z M35.3619653,36.663 L22.9701821,36.663 L22.8147537,36.3302158 C22.1500619,34.9070589 20.7378383,33.9820385 19.1598065,33.9820385 C16.9266144,33.9820385 15.1139007,35.813518 15.1139007,38.0764615 C15.1139007,40.3427919 16.9265456,42.1760769 19.1598065,42.1760769 C20.7362402,42.1760769 22.1494099,41.2491648 22.8148561,39.8259496 L22.9703521,39.4933846 L35.3619653,39.4933846 C36.1247693,39.4933846 36.7540248,38.855763 36.7540248,38.0764615 C36.7540248,37.3002373 36.1243949,36.663 35.3619653,36.663 Z"/>
</svg>
