<svg xmlns="http://www.w3.org/2000/svg" width="50" height="50" viewBox="0 0 50 50">
  <path d="M39.9879813,3 L9.36916155,3 C8.06198906,3 7,4.04884534 7,5.3398396 L7,45.6601604 C7,46.9511547 8.06396349,48 9.36916155,48 L39.9879813,48 C41.2931794,48 42.3571429,46.9492047 42.3571429,45.6601604 L42.3571429,5.3398396 C42.3571429,4.04884534 41.2951538,3 39.9879813,3 Z M40.5357585,45.6598104 C40.5357585,45.9586391 40.2905396,46.198858 39.9899557,46.198858 L9.37113598,46.198858 C9.06856251,46.198858 8.82533324,45.9566691 8.82533324,45.6598104 L8.82533324,5.3394896 C8.82533324,5.04066093 9.07055718,4.800442 9.37113598,4.800442 L39.9899557,4.800442 C40.2905497,4.800442 40.5357585,5.04263092 40.5357585,5.3394896 L40.5357585,45.6598104 Z M35.394343,29.1290323 L13.9627998,29.1290323 C13.3727018,29.1290323 12.8928571,29.7800136 12.8928571,30.5806452 C12.8928571,31.3812767 13.3726771,32.0322581 13.9627998,32.0322581 L35.394343,32.0322581 C35.984441,32.0322581 36.4642857,31.3812767 36.4642857,30.5806452 C36.4642857,29.7800136 35.9864024,29.1290323 35.394343,29.1290323 Z M35.394343,33.483871 L13.9627998,33.483871 C13.3727018,33.483871 12.8928571,34.1348524 12.8928571,34.9354839 C12.8928571,35.7361154 13.3726771,36.3870968 13.9627998,36.3870968 L35.394343,36.3870968 C35.984441,36.3870968 36.4642857,35.7361154 36.4642857,34.9354839 C36.4642857,34.1348524 35.9864024,33.483871 35.394343,33.483871 Z M35.394343,39.2903226 L13.9627998,39.2903226 C13.3727018,39.2903226 12.8928571,39.941304 12.8928571,40.7419355 C12.8928571,41.5425334 13.3726771,42.1935484 13.9627998,42.1935484 L35.394343,42.1935484 C35.984441,42.1935484 36.4642857,41.542567 36.4642857,40.7419355 C36.4642857,39.9413376 35.9864024,39.2903226 35.394343,39.2903226 Z M17.6555883,22.1934508 C19.9865138,23.257064 23.6927376,23.3181257 23.6927376,23.3181257 C27.4453175,23.3988825 30.1209552,22.3549542 30.1209552,22.3549542 C30.5177885,22.0989035 30.5293431,21.8979999 30.5293431,21.8979999 C30.8067402,19.4477667 29.6220446,18.5732381 29.6220446,18.5732381 C29.2656644,17.7656706 27.094648,17.0664611 27.094648,17.0664611 C26.2836619,16.7749583 26.0370866,16.4834756 25.9619304,16.3337711 C25.9522987,16.316044 25.9465195,16.300287 25.9407403,16.2864999 L25.9407403,16.2805909 C25.9407403,16.2805909 25.934961,16.2628644 25.9291823,16.2352893 L25.9291823,16.2333198 C25.8983604,16.117111 25.8213056,15.8236366 25.8213056,15.7527324 C25.8213056,15.7527324 25.8174526,15.776368 25.8078209,15.8177321 C25.8020417,15.7468279 25.8001154,15.6700092 25.8039684,15.5892575 C25.8039684,15.5892575 25.7981892,15.597136 25.7847045,15.608954 C26.0543986,15.2563895 26.2720753,14.8526159 26.416529,14.4429327 C26.6631042,14.1908199 26.7902434,13.5762699 26.7902434,13.5762699 C26.9539842,13.1055301 26.9058231,12.8672281 26.830697,12.7451047 C26.8538135,12.6742005 27.248721,11.4274123 26.6919984,10.4682242 C26.6919984,10.4682242 26.4935842,9.56021498 25.4475823,9.15643123 C24.4805633,8.55176406 23.0396267,8.91416603 23.0396267,8.91416603 C21.2827778,9.2174879 20.907145,11.3309187 20.907145,11.3309187 C20.8031198,12.2960566 21.0554748,12.8987573 21.0651061,12.924372 C20.9745686,13.1528466 21.1383093,13.7496378 21.1383093,13.7496378 C21.1941734,14.1140214 21.3694737,14.2262872 21.419558,14.2499252 C21.5409175,14.7029416 21.7528193,15.1441187 22.0186373,15.5262207 L22.0128586,15.5203122 C22.0128586,15.5203122 22.0417538,15.6680351 22.0147849,15.8768147 C22.0109319,15.8551487 22.0090056,15.8433306 22.0090056,15.8433306 C22.0090056,15.9280254 21.9088369,16.2372568 21.8953492,16.2766519 C21.893423,16.2786214 21.893423,16.2805909 21.8914967,16.2825604 C21.8105904,16.3948313 21.7277559,16.4952831 21.6487729,16.5878538 C20.9938197,17.1038782 19.419979,17.5923718 19.419979,17.5923718 C18.7361271,17.8622131 18.4452175,18.2659666 18.4452175,18.2659666 C17.4319411,19.8003247 17.3125,21.3346323 17.3125,21.3346323 C17.327911,22.1106857 17.6553925,22.1933787 17.6553925,22.1933787 L17.6555883,22.1934508 Z"/>
</svg>
