<svg xmlns="http://www.w3.org/2000/svg" width="50" height="50" viewBox="0 0 50 50">
  <path d="M44.7647059,22.4622006 L47.4986447,19.7282618 C47.8422095,19.384697 48.3987616,19.384697 48.7423264,19.7282618 C49.0858912,20.0718266 49.0858912,20.6283788 48.7423264,20.9719436 L44.7647059,24.9495641 L44.7647059,25.28573 L48.7423264,29.2633505 C49.0858912,29.6069154 49.0858912,30.1634675 48.7423264,30.5070323 C48.3987616,30.8505971 47.8422095,30.8505971 47.4986447,30.5070323 L44.7647059,27.7730935 L44.7647059,34.2171201 C44.7541625,36.9843825 42.4173443,39.225184 39.5315066,39.2352941 L6.23319928,39.2352941 C3.34736161,39.225184 1.01054335,36.9843825 1,34.2171201 L1,16.018174 C1.01054335,13.2509116 3.34736161,11.0101101 6.23319928,11 L39.5315066,11 C42.4173443,11.0101101 44.7541625,13.2509116 44.7647059,16.018174 L44.7647059,22.4622006 Z M43.6716525,23.5552541 L43.6716525,15.9628701 C43.6603838,13.774773 41.8133621,12.003643 39.5315066,11.9928374 L6.23319928,11.9928374 C3.9398703,11.9989886 2.07351829,13.7640665 2.03537976,15.9628701 L2.03537976,34.1618161 C2.05351549,36.368781 3.93163689,38.1449896 6.23319928,38.1318489 L39.5315066,38.1318489 C41.8133621,38.1210433 43.6603838,36.3499132 43.6716525,34.1618161 L43.6716525,26.6800401 L43.3529412,26.3613288 L39.2072377,30.5070323 C38.8636729,30.8505971 38.3071208,30.8505971 37.963556,30.5070323 C37.6199912,30.1634675 37.6199912,29.6069154 37.963556,29.2633505 L42.1092594,25.1176471 L37.963556,20.9719436 C37.6199912,20.6283788 37.6199912,20.0718266 37.963556,19.7282618 C38.3071208,19.384697 38.8636729,19.384697 39.2072377,19.7282618 L43.3529412,23.8739653 L43.6716525,23.5552541 Z M27.6353871,26.2458941 C27.6353871,29.17629 26.5004301,31.9859609 24.4815098,34.0522118 C24.3801454,34.1643554 24.2348336,34.2232106 24.0863455,34.2122641 C23.9378575,34.2013175 23.8021913,34.1217485 23.7174118,33.9958824 C23.6112332,33.8943832 23.5509099,33.7520129 23.5509099,33.6029176 C23.5509099,33.4538224 23.6112332,33.3114521 23.7174118,33.2099529 C25.5262044,31.358428 26.5431079,28.841845 26.5431079,26.2170588 C26.5431079,23.5922727 25.5262044,21.0756897 23.7174118,19.2241647 C23.5680284,19.0866446 23.5048047,18.8754452 23.553111,18.6753157 C23.6014172,18.4751862 23.7533363,18.3189266 23.9479066,18.2692402 C24.1424769,18.2195538 24.3478097,18.2845838 24.4815098,18.4382353 C26.5004301,20.5058274 27.6353871,23.3154982 27.6353871,26.2458941 Z M21.2722595,21.0226755 C21.4668299,20.9729891 21.6721627,21.0380191 21.8058627,21.1903294 C24.4819053,23.9548464 24.4819053,28.424283 21.8058627,31.1888 C21.707183,31.2980123 21.5687675,31.3600591 21.4238137,31.3600591 C21.27886,31.3600591 21.1404444,31.2980123 21.0417647,31.1888 C20.9355861,31.0873009 20.8752628,30.9449306 20.8752628,30.7958353 C20.8752628,30.64674 20.9355861,30.5043697 21.0417647,30.4028706 C22.1416238,29.2931059 22.7613076,27.7749688 22.7613076,26.1902353 C22.7613076,24.6055018 22.1416238,23.0873647 21.0417647,21.9776 C20.8923813,21.8400799 20.8291577,21.6288805 20.8774639,21.428751 C20.9257702,21.2286215 21.0776892,21.0723619 21.2722595,21.0226755 Z M19.9490784,26.2465647 C19.9663902,27.0863154 19.6510383,27.8972202 19.075451,28.4930353 C18.9767713,28.6022476 18.8383557,28.6642944 18.693402,28.6642944 C18.5484482,28.6642944 18.4100327,28.6022476 18.3113529,28.4930353 C18.2051743,28.3915361 18.144851,28.2491659 18.144851,28.1000706 C18.144851,27.9509753 18.2051743,27.808605 18.3113529,27.7071059 C19.0760744,26.8922639 19.0760744,25.6008655 18.3113529,24.7860235 C18.1619696,24.6485034 18.0987459,24.437304 18.1470522,24.2371745 C18.1953584,24.037045 18.3472774,23.8807854 18.5418478,23.831099 C18.7364181,23.7814126 18.9417509,23.8464426 19.075451,24.0000941 C19.6294241,24.6102727 19.9411078,25.4117451 19.9490784,26.2465647 Z"/>
</svg>
