<svg xmlns="http://www.w3.org/2000/svg" width="25" height="42" viewBox="0 0 25 42">
  <path fill-rule="evenodd" d="M33.8360579,12.2171911 C33.8360579,7.6838066 30.0948155,4 25.4988323,4 C20.9028491,4 17.1639421,7.6838066 17.1639421,12.2171911 L17.1639421,19.61934 C14.6137319,21.8756715 13,25.1404451 13,28.7759018 L13,33.6753645 C13,40.4719877 18.6071929,46 25.4988323,46 C32.3928071,46 38,40.4719877 38,33.6753645 L38,28.7759018 C38,25.1404451 36.3839327,21.8779739 33.8360579,19.61934 L33.8360579,12.2171911 Z M20.1428571,12.0258501 C20.1428571,9.07719228 22.546875,6.68085106 25.5,6.68085106 C28.4553571,6.68085106 30.8571429,9.07719228 30.8571429,12.0258501 L30.8571429,17.4042553 C29.2433036,16.5913701 27.4285714,16.1236826 25.5,16.1236826 C23.5736607,16.1236826 21.7566964,16.5913701 20.1428571,17.4042553 L20.1428571,12.0258501 Z" transform="translate(-13 -4)"/>
</svg>
