<svg xmlns="http://www.w3.org/2000/svg" width="50" height="50" viewBox="0 0 50 50">
  <path d="M25.0319939,49.0000118 C15.3249178,49.012808 6.56598088,43.1768679 2.83955217,34.2135415 C-0.88687653,25.2502151 1.15307952,14.9247247 8.00817093,8.0519369 C14.8632623,1.17914909 25.1834591,-0.887421 34.156363,2.81588638 C43.129267,6.51919377 48.9877697,15.2630556 49,24.9701324 C49.0000439,38.2173428 38.2791604,48.9659022 25.0319939,49.0000118 Z M25.0319939,2.37916798 C12.5553488,2.37916798 2.44102949,12.4934873 2.44102949,24.9701324 C2.44102949,37.4467776 12.5553488,47.5610969 25.0319939,47.5610969 C37.5086391,47.5610969 47.6229584,37.4467776 47.6229584,24.9701324 C47.6071068,12.499593 37.5025313,2.39373027 25.0319939,2.37629015 L25.0319939,2.37916798 Z M15.8330108,21.3339944 C15.5739705,21.593426 15.155985,21.6010605 14.8876437,21.3512614 C14.6331048,21.0637578 14.6331048,20.6315245 14.8876437,20.3440209 L17.7654735,17.5280644 C17.9384801,17.3646101 18.1920325,17.3195022 18.4107978,17.4132588 C18.6295632,17.5070153 18.7717626,17.7217312 18.772714,17.9597389 L18.772714,30.6006066 C18.7688183,30.9788434 18.4631495,31.2845123 18.0849126,31.2884079 C17.7066758,31.2845123 17.4010069,30.9788434 17.3971113,30.6006066 L17.3971113,19.8375229 L15.8330108,21.3339944 Z M35.4828331,29.4739362 C35.6352371,29.5959416 35.7247758,29.7799539 35.7267279,29.9751678 C35.7286801,30.1703817 35.6428391,30.3561478 35.4929055,30.4811766 C35.2054019,30.7357155 34.7731687,30.7357155 34.4856651,30.4811766 L29.7300512,25.7255628 L24.9744373,30.4811766 C24.6869337,30.7357155 24.2547005,30.7357155 23.9671969,30.4811766 C23.712658,30.193673 23.712658,29.7614398 23.9671969,29.4739362 L28.718494,24.724078 L24.0247535,20.0303375 C23.7702146,19.7428339 23.7702146,19.3106006 24.0247535,19.023097 C24.3122571,18.7685582 24.7444903,18.7685582 25.0319939,19.023097 L29.7199788,23.7110819 L34.4755927,18.955468 C34.7630963,18.7009292 35.1953295,18.7009292 35.4828331,18.955468 C35.737372,19.2429716 35.737372,19.6752049 35.4828331,19.9627085 L30.7272193,24.7183223 L35.4828331,29.4739362 Z"/>
</svg>
