<svg xmlns="http://www.w3.org/2000/svg" width="50" height="50" viewBox="0 0 50 50">
  <path d="M9.51282051,6.29268293 C7.07710315,6.29268293 5.1025641,8.25826207 5.1025641,10.6829268 L5.1025641,42.5121951 C5.1025641,44.9368599 7.07710315,46.902439 9.51282051,46.902439 L41.4871795,46.902439 C43.9228968,46.902439 45.8974359,44.9368599 45.8974359,42.5121951 L45.8974359,10.6829268 C45.8974359,8.25826207 43.9228968,6.29268293 41.4871795,6.29268293 L9.51282051,6.29268293 Z M20.5384615,5.19512195 L31.5641026,5.19512195 L31.5641026,3.55128205 C31.5641026,3.44947429 31.5914202,3.35428481 31.6391557,3.2726134 C31.6868912,3.19094198 31.7550445,3.12278863 31.836716,3.07505314 C31.9183874,3.02731764 32.0135769,3 32.1153846,3 C32.2171924,3 32.3123819,3.02731764 32.3940533,3.07505314 C32.4757247,3.12278863 32.543878,3.19094198 32.5916135,3.2726134 C32.639349,3.35428481 32.6666667,3.44947429 32.6666667,3.55128205 L32.6666667,5.19512195 L41.4871795,5.19512195 C44.5318262,5.19512195 47,7.65209589 47,10.6829268 L47,42.5121951 C47,45.5430261 44.5318262,48 41.4871795,48 L9.51282051,48 C6.46817382,48 4,45.5430261 4,42.5121951 L4,10.6829268 C4,7.65209589 6.46817382,5.19512195 9.51282051,5.19512195 L19.4358974,5.19512195 L19.4358974,3.55128205 C19.4358974,3.44947429 19.4632151,3.35428481 19.5109506,3.2726134 C19.5586861,3.19094198 19.6268394,3.12278863 19.7085108,3.07505314 C19.7901822,3.02731764 19.8853717,3 19.9871795,3 C20.0889872,3 20.1841767,3.02731764 20.2658481,3.07505314 C20.3475196,3.12278863 20.4156729,3.19094198 20.4634084,3.2726134 C20.5111439,3.35428481 20.5384615,3.44947429 20.5384615,3.55128205 L20.5384615,5.19512195 Z M31.5641026,5.19512195 L31.5641026,7.93652283 C31.5641026,8.03833059 31.5914202,8.13352007 31.6391557,8.21519148 C31.6868912,8.2968629 31.7550445,8.36501625 31.836716,8.41275174 C31.9183874,8.46048724 32.0135769,8.48780488 32.1153846,8.48780488 C32.2171924,8.48780488 32.3123819,8.46048724 32.3940533,8.41275174 C32.4757247,8.36501625 32.543878,8.2968629 32.5916135,8.21519148 C32.639349,8.13352007 32.6666667,8.03833059 32.6666667,7.93652283 L32.6666667,5.19512195 L31.5641026,5.19512195 Z M20.5384615,5.19512195 L19.4358974,5.19512195 L19.4358974,7.93652283 C19.4358974,8.03833059 19.4632151,8.13352007 19.5109506,8.21519148 C19.5586861,8.2968629 19.6268394,8.36501625 19.7085108,8.41275174 C19.7901822,8.46048724 19.8853717,8.48780488 19.9871795,8.48780488 C20.0889872,8.48780488 20.1841767,8.46048724 20.2658481,8.41275174 C20.3475196,8.36501625 20.4156729,8.2968629 20.4634084,8.21519148 C20.5111439,8.13352007 20.5384615,8.03833059 20.5384615,7.93652283 L20.5384615,5.19512195 Z M5.1025641,16.1707317 L45.8974359,16.1707317 L45.8974359,15.0731707 L5.1025641,15.0731707 L5.1025641,16.1707317 Z M45.8974359,16.1707317 L34.8717949,16.1707317 L34.8717949,46.902439 L41.4974359,46.902439 C43.9274888,46.902439 45.8974359,44.9324919 45.8974359,42.502439 L45.8974359,16.1707317 Z M19.4358974,5.19512195 L20.5384615,5.19512195 L20.5384615,6.29268293 L19.4358974,6.29268293 L19.4358974,5.19512195 Z M31.5641026,5.19512195 L32.6666667,5.19512195 L32.6666667,6.29268293 L31.5641026,6.29268293 L31.5641026,5.19512195 Z"/>
</svg>
