<svg xmlns="http://www.w3.org/2000/svg" width="50" height="50" viewBox="0 0 50 50">
  <path d="M47.15,18.4437565 C47.15,18.1659811 47.0340899,17.8882057 46.8000005,17.6668742 L32.836325,4.33365547 C32.3704153,3.88878151 31.6135725,3.88878151 31.206764,4.33365547 L27.0749125,8.2789549 C26.6090028,8.72382886 26.6090028,9.39005647 27.0749125,9.83494153 L29.1112818,11.7793693 L19.9796198,20.4987388 L11.7747969,20.8329359 C11.4838869,20.8329359 11.192977,20.9436128 11.0179656,21.1671331 L8.10886658,23.888443 C7.87704629,24.1097967 7.75886705,24.3875721 7.75886705,24.6653252 C7.75886705,24.9430784 7.87477719,25.220876 8.10886658,25.4422074 L15.4973964,32.4971468 L2.34943225,45.1098162 C1.88352258,45.5546902 1.88352258,46.2209178 2.34943225,46.6658029 C2.58125254,46.8871565 2.87216244,47 3.16304908,47 C3.45393571,47 3.74486889,46.8893232 3.9766659,46.6658029 L17.1857211,34.1092441 L24.5742509,41.2208497 C24.8060712,41.4422033 25.0969811,41.5550468 25.3878677,41.5550468 C25.6787544,41.5550468 25.9696875,41.44437 26.2014846,41.2208497 L29.1105836,38.4430957 C29.3424039,38.2217421 29.4605831,37.9982218 29.4605831,37.7204353 L29.8105827,29.8860581 L38.9445719,21.1644664 L40.9809413,23.1088942 C41.2127615,23.3302478 41.5036714,23.4430913 41.7945581,23.4430913 C42.0854447,23.4430913 42.3763779,23.3324145 42.6081749,23.1088942 L46.7400265,19.1635947 C47.0332113,18.9986628 47.1491156,18.7208874 47.1491156,18.4431009 L47.15,18.4437565 Z"/>
</svg>
