<svg xmlns="http://www.w3.org/2000/svg" width="50" height="50" viewBox="0 0 50 50">
  <path d="M24.2852818,26.3419945 L24.2852818,11.6350854 C24.2883653,11.2558287 24.595056,10.949138 24.9743127,10.9460544 C25.3535694,10.949138 25.6602601,11.2558287 25.6633437,11.6350854 L25.6633437,26.1600276 L33.2355952,33.7322791 C33.4227394,33.9194233 33.360358,34.2993827 33.1108324,34.6084542 C32.8890845,34.8596439 32.5177058,34.9125263 32.2346572,34.733217 L24.4100446,26.9086044 C24.2922753,26.7831192 24.2378583,26.6109451 24.2621188,26.4405702 C24.2669265,26.4068074 24.2747208,26.3738391 24.2852818,26.3419945 Z M26.726663,48.941999 C20.0767574,49.4043656 13.5330913,47.0869169 8.65638615,42.5423846 C3.77968099,37.9978522 1.00712826,31.6336487 1.00000594,24.9676922 C0.997015275,20.7426359 2.12277306,16.5934843 4.26085193,12.9493481 C4.4581917,12.630765 4.86940692,12.5208177 5.19940847,12.6984047 C5.51799155,12.8957445 5.62793882,13.3069597 5.45035183,13.6369613 C1.23847743,20.8725132 1.37855732,29.8452012 5.81424417,36.945749 C10.249931,44.0462969 18.2521126,48.1075581 26.6019002,47.4958847 C38.7094407,46.5873219 47.941539,36.2843716 47.5212374,24.1500661 C47.1009358,12.0157606 37.1780825,2.37628933 25.0366941,2.3076481 C20.2665306,2.29890073 15.6178879,3.81169619 11.7664687,6.62614239 C11.6302054,6.74603982 11.4487363,6.80112665 11.2688166,6.77720984 C11.0888969,6.75329302 10.9281209,6.65271137 10.8279122,6.50137959 C10.7105808,6.35254037 10.6577363,6.16291504 10.6811784,5.97484527 C10.7046205,5.78677549 10.8023969,5.61592444 10.952675,5.50044164 C19.2103416,-0.42406699 30.3040676,-0.506157312 38.6485044,5.29550062 C46.9929412,11.0971586 50.7793846,21.5250222 48.1014772,31.3289843 C45.4235698,41.1329464 36.8617634,48.1879421 26.726663,48.941999 Z"/>
</svg>
