<svg xmlns="http://www.w3.org/2000/svg" width="50" height="50" viewBox="0 0 50 50">
  <path d="M25.0319775,48.999979 C15.324908,49.0127752 6.56597707,43.176839 2.83955092,34.2135188 C-0.88687524,25.2501986 1.15307941,14.9247152 8.00816613,8.05193207 C14.8632529,1.17914896 25.1834426,-0.887419709 34.1563404,2.81588514 C43.1292382,6.51918999 48.9877369,15.2630458 48.9999672,24.970116 C49.0000111,38.2173174 38.2791349,48.9658694 25.0319775,48.999979 Z M25.0319775,2.37916703 C12.5553409,2.37916703 2.4410285,12.4934794 2.4410285,24.970116 C2.4410285,37.4467527 12.5553409,47.561065 25.0319775,47.561065 C37.5086141,47.561065 47.6229265,37.4467527 47.6229265,24.970116 C47.6070749,12.4995851 37.5025063,2.39372932 25.0319775,2.3762892 L25.0319775,2.37916703 Z M16.8344847,20.3368131 C17.999069,20.3171271 19.1318742,20.7170309 20.0259959,21.4634827 L24.0319323,24.9686771 L20.659118,27.9716905 C19.7312482,28.993094 18.4297919,29.5959048 17.0506676,29.643059 C15.6715433,29.6902132 14.3319527,29.1777034 13.3364849,28.2220616 C12.3566409,27.4258532 11.7877319,26.2305115 11.7877319,24.9679577 C11.7877319,23.7054039 12.3566409,22.5100622 13.3364849,21.7138538 C14.3334141,20.9017741 15.5585797,20.420459 16.8416793,20.3368131 L16.8344847,20.3368131 Z M33.2309092,20.3368131 C34.5374475,20.3645574 35.7869163,20.8774756 36.7361036,21.7757271 C37.7150522,22.559166 38.2848919,23.7450534 38.2848919,24.9988943 C38.2848919,26.2527352 37.7150522,27.4386226 36.7361036,28.2220616 C34.909674,29.9786089 32.056353,30.0863048 30.1027103,28.4724326 C28.7256696,27.2838897 27.4119412,26.15722 26.0982127,24.9672382 L29.4767827,21.9699805 C30.5119917,21.0236729 31.8339779,20.4508122 33.2323481,20.3425688 L33.2309092,20.3368131 Z M16.7740504,19.0921526 C15.194919,19.1059318 13.6777209,19.7082959 12.5191818,20.7814375 C11.2833062,21.8366912 10.5715824,23.3802698 10.5715824,25.0053694 C10.5715824,26.6304691 11.2833062,28.1740477 12.5191818,29.2293013 C15.1318371,31.5646374 19.1130719,31.4547842 21.5929732,28.9789303 L25.0981676,25.9126047 C26.4752082,27.1011476 27.9141222,28.3587584 29.2911628,29.5429846 C31.7603288,31.5130459 35.2992312,31.3802758 37.6138411,29.2307402 C38.8497167,28.1754866 39.5614405,26.631908 39.5614405,25.0068083 C39.5614405,23.3817087 38.8497167,21.8381301 37.6138411,20.7828764 C35.0011858,18.4475403 31.019951,18.5573936 28.5400497,21.0332475 L25.0334164,24.0923785 C23.6563758,22.9038356 22.2174618,21.6462248 20.8404212,20.4619986 C19.702456,19.5156291 18.2526871,19.0272427 16.7740504,19.0921526 Z"/>
</svg>
