<svg xmlns="http://www.w3.org/2000/svg" width="50" height="50" viewBox="0 0 50 50">
  <path d="M23.4760214,4.38319215 C11.8257458,4.38319215 2.39033974,13.7651093 2.39033974,25.3502653 C2.39033974,36.9354213 11.8257458,46.3173385 23.4760214,46.3173385 C33.2923722,46.3173385 41.7317385,39.5758854 43.9687402,30.1904422 C44.0094027,30.0101052 44.1204176,29.8536661 44.2776661,29.7540711 C44.4344323,29.6547821 44.6242446,29.6219462 44.8037643,29.6624551 C44.9856124,29.7028798 45.1425896,29.8112692 45.2425264,29.9668039 C45.3428887,30.123003 45.3759509,30.3121087 45.3346707,30.495124 C42.9492127,40.499064 33.9325707,47.7 23.476425,47.7 C11.0707486,47.7 1,37.6870842 1,25.35 C1,13.0143361 11.0714986,3 23.476425,3 L24.0858391,3 C33.8432146,3.26287391 42.284169,9.78105208 45.0288416,18.9916929 L47.987611,13.7235721 C48.0962177,13.5187018 48.299806,13.381253 48.5294291,13.3571184 C48.791084,13.3276582 49.0445623,13.4474972 49.190306,13.6686732 C49.3315029,13.8897496 49.3367812,14.1681635 49.2052732,14.3919302 L45.303251,21.3277801 C45.1212482,21.6594076 44.7061626,21.7837864 44.3711428,21.6094145 L37.4230437,18.0924966 C37.2516493,18.0141657 37.1187329,17.8685741 37.0562631,17.6905998 C36.9935312,17.5118769 37.0072721,17.3165714 37.0936511,17.1504365 C37.1784183,16.9821102 37.330905,16.8552265 37.5130736,16.8012371 C37.6944865,16.7474723 37.8898016,16.7689391 38.0473793,16.8577552 L43.7981944,19.7687575 C41.3056497,10.7575285 33.0337389,4.38319215 23.4760214,4.38319215 Z M20.4743404,22.0117357 C20.8896241,22.3714993 21.288198,22.7190338 21.9501484,23.2977752 L21.9951864,23.3371528 C22.7851484,24.0278468 23.0067071,24.2214268 23.3262055,24.4993588 L25.6879415,22.4242888 C27.4894027,20.6125319 30.3819168,20.5321321 32.2772999,22.2388507 C33.1801484,23.015422 33.7,24.1511676 33.7,25.3468024 C33.7,26.5424373 33.1801484,27.6781829 32.2819607,28.4505729 C30.5986729,30.0253156 28.024636,30.1225972 26.224647,28.675749 C25.8093634,28.3159855 25.4107894,27.968451 24.7488391,27.3897096 L24.703801,27.350332 C23.9139521,26.6597368 23.6923438,26.4661134 23.372919,26.1882453 L21.0120585,28.268296 C19.2105973,30.0800529 16.3180832,30.1604527 14.4227001,28.4537342 C13.5198516,27.6771629 13,26.5414173 13,25.3457824 C13,24.1501476 13.5198516,23.014402 14.4181804,22.2418801 C15.2602042,21.456183 16.362831,21.0148462 17.5106687,21.0040921 C18.5877588,20.9571259 19.643626,21.3157752 20.4743404,22.0117357 Z M15.5035209,23.3571444 C14.8680702,23.8422181 14.5,24.5687187 14.5,25.335096 C14.5,26.1014734 14.8680702,26.827974 15.5129623,27.3208863 C16.1668635,27.9105932 17.0480741,28.2273061 17.9557641,28.1981513 C18.8632873,28.1690019 19.7190898,27.7966264 20.3398809,27.155863 L22.5150018,25.336563 L19.9092038,23.1945865 C19.3255329,22.7368354 18.5857791,22.4903855 17.8244121,22.5002872 C16.9744456,22.5527238 16.1632538,22.8522989 15.5035209,23.3571444 Z M28.878262,22.5033281 C27.9461698,22.5710214 27.0654249,22.9291011 26.374731,23.5214552 L24.1832149,25.3455323 C24.5627604,25.666433 24.9623931,25.9975284 25.4244396,26.3749798 C25.629763,26.5427109 25.8445726,26.7173153 26.1082909,26.9310082 C26.252023,27.0474753 26.4540436,27.2109721 26.8020985,27.4927266 C28.0913887,28.4919948 29.9770709,28.4252182 31.1923904,27.3294204 C31.8298578,26.8507786 32.2,26.1280642 32.2,25.3649569 C32.2,24.6018496 31.8298578,23.8791351 31.1828643,23.3927099 C30.5663906,22.8453563 29.7572217,22.5283286 28.9084064,22.5011389 L28.878262,22.5033281 Z"/>
</svg>
