<svg xmlns="http://www.w3.org/2000/svg" width="50" height="50" viewBox="0 0 50 50">
  <path d="M23.5894015,45.8557152 C14.0941271,45.8679395 5.52630417,40.2927947 1.88118359,31.7300196 C-1.763937,23.1672445 0.231508605,13.3031774 6.93702662,6.73751927 C13.6425446,0.171861174 23.7375618,-1.80235846 32.5146831,1.7354563 C41.2918045,5.27327105 47.0224786,13.626389 47.0344421,22.899678 C47.0344851,35.5548998 36.5475239,45.8231299 23.5894015,45.8557152 Z M23.5894015,1.31825387 C11.3849882,1.31825387 1.49135639,10.9805866 1.49135639,22.899678 C1.49135639,34.8187695 11.3849882,44.4811022 23.5894015,44.4811022 C35.7938148,44.4811022 45.6874466,34.8187695 45.6874466,22.899678 C45.6719409,10.9864194 35.7878403,1.33216541 23.5894015,1.31550464 L23.5894015,1.31825387 Z M28.8746346,13.74613 L18.9642947,13.74613 C18.8251069,13.7438765 18.6909411,13.7968826 18.5925069,13.8930155 C18.4940728,13.9891484 18.4397978,14.1201777 18.4421053,14.2561115 L18.4421053,31.5762353 C18.4397978,31.7121691 18.4940728,31.8431983 18.5925069,31.9393312 C18.6909411,32.0354642 18.8251069,32.0884702 18.9642947,32.0862167 C19.095194,32.0862167 19.1599398,32.0229845 19.2908391,31.9583777 L23.9201684,28.3293994 L28.5494977,31.9583777 C28.7667913,32.1307426 29.0851265,32.1027013 29.2673323,31.8951455 C29.349219,31.8079224 29.395755,31.6945466 29.3982316,31.5762353 L29.3982316,14.2561115 C29.3306707,14.0004334 29.1392481,13.74613 28.8746346,13.74613 Z M24.2453053,27.3726687 C24.0716352,27.2445964 23.83204,27.2445964 23.6583699,27.3726687 L19.4850767,30.6195046 L19.4850767,14.7014861 L28.3524451,14.7014861 L28.3524451,30.6208793 L24.2453053,27.3726687 Z" transform="translate(1 2)"/>
</svg>
