<svg xmlns="http://www.w3.org/2000/svg" width="50" height="50" viewBox="0 0 50 50">
  <path d="M9.51282051,6.29268293 C7.07710315,6.29268293 5.1025641,8.25826207 5.1025641,10.6829268 L5.1025641,42.5121951 C5.1025641,44.9368599 7.07710315,46.902439 9.51282051,46.902439 L41.4871795,46.902439 C43.9228968,46.902439 45.8974359,44.9368599 45.8974359,42.5121951 L45.8974359,10.6829268 C45.8974359,8.25826207 43.9228968,6.29268293 41.4871795,6.29268293 L9.51282051,6.29268293 Z M20.5384615,5.19512195 L31.5641026,5.19512195 L31.5641026,3.55128205 C31.5641026,3.44947429 31.5914202,3.35428481 31.6391557,3.2726134 C31.6868912,3.19094198 31.7550445,3.12278863 31.836716,3.07505314 C31.9183874,3.02731764 32.0135769,3 32.1153846,3 C32.2171924,3 32.3123819,3.02731764 32.3940533,3.07505314 C32.4757247,3.12278863 32.543878,3.19094198 32.5916135,3.2726134 C32.639349,3.35428481 32.6666667,3.44947429 32.6666667,3.55128205 L32.6666667,5.19512195 L41.4871795,5.19512195 C44.5318262,5.19512195 47,7.65209589 47,10.6829268 L47,42.5121951 C47,45.5430261 44.5318262,48 41.4871795,48 L9.51282051,48 C6.46817382,48 4,45.5430261 4,42.5121951 L4,10.6829268 C4,7.65209589 6.46817382,5.19512195 9.51282051,5.19512195 L19.4358974,5.19512195 L19.4358974,3.55128205 C19.4358974,3.44947429 19.4632151,3.35428481 19.5109506,3.2726134 C19.5586861,3.19094198 19.6268394,3.12278863 19.7085108,3.07505314 C19.7901822,3.02731764 19.8853717,3 19.9871795,3 C20.0889872,3 20.1841767,3.02731764 20.2658481,3.07505314 C20.3475196,3.12278863 20.4156729,3.19094198 20.4634084,3.2726134 C20.5111439,3.35428481 20.5384615,3.44947429 20.5384615,3.55128205 L20.5384615,5.19512195 Z M31.5641026,5.19512195 L31.5641026,7.93652283 C31.5641026,8.03833059 31.5914202,8.13352007 31.6391557,8.21519148 C31.6868912,8.2968629 31.7550445,8.36501625 31.836716,8.41275174 C31.9183874,8.46048724 32.0135769,8.48780488 32.1153846,8.48780488 C32.2171924,8.48780488 32.3123819,8.46048724 32.3940533,8.41275174 C32.4757247,8.36501625 32.543878,8.2968629 32.5916135,8.21519148 C32.639349,8.13352007 32.6666667,8.03833059 32.6666667,7.93652283 L32.6666667,5.19512195 L31.5641026,5.19512195 Z M20.5384615,5.19512195 L19.4358974,5.19512195 L19.4358974,7.93652283 C19.4358974,8.03833059 19.4632151,8.13352007 19.5109506,8.21519148 C19.5586861,8.2968629 19.6268394,8.36501625 19.7085108,8.41275174 C19.7901822,8.46048724 19.8853717,8.48780488 19.9871795,8.48780488 C20.0889872,8.48780488 20.1841767,8.46048724 20.2658481,8.41275174 C20.3475196,8.36501625 20.4156729,8.2968629 20.4634084,8.21519148 C20.5111439,8.13352007 20.5384615,8.03833059 20.5384615,7.93652283 L20.5384615,5.19512195 Z M5.1025641,16.1707317 L45.8974359,16.1707317 L45.8974359,15.0731707 L5.1025641,15.0731707 L5.1025641,16.1707317 Z M19.4358974,5.19512195 L20.5384615,5.19512195 L20.5384615,6.29268293 L19.4358974,6.29268293 L19.4358974,5.19512195 Z M31.5641026,5.19512195 L32.6666667,5.19512195 L32.6666667,6.29268293 L31.5641026,6.29268293 L31.5641026,5.19512195 Z M18.1348718,35.5097561 C18.6641026,36.2560976 19.634359,36.7829268 20.7810256,36.8707317 L20.7589744,36.8707317 C22.6333333,36.9804878 24.3533333,35.8829268 24.4415385,34.0829268 C24.485641,32.195122 22.9641026,31.0097561 21.1558974,31.0097561 L20.2517949,31.0097561 C19.8548718,31.0097561 19.5461538,30.7243902 19.5461538,30.3292683 C19.5461538,29.9121951 19.8548718,29.6268293 20.2517949,29.6268293 L21.1558974,29.6268293 C22.6333333,29.6268293 23.78,28.5731707 23.8461538,27.2560976 C23.9123077,25.9390244 23.074359,24.9073171 21.3102564,24.797561 C20.3179487,24.7536585 19.3697436,25.0829268 18.7964103,25.6756098 C18.4876923,26.004878 18.1348718,26.1365854 17.8041026,25.895122 C17.4512821,25.6536585 17.3851282,25.1926829 17.6717949,24.8414634 C18.5317949,23.7878049 19.8769231,23.2390244 21.3984615,23.3268293 C24.1769231,23.5243902 25.5441026,25.3902439 25.3235897,27.4756098 C25.2353846,28.6390244 24.4194872,29.7585366 23.2507692,30.2634146 C24.9487179,30.6585366 26.0512821,32.6341463 25.9189744,34.302439 C25.7205128,36.9146341 23.3389744,38.495122 20.6707692,38.3195122 C19.0610256,38.1878049 17.7158974,37.397561 16.9220513,36.2780488 C16.6794872,35.9487805 16.7676923,35.4439024 17.1205128,35.2243902 C17.4733333,35.004878 17.8702564,35.1585366 18.1348718,35.5097561 Z M31.674359,25.0390244 L29.8661538,25.6536585 C29.5574359,25.7414634 29.1825641,25.5658537 29.094359,25.2365854 C29.0061538,24.8634146 29.2046154,24.5560976 29.5574359,24.4463415 L32.0051282,23.5682927 C32.225641,23.4804878 32.4241026,23.4146341 32.5784615,23.4146341 L32.6005128,23.4146341 C32.9092308,23.4146341 33.1297436,23.6341463 33.1297436,23.9195122 L33.1297436,37.4853659 C33.1297436,37.902439 32.8210256,38.2317073 32.4020513,38.2317073 C31.9830769,38.2317073 31.674359,37.902439 31.674359,37.4853659 L31.674359,25.0390244 Z"/>
</svg>
