<svg xmlns="http://www.w3.org/2000/svg" width="50" height="50" viewBox="0 0 50 50">
  <path d="M43.7494743,23.8651448 L26.2443788,23.8651448 L26.2443788,6.19302569 C26.2443788,5.53413579 25.710243,5 25.0513532,5 C24.3924633,5 23.8583275,5.53413579 23.8583275,6.19302569 L23.8583275,23.6947125 L6.19302569,23.6947125 C5.53413579,23.6947125 5,24.2288483 5,24.8877382 C5,25.5466281 5.53413579,26.0807639 6.19302569,26.0807639 L23.6947125,26.0807639 L23.6947125,43.7494743 C23.6947125,44.4083642 24.2288483,44.9425 24.8877382,44.9425 C25.5466281,44.9425 26.0807639,44.4083642 26.0807639,43.7494743 L26.0807639,26.2443788 L43.7494743,26.2443788 C44.4083642,26.2443788 44.9425,25.710243 44.9425,25.0513532 C44.9425,24.3924633 44.4083642,23.8583275 43.7494743,23.8583275 L43.7494743,23.8651448 Z"/>
</svg>
