<svg xmlns="http://www.w3.org/2000/svg" width="50" height="50" viewBox="0 0 50 50">
  <path d="M24.9605335,7.24631788 L4.43822536,24.4613862 C3.91366053,24.8993597 3.84906318,25.7603998 4.30385759,26.2655187 C4.758652,26.7731731 5.65018133,26.8328903 6.17727978,26.3949168 L25.8111677,9.91628113 L44.8040436,26.3751682 C45.3182689,26.8230925 46.2123517,26.7807922 46.6774658,26.2855858 C47.1425799,25.7903795 47.0986683,24.9293649 46.584443,24.4814533 L26.723654,7.26383682 C26.1654972,6.91544558 25.503945,6.91544558 24.9638808,7.24392893 L24.9605335,7.24631788 Z M40.3950979,22.4508718 L40.3950979,40.7635583 L31.787411,40.7635583 L31.787411,30.5484223 L19.3118216,30.5484223 C19.2575559,33.9527032 19.2265452,37.3572389 19.1877868,40.7635583 L10.6012684,40.7635583 L10.6012684,22.5725488 L7.95261191,24.7873253 L7.95261191,43.3191579 L21.7929153,43.3191579 C21.8445958,39.914877 21.8781917,36.5103413 21.9169501,33.1040219 L29.1367699,33.1040219 L29.1367699,43.3191579 L43.0392561,43.3191579 L43.0392561,24.7478281 L40.3950979,22.4508718 Z"/>
</svg>
