<svg xmlns="http://www.w3.org/2000/svg" width="50" height="50" viewBox="0 0 50 50">
  <path fill-rule="evenodd" d="M28.3330721,43.3077094 C28.3330721,44.0668762 27.7452978,44.6508506 26.9811912,44.6508506 L6.29153605,44.6508506 C5.52742947,44.6508506 4.93965517,44.0668762 4.93965517,43.3077094 L4.93965517,28.2411694 C4.93965517,27.4820026 5.52742947,26.8980282 6.29153605,26.8980282 L26.9811912,26.8980282 C27.7452978,26.8980282 28.3330721,27.4820026 28.3330721,28.2411694 L28.3330721,43.3077094 Z M26.9811912,25.0293101 C28.8032915,25.0293101 30.2727273,26.4892461 30.2727273,28.2995668 L30.2727273,43.3661069 C30.2727273,45.1764276 28.8032915,46.6363636 26.9811912,46.6363636 L6.29153605,46.6363636 C4.46943574,46.6363636 3,45.1764276 3,43.3661069 L3,28.2995668 C3,26.4892461 4.46943574,25.0293101 6.29153605,25.0293101 L8.5838558,25.0293101 L8.5838558,16.4548136 C8.5838558,12.0820132 12.0646552,8.55947945 16.440047,8.45669995 C20.9753135,8.35041661 24.6888715,12.1912164 24.6888715,16.6989149 L24.6888715,20.5981121 C24.6888715,21.1301128 24.255094,21.5616699 23.7190439,21.5616699 C23.1835815,21.5616699 22.7492163,21.1301128 22.7492163,20.5981121 L22.7492163,16.4548136 C22.7492163,12.7658472 19.3559953,9.79400138 15.5301724,10.4807553 C12.5924765,11.0080842 10.523511,13.6634159 10.523511,16.629422 L10.523511,25.0293101 L26.9811912,25.0293101 Z M48,14.6801004 L39.7120903,30.2727273 L42.2446566,18.5926268 L34.3636364,18.5926268 L42.651546,3 L40.1189798,14.6801004 L48,14.6801004 Z"/>
</svg>
