<svg xmlns="http://www.w3.org/2000/svg" width="50" height="50" viewBox="0 0 50 50">
  <path d="M15.6688806,40.0389513 C15.9194134,39.6320875 15.7882745,39.1151034 15.3752863,38.853802 C10.711068,35.9030885 7.84777926,30.8618682 7.84777926,25.5001487 C7.84777926,16.9912499 14.8471633,10.0150901 23.6428671,9.52392559 L21.3391183,11.7225077 C21.1570912,11.8942146 21.0670547,12.1200403 21.0670547,12.3458757 C21.0670547,12.571711 21.1570912,12.797532 21.3391183,12.9692436 C21.6992591,13.3126526 22.2844786,13.3126526 22.6446444,12.9692436 L27.2129588,8.61316907 L22.6446444,4.25895786 C22.2845036,3.91368071 21.6992841,3.91368071 21.3391183,4.25895786 C20.9770183,4.60236687 20.9770183,5.16039755 21.3391183,5.50383044 L23.6976336,7.7546346 C13.856206,8.22122173 6,16.0021842 6,25.5001009 C6,31.4595313 9.18452181,37.060144 14.3713014,40.3320255 C14.8097337,40.6101116 15.4027948,40.4701345 15.6689608,40.0390087 L15.6688806,40.0389513 Z M27.3812868,46.7427729 C27.7414276,46.3993639 27.7414276,45.8413332 27.3812868,45.496037 L25.0384047,43.2638665 C35.1283608,43.0567031 43.2666667,35.1677752 43.2666667,25.4997665 C43.2666667,19.2847204 39.8727496,13.5570165 34.3471996,10.3357803 C33.8989815,10.0744885 33.3117979,10.2312645 33.0612651,10.6717215 C32.8244315,11.0860531 32.9771012,11.6011595 33.3998752,11.8475062 C38.3674887,14.75154 41.4189275,19.9082413 41.4189275,25.499776 C41.4189275,34.1911892 34.1163988,41.2815401 25.0561324,41.4960662 L27.3520145,39.3049853 C27.6945379,38.9783753 27.7493445,38.4501776 27.442051,38.0956123 C27.0897418,37.6887485 26.4555532,37.668218 26.0738916,38.0321575 L21.5075314,42.3863687 L26.0738916,46.7424432 C26.4359916,47.0858523 27.0212061,47.0858523 27.381372,46.7424432 L27.3812868,46.7427729 Z"/>
</svg>
