<svg xmlns="http://www.w3.org/2000/svg" width="50" height="50" viewBox="0 0 50 50">
  <path fill-rule="evenodd" d="M27.5879817,45.0927768 C27.5879817,45.8296151 27.0174949,46.3964138 26.2758621,46.3964138 L6.19472617,46.3964138 C5.45309331,46.3964138 4.88260649,45.8296151 4.88260649,45.0927768 L4.88260649,30.4693703 C4.88260649,29.732532 5.45309331,29.1657333 6.19472617,29.1657333 L26.2758621,29.1657333 C27.0174949,29.1657333 27.5879817,29.732532 27.5879817,30.4693703 L27.5879817,45.0927768 Z M26.2758621,27.3519774 C28.0443712,27.3519774 29.4705882,28.7689742 29.4705882,30.5260501 L29.4705882,45.1494567 C29.4705882,46.9065327 28.0443712,48.3235294 26.2758621,48.3235294 L6.19472617,48.3235294 C4.42621704,48.3235294 3,46.9065327 3,45.1494567 L3,30.5260501 C3,28.7689742 4.42621704,27.3519774 6.19472617,27.3519774 L8.41962475,27.3519774 L8.41962475,19.029672 C8.41962475,14.7854834 11.7980477,11.3665536 16.0447515,11.266797 C20.4466278,11.1636396 24.0509635,14.8914747 24.0509635,19.2665939 L24.0509635,23.0511088 C24.0509635,23.5674625 23.6299442,23.9863267 23.1096602,23.9863267 C22.5899468,23.9863267 22.168357,23.5674625 22.168357,23.0511088 L22.168357,19.029672 C22.168357,15.4492046 18.8749366,12.564766 15.1616379,13.2313213 C12.3103448,13.7431405 10.3022312,16.3203742 10.3022312,19.1991449 L10.3022312,27.3519774 L26.2758621,27.3519774 Z M38.0735294,21.8529412 C32.5915162,21.8529412 28.1470588,17.4084838 28.1470588,11.9264706 C28.1470588,6.4444574 32.5915162,2 38.0735294,2 C43.5555426,2 48,6.4444574 48,11.9264706 C48,17.4084838 43.5555426,21.8529412 38.0735294,21.8529412 Z M37.0466531,7.18549696 L37.0466531,11.6246146 C37.0466531,12.001663 37.3515053,12.3145385 37.7312373,12.3145385 L38.4158215,12.3145385 C38.7982234,12.3145385 39.1004057,12.0043466 39.1004057,11.6246146 L39.1004057,7.18549696 C39.1004057,6.80844853 38.7955535,6.49557302 38.4158215,6.49557302 L37.7312373,6.49557302 C37.3488354,6.49557302 37.0466531,6.80576496 37.0466531,7.18549696 Z M37.0466531,15.3495284 L37.0466531,16.0341126 C37.0466531,16.4165145 37.3515053,16.7186968 37.7312373,16.7186968 L38.4158215,16.7186968 C38.7982234,16.7186968 39.1004057,16.4138446 39.1004057,16.0341126 L39.1004057,15.3495284 C39.1004057,14.9671265 38.7955535,14.6649442 38.4158215,14.6649442 L37.7312373,14.6649442 C37.3488354,14.6649442 37.0466531,14.9697964 37.0466531,15.3495284 Z"/>
</svg>
