<svg xmlns="http://www.w3.org/2000/svg" width="50" height="50" viewBox="0 0 50 50">
  <path d="M41.8206823,10.1570967 C42.6274483,10.1570967 43.1910233,10.5586459 43.6981654,11.3301541 L43.8927165,11.6261222 L43.8928291,11.9803075 L43.8977855,27.5780581 C43.8977855,35.1715682 39.3371632,42.1416353 32.3920542,45.1583154 L26.3932456,47.7303374 C25.4828421,48.0955876 24.4033783,48.0910545 23.4532945,47.7090678 L17.5068689,45.1587913 C10.5201415,42.1812507 6,35.2682561 6,27.57787 L6,11.9806838 C6,10.9437579 6.7812874,10.1570967 7.81875533,10.1570967 C13.4917854,10.1570967 19.0207131,7.83194486 23.0918404,3.72981282 C24.0628882,2.7512716 25.581031,2.75585561 26.5663713,3.74902086 C30.5036356,7.83872405 36.0194302,10.1570967 41.8206823,10.1570967 Z M24.8725356,5.40459346 C24.8239184,5.3555996 24.8154505,5.35557403 24.773085,5.39826647 C20.3905705,9.81415707 14.4814874,12.3740103 8.36861159,12.5191779 L8.36861159,27.57787 C8.36861159,34.323514 12.3262441,40.376221 18.4379794,42.9808688 L24.3615398,45.5216818 C24.7231092,45.6669223 25.1704278,45.6688008 25.4855275,45.5427382 L31.4534795,42.9836044 C37.5273409,40.3453474 41.5291739,34.2292864 41.529174,27.5784345 L41.5243901,12.5238897 C35.1914769,12.4461381 29.1792426,9.87823546 24.8725356,5.40459346 Z M29.4510312,23.0543264 L28.4479242,23.0543264 L28.4479242,20.751525 C28.4479242,18.795645 26.8818847,17.2100909 24.950077,17.2100909 C23.0182694,17.2100909 21.4522299,18.795645 21.4522299,20.751525 L21.4522299,23.0543264 L20.4485307,23.0543264 C19.6645868,23.0566314 19.0296403,23.69949 19.0273638,24.4932026 L19.0273638,31.1671901 C19.0293166,31.961039 19.6644522,32.6040891 20.4485307,32.6060663 L29.4492548,32.6060663 C30.2331987,32.6037614 30.8681452,31.9609028 30.8704217,31.1671901 L30.8704217,24.4950012 C30.8681452,23.7012886 30.2331987,23.05843 29.4492548,23.056125 L29.4510312,23.0543264 Z M22.2913105,20.751525 C22.276994,19.780336 22.7805411,18.8766528 23.6089599,18.3868257 C24.4373786,17.8969987 25.4621833,17.8969987 26.2906021,18.3868257 C27.1190208,18.8766528 27.622568,19.780336 27.6082514,20.751525 L27.6082514,23.0543264 L22.2913105,23.0543264 L22.2913105,20.751525 Z M30.034894,31.1671901 C30.0345672,31.4937637 29.7729935,31.7583286 29.4504391,31.7583284 L20.449715,31.7583284 C20.1271606,31.7583286 19.8655869,31.4937637 19.8652601,31.1671901 L19.8652601,24.4950012 C19.8655869,24.1684276 20.1271606,23.9038628 20.449715,23.9038629 L29.4504391,23.9038629 C29.7729935,23.9038628 30.0345672,24.1684276 30.034894,24.4950012 L30.034894,31.1671901 Z"/>
</svg>
