<svg xmlns="http://www.w3.org/2000/svg" width="50" height="50" viewBox="0 0 50 50">
  <path fill-rule="evenodd" d="M34.0344828,34.5862069 L41.0867516,34.5862069 C44.8892445,34.5862069 48,37.7282399 48,41.5689655 C48,45.4096911 44.889181,48.5517241 41.0867516,48.5517241 L26.9822139,48.5517241 C23.442706,48.5517241 20.497286,45.8239501 20.1117167,42.3448276 L6.72413793,42.3448276 C4.66947681,42.3396463 3.00511749,40.6545473 3,38.574283 L3,21.0852401 C3.00596567,19.0053328 4.66982948,17.3207355 6.72413793,17.3146955 L9.35431034,17.3146955 L9.35431034,11.280253 C9.35431034,6.15491079 13.4580838,2 18.5203448,2 C23.5826059,2 27.6863793,6.15491079 27.6863793,11.280253 L27.6863793,17.3146955 L30.315,17.3146955 L30.3103448,17.3194086 C32.3646533,17.3254486 34.0285171,19.010046 34.0344828,21.0899533 L34.0344828,34.5862069 Z M20.2190953,40.1233484 C20.8834861,36.9701933 23.6731228,34.5862069 26.9822139,34.5862069 L31.845,34.5862069 L31.845,21.0899533 C31.8441436,20.234174 31.1586953,19.5408874 30.3134483,19.5408879 L6.72724138,19.5408879 C5.88199433,19.5408874 5.19654604,20.234174 5.19568966,21.0899533 L5.19568966,38.574283 C5.19654604,39.4300622 5.88199433,40.1233488 6.72724138,40.1233484 L20.2190953,40.1233484 Z M11.5531034,11.280253 L11.5531034,17.3146955 L25.4860345,17.3146955 L25.4860345,11.280253 C25.5235507,8.73527274 24.2040161,6.36719003 22.0331623,5.08360862 C19.8623085,3.80002721 17.1768294,3.80002721 15.0059756,5.08360862 C12.8351219,6.36719003 11.5155872,8.73527274 11.5531034,11.280253 Z M41.2254545,37.0908119 C38.7816477,37.0908119 36.7917202,39.1008436 36.7917202,41.5691258 C36.7917202,44.0349074 38.7805051,46.057378 41.2254545,46.057378 C43.6666904,46.057378 45.6690282,44.0349074 45.6690282,41.5691258 C45.6690282,39.0994971 43.6666904,37.0908119 41.2254545,37.0908119 Z"/>
</svg>
