<svg xmlns="http://www.w3.org/2000/svg" width="50" height="50" viewBox="0 0 50 50">
  <path fill-rule="evenodd" d="M32.2744241,3 L18.2687397,3 C15.3640606,3 13,5.33742702 13,8.21164687 L13,42.7883531 C13,45.662573 15.3640606,48 18.2687397,48 L32.2744241,48 C35.181394,48 37.5454545,45.662573 37.5454545,42.7883531 L37.5454545,8.21164687 C37.5454545,5.33742702 35.181394,3 32.2744241,3 M25.265855,43.1110352 C23.2150709,43.1110352 21.5521571,41.4668559 21.5521571,39.439176 C21.5521571,37.411496 23.2150709,35.7662573 25.265855,35.7662573 C27.3177106,35.7662573 28.9795529,37.411496 28.9795529,39.439176 C28.9795529,41.4668559 27.3177106,43.1110352 25.265855,43.1110352"/>
</svg>
