<svg xmlns="http://www.w3.org/2000/svg" width="50" height="50" viewBox="0 0 50 50">
  <path d="M43.0392561,24.8458348 L43.0392561,43.3191579 L29.1367699,43.3191579 L29.1367699,33.1040219 L21.9169501,33.1040219 C21.8781917,36.5103413 21.8445958,39.914877 21.7929153,43.3191579 L7.95261191,43.3191579 L7.95261191,24.9048883 L6.17727978,26.3949168 C5.65018133,26.8328903 4.758652,26.7731731 4.30385759,26.2655187 C3.84906318,25.7603998 3.91366053,24.8993597 4.43822536,24.4613862 L24.9605335,7.24631788 L24.9638808,7.24392893 C25.503945,6.91544558 26.1654972,6.91544558 26.723654,7.26383682 L46.584443,24.4814533 C47.0986683,24.9293649 47.1425799,25.7903795 46.6774658,26.2855858 C46.2123517,26.7807922 45.3182689,26.8230925 44.8040436,26.3751682 L43.0392561,24.8458348 Z"/>
</svg>
