<svg xmlns="http://www.w3.org/2000/svg" width="50" height="50" viewBox="0 0 50 50">
  <path d="M44.99435,21.1548 C44.14709,21.0282375 43.278725,20.906949 42.412115,20.7926895 C42.306644,20.778627 42.222269,20.7083145 42.1959035,20.6116365 C41.7951245,19.1596665 41.2150385,17.7587265 40.4697485,16.4456265 C40.4205275,16.357737 40.4293192,16.246992 40.4943581,16.162617 C41.0269781,15.470022 41.5560881,14.768652 42.0658481,14.081367 C42.7531331,13.151487 42.6529631,11.833122 41.8338191,11.012232 L38.9896841,8.168097 C38.1705491,7.348962 36.8504291,7.248747 35.9205491,7.936068 C35.2332641,8.444073 34.5336491,8.973183 33.8392991,9.507558 C33.7549241,9.5725965 33.6441836,9.581385 33.5562896,9.53216715 C32.2449446,8.78687715 30.8440046,8.20678215 29.3902796,7.80601215 C29.2936016,7.77964485 29.2215296,7.69351215 29.2092266,7.58804115 C29.0967266,6.71967615 28.9736786,5.85131115 28.8471161,5.00580615 C28.6766066,3.86145615 27.6728861,3.00015615 26.5127411,3.00015615 L22.4891111,3.00015615 C21.3289661,3.00015615 20.3269961,3.86150115 20.1547361,5.00580615 C20.0281736,5.85131115 19.9068851,6.71967615 19.7926256,7.58804115 C19.7785631,7.69351215 19.7082506,7.77788715 19.6115726,7.80425265 C18.1596026,8.20503165 16.7568626,8.78511765 15.4473176,9.53040765 C15.3594281,9.57962865 15.2469281,9.570837 15.1643081,9.50579805 C14.4699581,8.97142305 13.7685881,8.44231305 13.0830581,7.93430805 C12.1531781,7.24702305 10.8330581,7.34719305 10.0139231,8.16633705 L7.1697881,11.0104721 C6.3506531,11.8296071 6.2504381,13.1497271 6.9377591,14.0796071 C7.4475191,14.7686471 7.9766291,15.4700171 8.5092491,16.1608571 C8.5742876,16.2452321 8.5830761,16.3559726 8.53385825,16.4438666 C7.78856825,17.7552116 7.20847325,19.1579066 6.80770325,20.6098766 C6.78133595,20.7065546 6.69520325,20.7768671 6.59149175,20.7909296 C5.72488175,20.9034296 4.85651675,21.0264776 4.00925675,21.1530401 C2.86490675,21.3235496 2.00360675,22.3272701 2.00360675,23.4874151 L2.00360675,27.5110451 C2.00360675,28.6711901 2.86495175,29.6731601 4.00925675,29.8454201 C4.85651675,29.9719826 5.72488175,30.0932711 6.59149175,30.2075306 C6.69696275,30.2215931 6.78133775,30.2919056 6.80770325,30.3885836 C7.20848225,31.8405536 7.78856825,33.2414936 8.53385825,34.5545936 C8.58307925,34.6424831 8.57428805,34.7532281 8.5092491,34.8376031 C7.9748741,35.5301981 7.4475191,36.2315681 6.9377591,36.9188531 C6.2504741,37.8487331 6.3506441,39.1688531 7.1697881,39.9879881 L10.0139231,42.8321231 C10.8330581,43.6512581 12.1531781,43.7514731 13.0830581,43.0641521 C13.7703431,42.5561471 14.4699581,42.0270371 15.1643081,41.4926621 C15.2486831,41.4276236 15.3594236,41.4188351 15.4473176,41.4680529 C16.7586626,42.2133429 18.1596026,42.7934379 19.6133276,43.1942079 C19.7100056,43.2205752 19.7820776,43.3067079 19.7943806,43.4104194 C19.9068806,44.2787844 20.0299286,45.1471494 20.1564911,45.9926544 C20.3270006,47.1370044 21.3307211,47.9983044 22.4908661,47.9983044 L26.5144961,47.9983044 C27.6746411,47.9983044 28.6766111,47.1352044 28.8488711,45.9926544 C28.9754336,45.1471494 29.0967221,44.2787844 29.2109816,43.4104194 C29.2250441,43.3049484 29.2953566,43.2205734 29.3920346,43.1924484 C30.8440046,42.7916694 32.2467446,42.2115834 33.5562896,41.4662934 C33.6441791,41.4170724 33.7549241,41.4258636 33.8392991,41.4909026 C34.5336491,42.0252776 35.2350191,42.5543876 35.9205491,43.0623926 C36.8504291,43.7496776 38.1705491,43.6495076 38.9896841,42.8303636 L41.8338191,39.9862286 C42.6529541,39.1670936 42.7531691,37.8469736 42.0658481,36.9170936 C41.5560881,36.2280536 41.0287331,35.5284386 40.4943581,34.8358436 C40.4293196,34.7514686 40.4205311,34.6407281 40.4697485,34.5528341 C41.2150385,33.2414891 41.7951335,31.8405491 42.1959035,30.3885791 C42.2222704,30.2919011 42.3084035,30.2198291 42.4138745,30.2075261 C43.2804845,30.0950261 44.1488495,29.9719781 44.9961095,29.8454156 C46.1404595,29.6749061 47.0017595,28.6711856 47.0017595,27.5110406 L47.0017595,23.4874106 C47.0017595,22.3272656 46.1386595,21.3252956 44.9961095,21.1530356 L44.99435,21.1548 Z M44.897672,27.51105 C44.897672,27.6376125 44.8045085,27.748353 44.6814605,27.7676895 C43.8482405,27.8924925 42.9922055,28.012026 42.1379255,28.1227665 C41.1922055,28.2458145 40.4187905,28.9155315 40.1674205,29.8296165 C39.8123435,31.1145915 39.2990555,32.3538465 38.6398955,33.5157465 C38.1705455,34.3419015 38.244386,35.3632215 38.8262225,36.1190865 C39.3518225,36.8011065 39.8721125,37.4919465 40.3730975,38.1687015 C40.4469245,38.2688985 40.4346215,38.4112785 40.3449725,38.502687 L37.5008375,41.346822 C37.4111885,41.436471 37.267049,41.448774 37.166852,41.374947 C36.490097,40.873962 35.799257,40.353672 35.117237,39.828072 C34.361372,39.246222 33.340097,39.174177 32.515697,39.641745 C31.355552,40.300905 30.114542,40.81422 28.829567,41.16927 C27.915527,41.4206355 27.245792,42.194055 27.122717,43.139775 C27.0119765,43.994055 26.890688,44.850135 26.76764,45.68331 C26.7500621,45.806358 26.639318,45.8995215 26.5110005,45.8995215 L22.4873705,45.8995215 C22.360808,45.8995215 22.2500675,45.806358 22.230731,45.68331 C22.105928,44.851845 21.9863945,43.99581 21.875654,43.14153 C21.752606,42.19581 21.082889,41.422395 20.168804,41.171025 C18.883829,40.815948 17.644574,40.30266 16.482674,39.6435 C16.1205635,39.4378365 15.721544,39.3376395 15.322529,39.3376395 C14.812769,39.3376395 14.304764,39.502875 13.879379,39.8298495 C13.195604,40.3554495 12.504764,40.8774945 11.829764,41.3767245 C11.729567,41.4505515 11.587187,41.4382485 11.4957785,41.3485995 L8.6516435,38.5044645 C8.5619945,38.4148155 8.5496915,38.270676 8.6235185,38.170479 C9.1245035,37.493724 9.6447935,36.802884 10.1703935,36.120864 C10.7522435,35.364999 10.8242885,34.343724 10.3567205,33.519324 C9.6975605,32.359179 9.1842455,31.118169 8.8291955,29.833194 C8.57783,28.919154 7.8044105,28.249419 6.8586905,28.126344 C6.0044105,28.0156035 5.1500855,27.8943105 4.3151555,27.771267 C4.1921075,27.7536887 4.098944,27.642945 4.098944,27.5146275 L4.098944,23.4909975 C4.098944,23.364435 4.1921075,23.2536945 4.3151555,23.234358 C5.1483755,23.109555 6.0044105,22.9900215 6.8569355,22.879281 C7.8026555,22.756233 8.5760705,22.086516 8.8274405,21.172431 C9.1807625,19.887456 9.6958055,18.648201 10.3549655,17.486301 C10.8225605,16.660146 10.750475,15.640581 10.1686385,14.884761 C9.6447935,14.202741 9.1245035,13.513656 8.6217635,12.835146 C8.5479365,12.734949 8.5602395,12.592569 8.6498885,12.5011605 L11.4940235,9.6570255 C11.5836725,9.5673765 11.727812,9.5550735 11.828009,9.6289005 C12.504764,10.1298855 13.193849,10.6501755 13.877624,11.1757755 C14.633489,11.7576255 15.654764,11.8296705 16.479164,11.3621025 C17.639309,10.7029425 18.880319,10.1896275 20.165294,9.8345775 C21.079334,9.583212 21.749069,8.8097925 21.872144,7.8640725 C21.984644,7.0097925 22.104173,6.1537125 22.227221,5.3205375 C22.2447989,5.1974895 22.355543,5.1060855 22.4838605,5.1060855 L26.5074905,5.1060855 C26.634053,5.1060855 26.7447935,5.199249 26.76413,5.322297 C26.888933,6.153762 27.0084665,7.009797 27.119207,7.864077 C27.242255,8.809797 27.911972,9.583212 28.826057,9.834582 C30.111032,10.189659 31.350287,10.702947 32.512187,11.362107 C33.336587,11.829702 34.357907,11.7576165 35.113727,11.17578 C35.797502,10.65018 36.488342,10.128135 37.163342,9.628905 C37.263539,9.555078 37.405919,9.567381 37.4973275,9.65703 L40.3414625,12.501165 C40.4311115,12.590814 40.4434145,12.7349535 40.3695875,12.8351505 C39.8686025,13.5136605 39.3483125,14.2027455 38.8227125,14.8847655 C38.2408625,15.6406305 38.1688175,16.6619055 38.6363855,17.4863055 C39.2955455,18.6464505 39.8088605,19.8874605 40.1639105,21.1724355 C40.415276,22.0864755 41.1904505,22.7562105 42.1344155,22.8792855 C42.9886955,22.9917855 43.8430205,23.1113145 44.6779505,23.2343625 C44.8009985,23.2519404 44.894162,23.3626845 44.894162,23.491002 L44.894162,27.514632 L44.897672,27.51105 Z M24.5,13.3185 C17.7851,13.3185 12.3185,18.7851 12.3185,25.5 C12.3185,32.2149 17.7851,37.6797 24.5,37.6797 C31.2149,37.6797 36.6797,32.2131 36.6797,25.5 C36.6797,18.7851 31.2131,13.3185 24.5,13.3185 Z M24.5,15.51576 C30.02645,15.51576 34.4828,19.971795 34.4828,25.50036 C34.4828,31.02681 30.026765,35.48316 24.5,35.48316 C18.973235,35.48316 14.5154,31.027125 14.5154,25.50036 C14.5154,19.973595 18.971435,15.51576 24.5,15.51576 Z"/>
</svg>
