<svg xmlns="http://www.w3.org/2000/svg" width="50" height="50" viewBox="0 0 50 50">
  <path d="M44.99435,21.1548 L44.9961095,21.1530356 C46.1386595,21.3252956 47.0017595,22.3272656 47.0017595,23.4874106 L47.0017595,27.5110406 C47.0017595,28.6711856 46.1404595,29.6749061 44.9961095,29.8454156 C44.1488495,29.9719781 43.2804845,30.0950261 42.4138745,30.2075261 C42.3084035,30.2198291 42.2222704,30.2919011 42.1959035,30.3885791 C41.7951335,31.8405491 41.2150385,33.2414891 40.4697485,34.5528341 C40.4205311,34.6407281 40.4293196,34.7514686 40.4943581,34.8358436 C41.0287331,35.5284386 41.5560881,36.2280536 42.0658481,36.9170936 C42.7531691,37.8469736 42.6529541,39.1670936 41.8338191,39.9862286 L38.9896841,42.8303636 C38.1705491,43.6495076 36.8504291,43.7496776 35.9205491,43.0623926 C35.2350191,42.5543876 34.5336491,42.0252776 33.8392991,41.4909026 C33.7549241,41.4258636 33.6441791,41.4170724 33.5562896,41.4662934 C32.2467446,42.2115834 30.8440046,42.7916694 29.3920346,43.1924484 C29.2953566,43.2205734 29.2250441,43.3049484 29.2109816,43.4104194 C29.0967221,44.2787844 28.9754336,45.1471494 28.8488711,45.9926544 C28.6766111,47.1352044 27.6746411,47.9983044 26.5144961,47.9983044 L22.4908661,47.9983044 C21.3307211,47.9983044 20.3270006,47.1370044 20.1564911,45.9926544 C20.0299286,45.1471494 19.9068806,44.2787844 19.7943806,43.4104194 C19.7820776,43.3067079 19.7100056,43.2205752 19.6133276,43.1942079 C18.1596026,42.7934379 16.7586626,42.2133429 15.4473176,41.4680529 C15.3594236,41.4188351 15.2486831,41.4276236 15.1643081,41.4926621 C14.4699581,42.0270371 13.7703431,42.5561471 13.0830581,43.0641521 C12.1531781,43.7514731 10.8330581,43.6512581 10.0139231,42.8321231 L7.1697881,39.9879881 C6.3506441,39.1688531 6.2504741,37.8487331 6.9377591,36.9188531 C7.4475191,36.2315681 7.9748741,35.5301981 8.5092491,34.8376031 C8.57428805,34.7532281 8.58307925,34.6424831 8.53385825,34.5545936 C7.78856825,33.2414936 7.20848225,31.8405536 6.80770325,30.3885836 C6.78133775,30.2919056 6.69696275,30.2215931 6.59149175,30.2075306 C5.72488175,30.0932711 4.85651675,29.9719826 4.00925675,29.8454201 C2.86495175,29.6731601 2.00360675,28.6711901 2.00360675,27.5110451 L2.00360675,23.4874151 C2.00360675,22.3272701 2.86490675,21.3235496 4.00925675,21.1530401 C4.85651675,21.0264776 5.72488175,20.9034296 6.59149175,20.7909296 C6.69520325,20.7768671 6.78133595,20.7065546 6.80770325,20.6098766 C7.20847325,19.1579066 7.78856825,17.7552116 8.53385825,16.4438666 C8.5830761,16.3559726 8.5742876,16.2452321 8.5092491,16.1608571 C7.9766291,15.4700171 7.4475191,14.7686471 6.9377591,14.0796071 C6.2504381,13.1497271 6.3506531,11.8296071 7.1697881,11.0104721 L10.0139231,8.16633705 C10.8330581,7.34719305 12.1531781,7.24702305 13.0830581,7.93430805 C13.7685881,8.44231305 14.4699581,8.97142305 15.1643081,9.50579805 C15.2469281,9.570837 15.3594281,9.57962865 15.4473176,9.53040765 C16.7568626,8.78511765 18.1596026,8.20503165 19.6115726,7.80425265 C19.7082506,7.77788715 19.7785631,7.69351215 19.7926256,7.58804115 C19.9068851,6.71967615 20.0281736,5.85131115 20.1547361,5.00580615 C20.3269961,3.86150115 21.3289661,3.00015615 22.4891111,3.00015615 L26.5127411,3.00015615 C27.6728861,3.00015615 28.6766066,3.86145615 28.8471161,5.00580615 C28.9736786,5.85131115 29.0967266,6.71967615 29.2092266,7.58804115 C29.2215296,7.69351215 29.2936016,7.77964485 29.3902796,7.80601215 C30.8440046,8.20678215 32.2449446,8.78687715 33.5562896,9.53216715 C33.6441836,9.581385 33.7549241,9.5725965 33.8392991,9.507558 C34.5336491,8.973183 35.2332641,8.444073 35.9205491,7.936068 C36.8504291,7.248747 38.1705491,7.348962 38.9896841,8.168097 L41.8338191,11.012232 C42.6529631,11.833122 42.7531331,13.151487 42.0658481,14.081367 C41.5560881,14.768652 41.0269781,15.470022 40.4943581,16.162617 C40.4293192,16.246992 40.4205275,16.357737 40.4697485,16.4456265 C41.2150385,17.7587265 41.7951245,19.1596665 42.1959035,20.6116365 C42.222269,20.7083145 42.306644,20.778627 42.412115,20.7926895 C43.278725,20.906949 44.14709,21.0282375 44.99435,21.1548 Z M24.5,13.3185 C17.7851,13.3185 12.3185,18.7851 12.3185,25.5 C12.3185,32.2149 17.7851,37.6797 24.5,37.6797 C31.2149,37.6797 36.6797,32.2131 36.6797,25.5 C36.6797,18.7851 31.2131,13.3185 24.5,13.3185 Z"/>
</svg>
