<svg xmlns="http://www.w3.org/2000/svg" width="50" height="50" viewBox="0 0 50 50">
  <path d="M37.4206856,3 C33.3680953,3 30.0523396,6.16298812 30.0523396,10.0288625 C30.0523396,10.8168683 30.1904961,11.5801324 30.443783,12.2913127 L17.8254904,20.1109222 C16.4756094,18.6804081 14.532724,17.7606112 12.368346,17.7606112 C8.3157557,17.7606112 5,20.9235993 5,24.7894737 C5,28.655348 8.3157557,31.8183362 12.368346,31.8183362 C14.5414186,31.8183362 16.4957987,30.9095042 17.8485533,29.4680251 L30.444004,37.2876346 C30.1849624,38.0042272 30.0525606,38.7537851 30.0525606,39.5500849 C30.0525606,43.4159593 33.3683163,46.5789474 37.4209066,46.5789474 C41.4734969,46.5789474 44.7892526,43.4159593 44.7892526,39.5500849 C44.7892526,35.6842105 41.4734969,32.5212224 37.4209066,32.5212224 C35.256455,32.5212224 33.3136432,33.4410194 31.9637622,34.8715334 L19.3454697,27.0519239 C19.5987566,26.3408139 19.7369131,25.5774795 19.7369131,24.7894737 C19.7369131,23.9932441 19.6045113,23.2436862 19.3454697,22.5270234 L31.9409203,14.7074139 C33.293675,16.148893 35.2480551,17.057725 37.4211277,17.057725 C41.473718,17.057725 44.7894737,13.8947368 44.7894737,10.0288625 C44.7894737,6.16298812 41.473718,3 37.4211277,3 L37.4206856,3 Z M37.4206856,5.81154499 C39.8786921,5.81154499 41.8416932,7.68410424 41.8416932,10.0288625 C41.8416932,12.3736207 39.8786921,14.24618 37.4206856,14.24618 C34.962679,14.24618 32.999678,12.3736207 32.999678,10.0288625 C32.999678,7.68410424 34.962679,5.81154499 37.4206856,5.81154499 Z M12.3683092,20.5721562 C14.8263157,20.5721562 16.7893168,22.4447154 16.7893168,24.7894737 C16.7893168,27.1342319 14.8263157,29.0067912 12.3683092,29.0067912 C9.91030262,29.0067912 7.94730156,27.1342319 7.94730156,24.7894737 C7.94730156,22.4447154 9.91030262,20.5721562 12.3683092,20.5721562 Z M37.4206856,35.3327674 C39.8786921,35.3327674 41.8416932,37.2053267 41.8416932,39.5500849 C41.8416932,41.8948431 39.8786921,43.7674024 37.4206856,43.7674024 C34.962679,43.7674024 32.999678,41.8948431 32.999678,39.5500849 C32.999678,37.2053267 34.962679,35.3327674 37.4206856,35.3327674 Z"/>
</svg>
