<svg xmlns="http://www.w3.org/2000/svg" width="50" height="50" viewBox="0 0 50 50">
  <path d="M44.8554,24.72285 C43.49136,23.248065 41.939175,21.77148 40.2339,20.396865 C35.44545,16.54023 30.4374,14.249865 25.5,14.249865 C20.5626,14.249865 15.5541,16.540275 10.7661,20.396865 C9.061005,21.77148 7.508865,23.24802 6.1446,24.72285 C5.8949895,24.993552 5.659455,25.25196 5.44323,25.49982 C5.6594415,25.747671 5.894985,26.00607 6.1446,26.27679 C7.50864,27.751575 9.060825,29.22816 10.7661,30.602775 C15.55455,34.45941 20.5626,36.749775 25.5,36.749775 C30.4374,36.749775 35.4459,34.459365 40.2339,30.602775 C41.938995,29.22816 43.491135,27.75162 44.8554,26.27679 C45.1050105,26.006088 45.340545,25.74768 45.55677,25.49982 C45.3405585,25.251969 45.105015,24.99357 44.8554,24.72285 Z M25.5,38.6256 C13.07415,38.6256 3,25.5 3,25.5 C3,25.5 13.07415,12.3744 25.5,12.3744 C37.92585,12.3744 48,25.5 48,25.5 C48,25.5 37.92585,38.6256 25.5,38.6256 Z M25.5,33.9375 C30.15975,33.9375 33.9375,30.159975 33.9375,25.5 C33.9375,20.840025 30.159975,17.0625 25.5,17.0625 C20.840025,17.0625 17.0625,20.840025 17.0625,25.5 C17.0625,30.159975 20.840025,33.9375 25.5,33.9375 Z M25.5,32.0619 C21.875385,32.0619 18.9381,29.124615 18.9381,25.5 C18.9381,21.875385 21.875385,18.9381 25.5,18.9381 C29.124615,18.9381 32.0619,21.875385 32.0619,25.5 C32.0619,29.124615 29.124615,32.0619 25.5,32.0619 Z"/>
</svg>
