<svg xmlns="http://www.w3.org/2000/svg" width="50" height="50" viewBox="0 0 50 50">
  <path d="M27.0040909,24.6401869 L24.6940909,24.6401869 L24.6940909,19.337192 C24.6940909,14.8331034 21.0877446,11.1818182 16.6390909,11.1818182 C12.1904372,11.1818182 8.58409091,14.8331034 8.58409091,19.337192 L8.58409091,24.6401869 L6.27272727,24.6401869 C4.46742591,24.6454948 3.00524256,26.1258985 3,27.9536958 L3,43.3228547 C3.00449718,45.1509658 4.46711599,46.6318104 6.27272727,46.6363636 L27,46.6363636 C28.8053014,46.6310557 30.2674847,45.150652 30.2727273,43.3228547 L30.2727273,27.9578377 C30.2674847,26.1300404 28.8053014,24.6496367 27,24.6443288 L27.0040909,24.6401869 Z M10.5163636,19.337192 C10.4833948,17.1006942 11.6429859,15.0196518 13.5507059,13.8916561 C15.4584258,12.7636603 17.8183924,12.7636603 19.7261123,13.8916561 C21.6338323,15.0196518 22.7934234,17.1006942 22.7604545,19.337192 L22.7604545,24.6401869 L10.5163636,24.6401869 L10.5163636,19.337192 Z M28.3486364,43.3228547 C28.3478838,44.0749032 27.7455201,44.684155 27.0027273,44.6841546 L6.27545455,44.6841546 C5.53266169,44.684155 4.93029803,44.0749032 4.92954545,43.3228547 L4.92954545,27.9578377 C4.93029803,27.2057893 5.53266169,26.5965374 6.27545455,26.5965378 L27.0027273,26.5965378 C27.7455201,26.5965374 28.3478838,27.2057893 28.3486364,27.9578377 L28.3486364,43.3228547 Z M39.1363636,3 C44.025088,3 48,6.97491202 48,11.8636364 C48,16.7523607 44.025088,20.7272727 39.1363636,20.7272727 C34.2476393,20.7272727 30.2727273,16.7523607 30.2727273,11.8636364 C30.2727273,6.97491202 34.2476393,3 39.1363636,3 Z M39.0654519,7.0909773 C38.7277734,7.0909773 38.4545455,7.33501997 38.4545455,7.63661059 L38.4545455,12.5473102 C38.4545455,12.7487253 38.5774415,12.9213691 38.7599987,13.0162275 C40.1631896,13.7398191 41.5806758,14.4719498 42.9886929,15.1987607 C43.2810208,15.3490226 43.6604456,15.2637674 43.8286893,15.0026737 C43.9969329,14.74158 43.8919272,14.4112072 43.5995994,14.2609398 L39.6763583,12.231866 L39.6763583,7.63654239 C39.6763583,7.33494358 39.4031212,7.09090909 39.0654519,7.09090909 L39.0654519,7.0909773 Z"/>
</svg>
