<svg xmlns="http://www.w3.org/2000/svg" width="50" height="50" viewBox="0 0 50 50">
  <path d="M25.5,3 C13.0901613,3 3,13.0901613 3,25.5 C3,37.9098387 13.0901613,48 25.5,48 C37.9098387,48 48,37.9098387 48,25.5 C48,13.0901613 37.9098387,3 25.5,3 Z M25.5,5.90322581 C36.3391935,5.90322581 45.0967742,14.6608065 45.0967742,25.5 C45.0967742,36.3391935 36.3391935,45.0967742 25.5,45.0967742 C14.6608065,45.0967742 5.90322581,36.3391935 5.90322581,25.5 C5.90322581,14.6608065 14.6608065,5.90322581 25.5,5.90322581 Z M25.5,10.983871 C24.697621,10.983871 24.0483871,11.6331266 24.0483871,12.4354839 L24.0483871,25.5 C24.0483871,26.0358484 24.3404081,26.4951532 24.7741935,26.7475161 C28.1084032,28.6725726 31.4765806,30.6203468 34.8222581,32.5539677 C35.5168766,32.9537274 36.4184516,32.7269129 36.8182258,32.0322944 C37.218,31.3376758 36.9684895,30.458746 36.273871,30.0589718 L26.9516129,24.6607863 L26.9516129,12.4353024 C26.9516129,11.6329234 26.3023573,10.9836895 25.5,10.9836895 L25.5,10.983871 Z"/>
</svg>
