<svg xmlns="http://www.w3.org/2000/svg" width="50" height="50" viewBox="0 0 50 50">
  <path fill-rule="evenodd" d="M44.7049349,21.8650455 C42.559311,19.5530208 39.9752664,18.3800978 36.9603383,18.3273366 L36.9603383,18.3165138 L8.50318591,18.3165138 L15.3307418,10.9624084 C15.960108,10.2846294 15.960108,9.18611329 15.3307418,8.50833427 C14.7013756,7.83055524 13.6813249,7.83055524 13.0519587,8.50833427 L3.48081822,18.8157163 C3.47830578,18.818422 3.47453712,18.8197748 3.47202468,18.8224805 C2.84265844,19.5002596 2.84265844,20.5987757 3.47202468,21.2765547 L13.0444213,31.5879953 C13.6737876,32.2644214 14.6950945,32.2644214 15.3244607,31.5879953 C15.9538269,30.9102162 15.9538269,29.8103473 15.3244607,29.1325683 L8.49564859,21.7798158 L36.7605994,21.7798158 C38.9790839,21.7811686 40.8696951,22.6253485 42.433689,24.3096496 C44.0014516,25.9980094 44.7853329,28.0381107 44.7853329,30.4326594 C44.7853329,32.827208 44.0014516,34.8673093 42.433689,36.5556691 C40.8671826,38.2426759 38.9728028,39.0868558 36.7492934,39.0868558 C35.8611458,39.0868558 35.1413317,39.8620402 35.1413317,40.8185068 C35.1413317,41.7749734 35.8611458,42.548805 36.7492934,42.548805 C39.8559255,42.548805 42.507806,41.366412 44.7049349,39.0002733 C46.9008075,36.6341345 48,33.7796161 48,30.4326594 C48,27.0857027 46.9008075,24.2298314 44.7049349,21.8650455"/>
</svg>
