<svg xmlns="http://www.w3.org/2000/svg" width="50" height="50" viewBox="0 0 50 50">
  <path fill-rule="evenodd" d="M38.7951632,41.7335947 C38.7951632,43.4133288 37.368729,44.7798705 35.6148514,44.7798705 L13.5223567,44.7798705 C11.7671534,44.7798705 10.3407193,43.4133288 10.3407193,41.7335947 L10.3407193,29.0831771 C10.3407193,27.4021646 11.7671534,26.035623 13.5223567,26.035623 L35.6148514,26.035623 C37.368729,26.035623 38.7951632,27.4021646 38.7951632,29.0831771 L38.7951632,41.7335947 Z M36.3850728,22.7848134 L16.1816753,22.7848134 L16.1816753,14.2595875 C16.1856523,12.0378388 16.9996212,10.1433441 18.623582,8.57738197 C20.2528455,7.00630646 22.2214836,6.22140787 24.5321478,6.22140787 C26.8414863,6.22140787 28.8114501,7.00630646 30.4393879,8.57738197 C32.0686514,10.1471791 32.8812946,12.0455088 32.8812946,14.2736492 L32.8852717,14.2736492 C32.8852717,15.1620931 33.6316308,15.8817965 34.5543056,15.8817965 C35.4756548,15.8817965 36.2233396,15.1620931 36.2233396,14.2736492 C36.2233396,14.2685359 36.2220139,14.2647009 36.2220139,14.2595875 C36.2193625,11.1519516 35.0766244,8.49940344 32.7991023,6.30194307 C30.5162775,4.10192603 27.7601841,3 24.5321478,3 C21.3027858,3 18.5480181,4.10192603 16.2651933,6.30194307 C14.0102078,8.47639339 12.8740981,11.0982615 12.8475844,14.1649906 L12.8436074,14.1649906 L12.8436074,14.2480825 C12.8436074,14.2570309 12.8422817,14.2647009 12.8422817,14.2736492 L12.8436074,14.2736492 L12.8436074,22.7848134 L12.7468326,22.7848134 C9.54530993,22.9842339 7,25.5741435 7,28.7393046 L7,42.0263337 C7,45.3206068 9.7560934,48 13.1418859,48 L35.9900195,48 C39.375812,48 42.1319054,45.3206068 42.1319054,42.0263337 L42.1319054,28.7393046 C42.1319054,25.5741435 39.5879211,22.9842339 36.3850728,22.7848134 Z"/>
</svg>
