<svg xmlns="http://www.w3.org/2000/svg" width="50" height="50" viewBox="0 0 50 50">
  <path d="M31.3759798,29.7157383 L45.4206607,43.7281428 C45.8704134,44.1768618 45.8712512,44.9052171 45.4225322,45.3549697 C45.4182835,45.3592281 45.4140016,45.3634532 45.4096866,45.3676444 C44.9447117,45.8192933 44.2033185,45.8141594 43.7446428,45.3561145 L30.6324915,32.2619959 L30.369352,38.1519213 C30.369352,38.4287765 30.2515654,38.6515474 30.0205152,38.8721589 L27.121081,41.6405996 C26.890054,41.8633705 26.6000874,41.9736762 26.3101672,41.9736762 C26.0202469,41.9736762 25.7303035,41.8612111 25.4992534,41.6405996 L18.1352702,34.5528377 L4.97009891,47.0672971 C4.73907198,47.290068 4.44910536,47.4003737 4.15918513,47.4003737 C3.86926489,47.4003737 3.57932147,47.2879086 3.34827135,47.0672971 C2.88390955,46.6239036 2.88390955,45.9599097 3.34827135,45.5165274 L16.4525545,32.9461454 L9.08857134,25.9148597 C8.85525966,25.6942703 8.7397346,25.4174041 8.7397346,25.1405822 C8.7397346,24.8637602 8.85752122,24.5869162 9.08857134,24.3663047 L11.9880056,21.6541186 C12.1624356,21.4313478 12.452379,21.321042 12.7423224,21.321042 L19.4047329,21.0496784 L4.75788991,6.42297864 C4.24555063,5.91134397 4.12097368,5.12797403 4.44932482,4.48264691 C4.67042378,4.04810858 5.20192282,3.87508178 5.63646115,4.09618074 C5.71887024,4.1381116 5.79418025,4.19272888 5.85963683,4.25803502 L21.7927528,20.1545347 L30.0212111,12.2978299 L27.9916071,10.3599214 C27.5272453,9.91652796 27.5272453,9.25253406 27.9916071,8.80915167 L32.1097316,4.87707994 C32.5151885,4.43369755 33.2695169,4.43369755 33.7338787,4.87707994 L47.6511633,18.1655954 C47.8844749,18.3861848 48,18.6630288 48,18.9398729 L47.9991186,18.9392196 C47.9991186,19.2160747 47.8835993,19.4929188 47.5913885,19.6572977 L43.473264,23.5893694 C43.2422371,23.8121403 42.9522705,23.9224461 42.6623502,23.9224461 C42.37243,23.9224461 42.0824866,23.8099809 41.8514365,23.5893694 L39.8218325,21.6514609 L31.3759798,29.7157383 Z M29.7922756,28.1356737 L39.0706702,19.3270117 C39.3016972,19.1042408 39.5916638,18.993935 39.881584,18.993935 C40.1715042,18.993935 40.4614477,19.1064002 40.6924978,19.3270117 L42.7221018,21.2649202 L45.1572903,18.9943115 L32.8642688,7.25667655 L30.4292079,9.58172381 L32.4588119,11.5196323 C32.9231737,11.9630258 32.9231737,12.6270197 32.4588119,13.0704021 L23.3550601,21.7132516 L29.7922756,28.1356737 Z M28.4415165,30.0740341 L21.5035154,23.1455745 C21.4827313,23.1467135 21.4619045,23.1472827 21.4410776,23.1472827 L13.3226616,23.5365919 L11.583001,25.1976563 L18.9469842,32.2289421 L26.3109674,39.2624426 L28.050628,37.6013781 L28.4415165,30.0740341 Z"/>
</svg>
