<svg xmlns="http://www.w3.org/2000/svg" width="50" height="50" viewBox="0 0 50 50">
  <path d="M7.04185711,38.0933999 L11.9993752,38.0933999 L12.0541067,38.0933999 L25.6340374,47.4971318 C26.1182135,47.8338325 26.6045021,48 27.196007,48 C28.7579766,48 29.997895,46.7122132 29.997895,45.0899421 L30,5.91005791 C30,4.28778682 28.7600816,3 27.198112,3 C26.6592045,3 26.1202969,3.16835037 25.6361424,3.50286822 L12.054056,12.9066001 L11.9993246,12.9066001 L7.04180645,12.9066001 C4.83142334,12.9066001 3,14.8087275 3,17.1044449 L3,33.8958238 C3,36.1915411 4.83142334,38.0936685 7.04180645,38.0936685 L7.04185711,38.0933999 Z M13.7782012,15.0337992 L27.1436468,5.79854077 C27.1436468,5.79854077 27.2510079,5.79854077 27.2510079,5.91004672 L27.2510079,45.0899309 C27.2510079,45.2014368 27.1436468,45.2014368 27.1436468,45.2014368 L13.7782012,35.9661784 L13.7782012,15.0337992 Z M5.69458829,17.1042881 C5.69458829,16.321586 6.28824882,15.7050066 7.04185711,15.7050066 L11.0836636,15.7050066 L11.0836636,35.2949487 L7.04185711,35.2949487 C6.28824882,35.2949487 5.69458829,34.6783692 5.69458829,33.8956671 L5.69458829,17.1042881 Z M35.4,31.5965372 L35.4,31.5961938 C35.8037901,31.1937267 36.1489579,30.7934578 36.4399675,30.2791746 C38.4612282,27.3615604 38.4612282,23.5267037 36.4399675,20.6064563 C36.151216,20.203932 35.8038017,19.8037088 35.4,19.4034628 L37.4212607,17.4 C41.9262464,21.8654323 41.9262464,29.1346822 37.4212607,33.6 L35.4,31.5965372 Z M46.2,25.5 C46.2,29.9153026 44.3845473,34.0545384 41.0486472,37.2 L39,35.2683051 C41.7505723,32.6748667 43.2733611,29.197264 43.2733611,25.5 C43.2733611,21.802736 41.7505723,18.3252436 39,15.7316949 L41.0486472,13.8 C44.3845473,16.9453512 46.2,21.0846974 46.2,25.5 Z"/>
</svg>
